SplineFontDB: 3.2
FontName: ZainRo-Regular
FullName: ZainRo Regular
FamilyName: ZainRo
Weight: Regular
Copyright: Copyright 2024 The Zain Project Authors (https://github.com/googlefonts/zain) and 2025 Lazar (https://bylazar.com)
Version: 1.51; ttfautohint (v1.8.4)
ItalicAngle: 0
UnderlinePosition: -100
UnderlineWidth: 50
Ascent: 800
Descent: 200
InvalidEm: 0
sfntRevision: 0x0001828f
LayerCount: 2
Layer: 0 1 "Back" 1
Layer: 1 1 "Fore" 0
XUID: [1021 736 -289526145 26820]
StyleMap: 0x0040
FSType: 0
OS2Version: 4
OS2_WeightWidthSlopeOnly: 0
OS2_UseTypoMetrics: 1
CreationTime: 1722724807
ModificationTime: 1760719388
PfmFamily: 81
TTFWeight: 400
TTFWidth: 5
LineGap: 0
VLineGap: 0
Panose: 0 0 9 0 0 0 0 0 0 0
OS2TypoAscent: 900
OS2TypoAOffset: 0
OS2TypoDescent: -500
OS2TypoDOffset: 0
OS2TypoLinegap: 0
OS2WinAscent: 881
OS2WinAOffset: 0
OS2WinDescent: 501
OS2WinDOffset: 0
HheadAscent: 900
HheadAOffset: 0
HheadDescent: -500
HheadDOffset: 0
OS2SubXSize: 650
OS2SubYSize: 600
OS2SubXOff: 0
OS2SubYOff: 75
OS2SupXSize: 650
OS2SupYSize: 600
OS2SupXOff: 0
OS2SupYOff: 350
OS2StrikeYSize: 45
OS2StrikeYPos: 267
OS2CapHeight: 556
OS2XHeight: 368
OS2Vendor: '1BOU'
OS2CodePages: 00000041.00000000
OS2UnicodeRanges: 800020af.d000204a.00000008.00000000
Lookup: 1 0 0 "'aalt' Access All Alternates lookup 0" { "'aalt' Access All Alternates lookup 0 subtable"  } ['aalt' ('DFLT' <'dflt' > 'arab' <'URD ' 'dflt' > 'latn' <'dflt' > ) ]
Lookup: 3 0 0 "'aalt' Access All Alternates lookup 1" { "'aalt' Access All Alternates lookup 1 subtable"  } ['aalt' ('DFLT' <'dflt' > 'arab' <'URD ' 'dflt' > 'latn' <'dflt' > ) ]
Lookup: 1 0 0 "Single Substitution lookup 2" { "Single Substitution lookup 2 subtable"  } []
Lookup: 1 0 0 "'sups' Superscript lookup 3" { "'sups' Superscript lookup 3 subtable" ("superior") } ['sups' ('DFLT' <'dflt' > 'arab' <'URD ' 'dflt' > 'latn' <'dflt' > ) ]

StartChar: .notdef
Encoding: 65536 -1 0
Width: 531
GlyphClass: 1
Flags: W
LayerCount: 2
Fore
SplineSet
35 545 m 1,0,-1
 496 545 l 1,1,-1
 496 -254 l 1,2,-1
 35 -254 l 1,3,-1
 35 545 l 1,0,-1
83 497 m 1,4,-1
 83 -206 l 1,5,-1
 448 -206 l 1,6,-1
 448 497 l 1,7,-1
 83 497 l 1,4,-1
225 67 m 1,8,-1
 225 88 l 2,9,10
 225 108 225 108 236.5 125 c 128,-1,11
 248 142 248 142 277 165 c 0,12,13
 306 189 306 189 318 207 c 128,-1,14
 330 225 330 225 331 247 c 0,15,16
 331 275 331 275 312 290.5 c 128,-1,17
 293 306 293 306 259 307 c 0,18,19
 231 308 231 308 208.5 302 c 128,-1,20
 186 296 186 296 147 277 c 1,21,-1
 142 294 l 2,22,23
 141 299 141 299 140 303.5 c 128,-1,24
 139 308 139 308 138 312 c 0,25,26
 137 334 137 334 169 347 c 0,27,28
 192 357 192 357 214 361 c 128,-1,29
 236 365 236 365 261 365 c 0,30,31
 327 365 327 365 364 338 c 128,-1,32
 401 311 401 311 402 262 c 0,33,34
 403 235 403 235 394 213 c 128,-1,35
 385 191 385 191 361.5 167.5 c 128,-1,36
 338 144 338 144 295 112 c 0,37,38
 275 97 275 97 275 75 c 2,39,-1
 275 67 l 1,40,-1
 225 67 l 1,8,-1
209 -29 m 0,41,42
 210 -9 210 -9 221.5 2.5 c 128,-1,43
 233 14 233 14 252 14 c 0,44,45
 270 14 270 14 281.5 2 c 128,-1,46
 293 -10 293 -10 293 -29 c 256,47,48
 293 -48 293 -48 281.5 -60 c 128,-1,49
 270 -72 270 -72 252 -72 c 0,50,51
 212 -72 212 -72 209 -29 c 0,41,42
EndSplineSet
EndChar

StartChar: exclam
Encoding: 33 33 3
Width: 160
GlyphClass: 1
Flags: W
LayerCount: 2
Fore
SplineSet
48 162 m 2,0,-1
 40 547 l 2,1,2
 40 556 40 556 49 556 c 2,3,-1
 55 556 l 2,4,5
 84 556 84 556 101 538.5 c 128,-1,6
 118 521 118 521 117 485 c 2,7,-1
 111 162 l 2,8,9
 111 154 111 154 103 154 c 2,10,-1
 55 154 l 2,11,12
 48 154 48 154 48 162 c 2,0,-1
80 99 m 0,13,14
 103 99 103 99 118.5 83 c 128,-1,15
 134 67 134 67 134 44 c 0,16,17
 134 22 134 22 118.5 5.5 c 128,-1,18
 103 -11 103 -11 80 -11 c 0,19,20
 58 -11 58 -11 42 5.5 c 128,-1,21
 26 22 26 22 26 44 c 0,22,23
 26 67 26 67 42 83 c 128,-1,24
 58 99 58 99 80 99 c 0,13,14
EndSplineSet
Substitution2: "'locl' Localized Forms in Arabic lookup 15 subtable" exclam.ar
EndChar

StartChar: quotedbl
Encoding: 34 34 4
Width: 257
GlyphClass: 1
Flags: W
LayerCount: 2
Fore
SplineSet
43 379 m 2,0,-1
 28 547 l 2,1,2
 27 556 27 556 36 556 c 2,3,-1
 48 556 l 2,4,5
 80 556 80 556 92.5 541 c 128,-1,6
 105 526 105 526 103 488 c 2,7,-1
 94 379 l 2,8,9
 92 371 92 371 86 371 c 2,10,-1
 51 371 l 2,11,12
 45 371 45 371 43 379 c 2,0,-1
165 379 m 2,13,-1
 150 547 l 2,14,15
 149 552 149 552 152 554 c 128,-1,16
 155 556 155 556 158 556 c 2,17,-1
 171 556 l 2,18,19
 203 556 203 556 215.5 541 c 128,-1,20
 228 526 228 526 225 488 c 2,21,-1
 216 379 l 2,22,23
 216 371 216 371 208 371 c 2,24,-1
 173 371 l 2,25,26
 167 371 167 371 165 379 c 2,13,-1
EndSplineSet
EndChar

StartChar: numbersign
Encoding: 35 35 5
Width: 548
GlyphClass: 1
Flags: W
LayerCount: 2
Fore
SplineSet
100 151 m 1,0,-1
 32 151 l 2,1,2
 22 151 22 151 25 159 c 2,3,-1
 35 198 l 2,4,5
 38 207 38 207 46 207 c 2,6,-1
 115 207 l 1,7,-1
 150 347 l 1,8,-1
 82 347 l 2,9,10
 72 347 72 347 75 356 c 2,11,-1
 85 394 l 2,12,13
 88 403 88 403 95 403 c 2,14,-1
 164 403 l 1,15,-1
 199 547 l 2,16,17
 201 556 201 556 208 556 c 2,18,-1
 225 556 l 2,19,20
 274 556 274 556 260 502 c 2,21,-1
 235 403 l 1,22,-1
 379 403 l 1,23,-1
 415 547 l 2,24,25
 417 556 417 556 424 556 c 2,26,-1
 441 556 l 2,27,28
 489 556 489 556 475 502 c 2,29,-1
 451 403 l 1,30,-1
 518 403 l 2,31,32
 528 403 528 403 525 394 c 2,33,-1
 515 356 l 2,34,35
 512 347 512 347 505 347 c 2,36,-1
 437 347 l 1,37,-1
 402 207 l 1,38,-1
 470 207 l 2,39,40
 481 207 481 207 476 198 c 2,41,-1
 466 159 l 2,42,43
 465 151 465 151 456 151 c 2,44,-1
 388 151 l 1,45,-1
 352 9 l 2,46,47
 351 0 351 0 344 0 c 2,48,-1
 286 0 l 2,49,50
 279 0 279 0 281 9 c 2,51,-1
 315 151 l 1,52,-1
 172 151 l 1,53,-1
 136 9 l 2,54,55
 136 0 136 0 129 0 c 2,56,-1
 71 0 l 2,57,58
 63 0 63 0 65 9 c 2,59,-1
 100 151 l 1,0,-1
186 207 m 1,60,-1
 329 207 l 1,61,-1
 365 347 l 1,62,-1
 222 347 l 1,63,-1
 186 207 l 1,60,-1
EndSplineSet
EndChar

StartChar: dollar
Encoding: 36 36 6
Width: 454
GlyphClass: 1
Flags: W
LayerCount: 2
Fore
SplineSet
210 57 m 1,0,-1
 210 254 l 1,1,2
 170 268 170 268 132 286 c 128,-1,3
 94 304 94 304 69 334.5 c 128,-1,4
 44 365 44 365 44 414 c 0,5,6
 44 479 44 479 91 519.5 c 128,-1,7
 138 560 138 560 210 566 c 1,8,-1
 210 612 l 2,9,10
 210 621 210 621 218 621 c 2,11,-1
 250 621 l 2,12,13
 258 621 258 621 258 612 c 2,14,-1
 258 566 l 1,15,16
 290 564 290 564 316.5 557 c 128,-1,17
 343 550 343 550 367 539 c 0,18,19
 417 521 417 521 405 479 c 2,20,-1
 400 461 l 2,21,22
 397 451 397 451 391 451 c 0,23,24
 387 451 387 451 377 456 c 0,25,26
 351 473 351 473 321.5 483.5 c 128,-1,27
 292 494 292 494 258 497 c 1,28,-1
 258 311 l 1,29,30
 298 298 298 298 335.5 281 c 128,-1,31
 373 264 373 264 397.5 235.5 c 128,-1,32
 422 207 422 207 422 159 c 0,33,34
 422 91 422 91 378.5 46 c 128,-1,35
 335 1 335 1 258 -8 c 1,36,-1
 258 -56 l 2,37,38
 258 -64 258 -64 250 -64 c 2,39,-1
 218 -64 l 2,40,41
 210 -64 210 -64 210 -56 c 2,42,-1
 210 -11 l 1,43,44
 147 -9 147 -9 106.5 13 c 128,-1,45
 66 35 66 35 46.5 64.5 c 128,-1,46
 27 94 27 94 27 120 c 0,47,48
 27 141 27 141 40 141 c 0,49,50
 47 141 47 141 53 133 c 0,51,52
 83 99 83 99 120.5 79 c 128,-1,53
 158 59 158 59 210 57 c 1,0,-1
210 328 m 1,54,-1
 210 498 l 1,55,56
 168 495 168 495 142 473.5 c 128,-1,57
 116 452 116 452 116 418 c 0,58,59
 116 383 116 383 143.5 363 c 128,-1,60
 171 343 171 343 210 328 c 1,54,-1
258 238 m 1,61,-1
 258 61 l 1,62,63
 301 69 301 69 325 92 c 128,-1,64
 349 115 349 115 349 149 c 0,65,66
 349 184 349 184 322.5 203.5 c 128,-1,67
 296 223 296 223 258 238 c 1,61,-1
EndSplineSet
EndChar

StartChar: percent
Encoding: 37 37 7
Width: 761
GlyphClass: 1
Flags: W
LayerCount: 2
Fore
SplineSet
171 223 m 0,0,1
 108 223 108 223 71 269.5 c 128,-1,2
 34 316 34 316 34 394 c 256,3,4
 34 472 34 472 71 519.5 c 128,-1,5
 108 567 108 567 171 567 c 0,6,7
 235 567 235 567 272 519.5 c 128,-1,8
 309 472 309 472 309 394 c 256,9,10
 309 316 309 316 272.5 269.5 c 128,-1,11
 236 223 236 223 171 223 c 0,0,1
198 0 m 2,12,13
 190 0 190 0 195 9 c 2,14,-1
 490 547 l 2,15,16
 496 556 496 556 502 556 c 2,17,-1
 515 556 l 2,18,19
 540 556 540 556 546 539 c 128,-1,20
 552 522 552 522 538 496 c 2,21,-1
 270 9 l 2,22,23
 264 0 264 0 257 0 c 2,24,-1
 198 0 l 2,12,13
171 276 m 0,25,26
 191 277 191 277 208.5 286 c 128,-1,27
 226 295 226 295 237 320 c 128,-1,28
 248 345 248 345 248 393 c 0,29,30
 248 442 248 442 237 468 c 128,-1,31
 226 494 226 494 208.5 503.5 c 128,-1,32
 191 513 191 513 171 513 c 0,33,34
 152 513 152 513 134.5 503.5 c 128,-1,35
 117 494 117 494 106 468 c 128,-1,36
 95 442 95 442 95 393 c 0,37,38
 95 345 95 345 106 319.5 c 128,-1,39
 117 294 117 294 134.5 285 c 128,-1,40
 152 276 152 276 171 276 c 0,25,26
590 -9 m 256,41,42
 526 -9 526 -9 489 38 c 128,-1,43
 452 85 452 85 452 163 c 0,44,45
 452 240 452 240 489 287.5 c 128,-1,46
 526 335 526 335 590 335 c 0,47,48
 653 335 653 335 690.5 287.5 c 128,-1,49
 728 240 728 240 728 163 c 0,50,51
 728 85 728 85 691 38 c 128,-1,52
 654 -9 654 -9 590 -9 c 256,41,42
590 45 m 256,53,54
 609 45 609 45 626.5 54 c 128,-1,55
 644 63 644 63 655.5 88 c 128,-1,56
 667 113 667 113 667 162 c 256,57,58
 667 211 667 211 655.5 236.5 c 128,-1,59
 644 262 644 262 626.5 271.5 c 128,-1,60
 609 281 609 281 590 281 c 256,61,62
 571 281 571 281 553.5 271.5 c 128,-1,63
 536 262 536 262 524.5 236.5 c 128,-1,64
 513 211 513 211 513 162 c 256,65,66
 513 113 513 113 524.5 88 c 128,-1,67
 536 63 536 63 553.5 54 c 128,-1,68
 571 45 571 45 590 45 c 256,53,54
EndSplineSet
EndChar

StartChar: ampersand
Encoding: 38 38 8
Width: 532
GlyphClass: 1
Flags: W
LayerCount: 2
Fore
SplineSet
363 180 m 1,0,-1
 426 279 l 2,1,2
 433 290 433 290 445 290 c 2,3,-1
 496 290 l 2,4,5
 501 290 501 290 502 287 c 128,-1,6
 503 284 503 284 501 281 c 2,7,-1
 403 133 l 1,8,-1
 507 10 l 2,9,10
 509 7 509 7 508 3.5 c 128,-1,11
 507 0 507 0 503 0 c 2,12,-1
 455 0 l 2,13,14
 435 0 435 0 424.5 5 c 128,-1,15
 414 10 414 10 405 22 c 2,16,-1
 361 73 l 1,17,18
 337 44 337 44 298.5 18.5 c 128,-1,19
 260 -7 260 -7 205 -7 c 0,20,21
 131 -7 131 -7 85 37 c 128,-1,22
 39 81 39 81 39 148 c 0,23,24
 39 207 39 207 74.5 243.5 c 128,-1,25
 110 280 110 280 161 307 c 1,26,27
 131 340 131 340 112 370.5 c 128,-1,28
 93 401 93 401 93 438 c 0,29,30
 93 497 93 497 135 532 c 128,-1,31
 177 567 177 567 246 567 c 0,32,33
 312 567 312 567 352.5 534 c 128,-1,34
 393 501 393 501 393 444 c 0,35,36
 393 398 393 398 358 360 c 128,-1,37
 323 322 323 322 266 291 c 1,38,-1
 363 180 l 1,0,-1
228 337 m 1,39,40
 271 359 271 359 296 383.5 c 128,-1,41
 321 408 321 408 321 442 c 0,42,43
 321 470 321 470 300 488 c 128,-1,44
 279 506 279 506 247 506 c 0,45,46
 212 506 212 506 191 488 c 128,-1,47
 170 470 170 470 170 439 c 0,48,49
 170 415 170 415 187 389 c 128,-1,50
 204 363 204 363 228 337 c 1,39,40
322 120 m 1,51,-1
 202 259 l 1,52,53
 165 239 165 239 140 214.5 c 128,-1,54
 115 190 115 190 115 152 c 0,55,56
 115 107 115 107 141.5 82 c 128,-1,57
 168 57 168 57 211 57 c 0,58,59
 250 57 250 57 275 75 c 128,-1,60
 300 93 300 93 322 120 c 1,51,-1
EndSplineSet
EndChar

StartChar: quotesingle
Encoding: 39 39 9
Width: 134
GlyphClass: 1
Flags: W
LayerCount: 2
Fore
SplineSet
43 379 m 2,0,-1
 28 547 l 2,1,2
 27 556 27 556 36 556 c 2,3,-1
 49 556 l 2,4,5
 81 556 81 556 93 541 c 128,-1,6
 105 526 105 526 103 488 c 2,7,-1
 94 379 l 2,8,9
 94 371 94 371 86 371 c 2,10,-1
 51 371 l 2,11,12
 45 371 45 371 43 379 c 2,0,-1
EndSplineSet
EndChar

StartChar: parenleft
Encoding: 40 40 10
Width: 343
GlyphClass: 1
Flags: W
LayerCount: 2
Fore
SplineSet
57 277 m 0,0,1
 57 395 57 395 88.5 481.5 c 128,-1,2
 120 568 120 568 169 622 c 128,-1,3
 218 676 218 676 269 697 c 0,4,5
 278 701 278 701 278 691 c 0,6,7
 278 688 278 688 278.5 682 c 128,-1,8
 279 676 279 676 277 671 c 0,9,10
 276 643 276 643 267.5 633.5 c 128,-1,11
 259 624 259 624 249 614 c 0,12,13
 187 553 187 553 157 471 c 128,-1,14
 127 389 127 389 128 277 c 0,15,16
 127 165 127 165 157 82.5 c 128,-1,17
 187 0 187 0 249 -61 c 0,18,19
 259 -71 259 -71 267.5 -80 c 128,-1,20
 276 -89 276 -89 277 -118 c 0,21,22
 279 -123 279 -123 278.5 -129 c 128,-1,23
 278 -135 278 -135 278 -138 c 0,24,25
 278 -148 278 -148 269 -144 c 0,26,27
 218 -123 218 -123 169 -69 c 128,-1,28
 120 -15 120 -15 88.5 71.5 c 128,-1,29
 57 158 57 158 57 277 c 0,0,1
EndSplineSet
PairPos2: "'kern' Horizontal Kerning lookup 2 per glyph data 1" uni0671 dx=11 dy=0 dh=11 dv=0 dx=0 dy=0 dh=0 dv=0
PairPos2: "'kern' Horizontal Kerning lookup 2 per glyph data 1" uni0632 dx=8 dy=0 dh=8 dv=0 dx=0 dy=0 dh=0 dv=0
PairPos2: "'kern' Horizontal Kerning lookup 2 per glyph data 1" uni0631 dx=8 dy=0 dh=8 dv=0 dx=0 dy=0 dh=0 dv=0
PairPos2: "'kern' Horizontal Kerning lookup 2 per glyph data 1" uni0622 dx=6 dy=0 dh=6 dv=0 dx=0 dy=0 dh=0 dv=0
EndChar

StartChar: parenright
Encoding: 41 41 11
Width: 338
GlyphClass: 1
Flags: W
LayerCount: 2
Fore
SplineSet
277 277 m 0,0,1
 278 158 278 158 246 71.5 c 128,-1,2
 214 -15 214 -15 165 -69 c 128,-1,3
 116 -123 116 -123 65 -144 c 0,4,5
 56 -147 56 -147 56 -138 c 0,6,7
 56 -135 56 -135 56 -129 c 128,-1,8
 56 -123 56 -123 57 -118 c 0,9,10
 58 -89 58 -89 66.5 -80 c 128,-1,11
 75 -71 75 -71 85 -61 c 0,12,13
 147 0 147 0 177 82.5 c 128,-1,14
 207 165 207 165 206 277 c 0,15,16
 207 389 207 389 177 471 c 128,-1,17
 147 553 147 553 85 614 c 0,18,19
 75 624 75 624 66.5 633.5 c 128,-1,20
 58 643 58 643 57 671 c 0,21,22
 56 676 56 676 56 682 c 128,-1,23
 56 688 56 688 56 691 c 0,24,25
 56 700 56 700 65 697 c 0,26,27
 116 676 116 676 165 622 c 128,-1,28
 214 568 214 568 246 481.5 c 128,-1,29
 278 395 278 395 277 277 c 0,0,1
EndSplineSet
PairPos2: "'kern' Horizontal Kerning lookup 2 per glyph data 1" uni0698 dx=-27 dy=0 dh=-27 dv=0 dx=0 dy=0 dh=0 dv=0
PairPos2: "'kern' Horizontal Kerning lookup 2 per glyph data 1" uni0695 dx=-16 dy=0 dh=-16 dv=0 dx=0 dy=0 dh=0 dv=0
PairPos2: "'kern' Horizontal Kerning lookup 2 per glyph data 1" uni0694 dx=-16 dy=0 dh=-16 dv=0 dx=0 dy=0 dh=0 dv=0
PairPos2: "'kern' Horizontal Kerning lookup 2 per glyph data 1" uni0691 dx=-3 dy=0 dh=-3 dv=0 dx=0 dy=0 dh=0 dv=0
PairPos2: "'kern' Horizontal Kerning lookup 2 per glyph data 1" uni0671 dx=28 dy=0 dh=28 dv=0 dx=0 dy=0 dh=0 dv=0
PairPos2: "'kern' Horizontal Kerning lookup 2 per glyph data 1" uni0632 dx=-27 dy=0 dh=-27 dv=0 dx=0 dy=0 dh=0 dv=0
PairPos2: "'kern' Horizontal Kerning lookup 2 per glyph data 1" uni0631 dx=-16 dy=0 dh=-16 dv=0 dx=0 dy=0 dh=0 dv=0
PairPos2: "'kern' Horizontal Kerning lookup 2 per glyph data 1" uni0627 dx=-11 dy=0 dh=-11 dv=0 dx=0 dy=0 dh=0 dv=0
PairPos2: "'kern' Horizontal Kerning lookup 2 per glyph data 1" uni0625 dx=7 dy=0 dh=7 dv=0 dx=0 dy=0 dh=0 dv=0
PairPos2: "'kern' Horizontal Kerning lookup 2 per glyph data 1" uni0623 dx=20 dy=0 dh=20 dv=0 dx=0 dy=0 dh=0 dv=0
PairPos2: "'kern' Horizontal Kerning lookup 2 per glyph data 1" uni0622 dx=23 dy=0 dh=23 dv=0 dx=0 dy=0 dh=0 dv=0
EndChar

StartChar: asterisk
Encoding: 42 42 12
Width: 356
GlyphClass: 1
Flags: W
LayerCount: 2
Fore
SplineSet
132 377 m 1,0,-1
 38 402 l 2,1,2
 30 404 30 404 33 413 c 2,3,-1
 50 463 l 2,4,5
 53 471 53 471 60 468 c 2,6,-1
 149 431 l 1,7,-1
 142 531 l 2,8,9
 142 539 142 539 150 539 c 2,10,-1
 208 539 l 2,11,12
 215 539 215 539 215 531 c 2,13,-1
 209 431 l 1,14,-1
 298 468 l 2,15,16
 306 471 306 471 309 463 c 2,17,-1
 325 413 l 2,18,19
 328 404 328 404 320 402 c 2,20,-1
 227 377 l 1,21,-1
 287 300 l 2,22,23
 293 294 293 294 285 289 c 2,24,-1
 243 262 l 2,25,26
 235 255 235 255 232 262 c 2,27,-1
 178 348 l 1,28,-1
 128 262 l 2,29,30
 123 254 123 254 117 262 c 2,31,-1
 73 289 l 2,32,33
 66 293 66 293 70 300 c 2,34,-1
 132 377 l 1,0,-1
EndSplineSet
EndChar

StartChar: plus
Encoding: 43 43 13
Width: 403
GlyphClass: 1
Flags: W
LayerCount: 2
Fore
SplineSet
168 238 m 1,0,-1
 45 238 l 2,1,2
 37 238 37 238 37 247 c 2,3,-1
 37 295 l 2,4,5
 37 304 37 304 45 304 c 2,6,-1
 168 304 l 1,7,-1
 168 441 l 2,8,9
 168 450 168 450 176 450 c 0,10,11
 208 450 208 450 221.5 435.5 c 128,-1,12
 235 421 235 421 235 389 c 2,13,-1
 235 304 l 1,14,-1
 358 304 l 2,15,16
 366 304 366 304 366 295 c 2,17,-1
 366 247 l 2,18,19
 366 238 366 238 358 238 c 2,20,-1
 235 238 l 1,21,-1
 235 101 l 2,22,23
 235 92 235 92 227 92 c 2,24,-1
 176 92 l 2,25,26
 168 92 168 92 168 101 c 2,27,-1
 168 238 l 1,0,-1
EndSplineSet
EndChar

StartChar: comma
Encoding: 44 44 14
Width: 155
GlyphClass: 1
Flags: W
LayerCount: 2
Fore
SplineSet
77 99 m 256,0,1
 99 99 99 99 115 82.5 c 128,-1,2
 131 66 131 66 131 42 c 0,3,4
 131 -2 131 -2 106.5 -40 c 128,-1,5
 82 -78 82 -78 47 -106 c 0,6,7
 46 -109 46 -109 42 -105 c 0,8,9
 29 -93 29 -93 32 -80.5 c 128,-1,10
 35 -68 35 -68 43 -59 c 0,11,12
 50 -51 50 -51 58 -38.5 c 128,-1,13
 66 -26 66 -26 70 -11 c 1,14,15
 48 -7 48 -7 36 9 c 128,-1,16
 24 25 24 25 24 44 c 0,17,18
 24 67 24 67 39.5 83 c 128,-1,19
 55 99 55 99 77 99 c 256,0,1
EndSplineSet
EndChar

StartChar: hyphen
Encoding: 45 45 15
Width: 301
GlyphClass: 1
Flags: W
LayerCount: 2
Fore
SplineSet
45 168 m 2,0,1
 37 168 37 168 37 177 c 2,2,-1
 37 229 l 2,3,4
 37 238 37 238 45 238 c 2,5,-1
 257 238 l 2,6,7
 265 238 265 238 265 229 c 2,8,-1
 265 177 l 2,9,10
 265 168 265 168 257 168 c 2,11,-1
 45 168 l 2,0,1
EndSplineSet
EndChar

StartChar: period
Encoding: 46 46 16
Width: 156
GlyphClass: 1
Flags: W
LayerCount: 2
Fore
SplineSet
78 99 m 0,0,1
 101 99 101 99 116.5 83 c 128,-1,2
 132 67 132 67 132 44 c 0,3,4
 132 22 132 22 116.5 5.5 c 128,-1,5
 101 -11 101 -11 78 -11 c 0,6,7
 56 -11 56 -11 40 5.5 c 128,-1,8
 24 22 24 22 24 44 c 0,9,10
 24 67 24 67 40 83 c 128,-1,11
 56 99 56 99 78 99 c 0,0,1
EndSplineSet
PairPos2: "'kern' Horizontal Kerning lookup 1 subtable" quotedblright dx=0 dy=0 dh=-2 dv=0 dx=0 dy=0 dh=0 dv=0
PairPos2: "'kern' Horizontal Kerning lookup 1 subtable" quoteright dx=0 dy=0 dh=-2 dv=0 dx=0 dy=0 dh=0 dv=0
EndChar

StartChar: slash
Encoding: 47 47 17
Width: 286
GlyphClass: 1
Flags: W
LayerCount: 2
Fore
SplineSet
7 0 m 2,0,1
 -1 0 -1 0 3 9 c 2,2,-1
 229 547 l 2,3,4
 235 556 235 556 243 556 c 2,5,-1
 252 556 l 2,6,7
 275 556 275 556 283 538.5 c 128,-1,8
 291 521 291 521 279 493 c 2,9,-1
 75 9 l 2,10,11
 72 0 72 0 63 0 c 2,12,-1
 7 0 l 2,0,1
EndSplineSet
EndChar

StartChar: zero
Encoding: 48 48 18
Width: 502
GlyphClass: 1
Flags: W
LayerCount: 2
Fore
SplineSet
252 -10 m 0,0,1
 153 -10 153 -10 100.5 63 c 128,-1,2
 48 136 48 136 48 278 c 0,3,4
 48 419 48 419 101.5 493 c 128,-1,5
 155 567 155 567 252 567 c 0,6,7
 348 567 348 567 401.5 493 c 128,-1,8
 455 419 455 419 455 278 c 0,9,10
 455 136 455 136 402.5 63 c 128,-1,11
 350 -10 350 -10 252 -10 c 0,0,1
252 61 m 256,12,13
 291 61 291 61 319 81 c 128,-1,14
 347 101 347 101 362.5 148.5 c 128,-1,15
 378 196 378 196 378 278 c 256,16,17
 378 360 378 360 362.5 407.5 c 128,-1,18
 347 455 347 455 319 475.5 c 128,-1,19
 291 496 291 496 252 496 c 256,20,21
 213 496 213 496 184.5 475.5 c 128,-1,22
 156 455 156 455 140.5 407.5 c 128,-1,23
 125 360 125 360 125 278 c 256,24,25
 125 196 125 196 140.5 148.5 c 128,-1,26
 156 101 156 101 184.5 81 c 128,-1,27
 213 61 213 61 252 61 c 256,12,13
EndSplineSet
Substitution2: "'lnum' Lining Figures lookup 7 subtable" zero.tab
Substitution2: "'aalt' Access All Alternates lookup 0 subtable" zero.tab
EndChar

StartChar: one
Encoding: 49 49 19
Width: 353
GlyphClass: 1
Flags: W
LayerCount: 2
Fore
SplineSet
144 69 m 1,0,-1
 144 484 l 1,1,-1
 46 447 l 2,2,3
 37 443 37 443 37 453 c 2,4,-1
 37 511 l 2,5,6
 37 522 37 522 47 525 c 2,7,-1
 108 547 l 2,8,9
 134 556 134 556 157 556 c 2,10,-1
 170 556 l 2,11,12
 219 556 219 556 219 501 c 2,13,-1
 219 69 l 1,14,-1
 285 69 l 2,15,16
 330 69 330 69 330 26 c 2,17,-1
 330 11 l 2,18,19
 330 0 330 0 319 0 c 2,20,-1
 44 0 l 2,21,22
 36 0 36 0 36 9 c 2,23,-1
 36 61 l 2,24,25
 36 69 36 69 44 69 c 2,26,-1
 144 69 l 1,0,-1
EndSplineSet
Substitution2: "'lnum' Lining Figures lookup 7 subtable" one.tab
Substitution2: "'sups' Superscript lookup 3 subtable" onesuperior
AlternateSubs2: "'aalt' Access All Alternates lookup 1 subtable" onesuperior one.tab
EndChar

StartChar: two
Encoding: 50 50 20
Width: 446
GlyphClass: 1
Flags: W
LayerCount: 2
Fore
SplineSet
125 69 m 1,0,-1
 354 69 l 2,1,2
 399 69 399 69 399 27 c 2,3,-1
 399 11 l 2,4,5
 399 0 399 0 388 0 c 2,6,-1
 45 0 l 2,7,8
 37 0 37 0 37 9 c 0,9,10
 37 71 37 71 57.5 114 c 128,-1,11
 78 157 78 157 110 186.5 c 128,-1,12
 142 216 142 216 177.5 239.5 c 128,-1,13
 213 263 213 263 245 286 c 128,-1,14
 277 309 277 309 297.5 337 c 128,-1,15
 318 365 318 365 318 406 c 0,16,17
 318 450 318 450 290.5 474 c 128,-1,18
 263 498 263 498 213 498 c 0,19,20
 177 498 177 498 144 486.5 c 128,-1,21
 111 475 111 475 79 455 c 0,22,23
 71 450 71 450 66 450 c 256,24,25
 61 450 61 450 58 458 c 2,26,-1
 52 478 l 2,27,28
 45 500 45 500 54 514 c 128,-1,29
 63 528 63 528 88 538 c 0,30,31
 115 549 115 549 147 558 c 128,-1,32
 179 567 179 567 218 567 c 0,33,34
 299 567 299 567 347 526.5 c 128,-1,35
 395 486 395 486 395 407 c 0,36,37
 395 361 395 361 376.5 326.5 c 128,-1,38
 358 292 358 292 328.5 265.5 c 128,-1,39
 299 239 299 239 265 216.5 c 128,-1,40
 231 194 231 194 200.5 172 c 128,-1,41
 170 150 170 150 149 125.5 c 128,-1,42
 128 101 128 101 125 69 c 1,0,-1
EndSplineSet
Substitution2: "'lnum' Lining Figures lookup 7 subtable" two.tab
Substitution2: "'sups' Superscript lookup 3 subtable" twosuperior
AlternateSubs2: "'aalt' Access All Alternates lookup 1 subtable" twosuperior two.tab
EndChar

StartChar: three
Encoding: 51 51 21
Width: 441
GlyphClass: 1
Flags: W
LayerCount: 2
Fore
SplineSet
294 291 m 1,0,1
 320 285 320 285 344.5 269 c 128,-1,2
 369 253 369 253 385 225.5 c 128,-1,3
 401 198 401 198 401 157 c 0,4,5
 401 108 401 108 377 70.5 c 128,-1,6
 353 33 353 33 309.5 11.5 c 128,-1,7
 266 -10 266 -10 208 -10 c 0,8,9
 145 -10 145 -10 104.5 11.5 c 128,-1,10
 64 33 64 33 44.5 63 c 128,-1,11
 25 93 25 93 25 117 c 0,12,13
 25 126 25 126 28.5 132.5 c 128,-1,14
 32 139 32 139 39 139 c 0,15,16
 45 139 45 139 54 129 c 0,17,18
 80 97 80 97 116 77.5 c 128,-1,19
 152 58 152 58 202 58 c 0,20,21
 258 58 258 58 291 85.5 c 128,-1,22
 324 113 324 113 324 159 c 0,23,24
 324 194 324 194 307 214.5 c 128,-1,25
 290 235 290 235 263 244.5 c 128,-1,26
 236 254 236 254 205 254 c 2,27,-1
 148 254 l 2,28,29
 106 254 106 254 106 294 c 2,30,-1
 106 311 l 2,31,32
 106 324 106 324 116 324 c 2,33,-1
 207 324 l 2,34,35
 256 324 256 324 282 346.5 c 128,-1,36
 308 369 308 369 308 412 c 0,37,38
 308 459 308 459 277 479 c 128,-1,39
 246 499 246 499 201 499 c 0,40,41
 162 499 162 499 130.5 487.5 c 128,-1,42
 99 476 99 476 68 456 c 0,43,44
 64 454 64 454 61 452 c 128,-1,45
 58 450 58 450 56 450 c 0,46,47
 50 450 50 450 47 458 c 2,48,-1
 41 478 l 2,49,50
 34 500 34 500 43.5 513.5 c 128,-1,51
 53 527 53 527 77 538 c 0,52,53
 100 549 100 549 133 558 c 128,-1,54
 166 567 166 567 204 567 c 0,55,56
 283 567 283 567 333 529 c 128,-1,57
 383 491 383 491 383 419 c 0,58,59
 383 377 383 377 361 343 c 128,-1,60
 339 309 339 309 294 291 c 1,0,1
EndSplineSet
Substitution2: "'lnum' Lining Figures lookup 7 subtable" three.tab
Substitution2: "'sups' Superscript lookup 3 subtable" threesuperior
AlternateSubs2: "'aalt' Access All Alternates lookup 1 subtable" threesuperior three.tab
EndChar

StartChar: four
Encoding: 52 52 22
Width: 458
GlyphClass: 1
Flags: W
LayerCount: 2
Fore
SplineSet
279 128 m 1,0,-1
 24 128 l 2,1,2
 16 128 16 128 16 136 c 2,3,-1
 16 177 l 2,4,5
 16 187 16 187 17.5 192.5 c 128,-1,6
 19 198 19 198 26 208 c 2,7,-1
 243 537 l 2,8,9
 248 545 248 545 256 550.5 c 128,-1,10
 264 556 264 556 277 556 c 2,11,-1
 307 556 l 2,12,13
 328 556 328 556 341 545 c 128,-1,14
 354 534 354 534 354 508 c 2,15,-1
 354 197 l 1,16,-1
 390 197 l 2,17,18
 435 197 435 197 435 154 c 2,19,-1
 435 138 l 2,20,21
 435 128 435 128 424 128 c 2,22,-1
 354 128 l 1,23,-1
 354 9 l 2,24,25
 354 0 354 0 347 0 c 2,26,-1
 287 0 l 2,27,28
 279 0 279 0 279 9 c 2,29,-1
 279 128 l 1,0,-1
95 197 m 1,30,-1
 279 197 l 1,31,-1
 279 476 l 1,32,-1
 95 197 l 1,30,-1
EndSplineSet
Substitution2: "'lnum' Lining Figures lookup 7 subtable" four.tab
Substitution2: "'aalt' Access All Alternates lookup 0 subtable" four.tab
EndChar

StartChar: five
Encoding: 53 53 23
Width: 448
GlyphClass: 1
Flags: W
LayerCount: 2
Fore
SplineSet
130 486 m 1,0,-1
 130 340 l 1,1,2
 147 345 147 345 170 349 c 128,-1,3
 193 353 193 353 224 353 c 0,4,5
 310 353 310 353 358.5 306 c 128,-1,6
 407 259 407 259 407 179 c 0,7,8
 407 121 407 121 381 79 c 128,-1,9
 355 37 355 37 310.5 13.5 c 128,-1,10
 266 -10 266 -10 210 -10 c 0,11,12
 153 -10 153 -10 112.5 9.5 c 128,-1,13
 72 29 72 29 50.5 58.5 c 128,-1,14
 29 88 29 88 29 116 c 0,15,16
 29 137 29 137 44 137 c 0,17,18
 51 137 51 137 59 128 c 0,19,20
 86 94 86 94 121.5 76 c 128,-1,21
 157 58 157 58 203 58 c 0,22,23
 263 58 263 58 297 90 c 128,-1,24
 331 122 331 122 331 175 c 0,25,26
 331 229 331 229 299 257.5 c 128,-1,27
 267 286 267 286 211 286 c 0,28,29
 170 286 170 286 133.5 278 c 128,-1,30
 97 270 97 270 68 259 c 0,31,32
 56 256 56 256 56 268 c 2,33,-1
 56 547 l 2,34,35
 56 556 56 556 63 556 c 2,36,-1
 329 556 l 2,37,38
 375 556 375 556 375 513 c 2,39,-1
 375 497 l 2,40,41
 375 486 375 486 364 486 c 2,42,-1
 130 486 l 1,0,-1
EndSplineSet
Substitution2: "'lnum' Lining Figures lookup 7 subtable" five.tab
Substitution2: "'aalt' Access All Alternates lookup 0 subtable" five.tab
EndChar

StartChar: six
Encoding: 54 54 24
Width: 463
GlyphClass: 1
Flags: W
LayerCount: 2
Fore
SplineSet
191 349 m 1,0,1
 203 354 203 354 218 358 c 128,-1,2
 233 362 233 362 253 362 c 0,3,4
 305 362 305 362 344.5 337.5 c 128,-1,5
 384 313 384 313 406 272.5 c 128,-1,6
 428 232 428 232 428 184 c 0,7,8
 428 93 428 93 374.5 41.5 c 128,-1,9
 321 -10 321 -10 236 -10 c 0,10,11
 181 -10 181 -10 137 13 c 128,-1,12
 93 36 93 36 67.5 77.5 c 128,-1,13
 42 119 42 119 42 174 c 0,14,15
 42 221 42 221 60 262.5 c 128,-1,16
 78 304 78 304 108 353 c 2,17,-1
 232 557 l 2,18,19
 239 567 239 567 247 567 c 0,20,21
 273 567 273 567 282.5 541 c 128,-1,22
 292 515 292 515 270 479 c 2,23,-1
 191 349 l 1,0,1
116 177 m 0,24,25
 116 125 116 125 149 92 c 128,-1,26
 182 59 182 59 237 59 c 0,27,28
 291 59 291 59 322 92 c 128,-1,29
 353 125 353 125 353 177 c 0,30,31
 353 227 353 227 322 261.5 c 128,-1,32
 291 296 291 296 236 296 c 0,33,34
 183 296 183 296 149.5 263 c 128,-1,35
 116 230 116 230 116 177 c 0,24,25
EndSplineSet
Substitution2: "'lnum' Lining Figures lookup 7 subtable" six.tab
Substitution2: "'aalt' Access All Alternates lookup 0 subtable" six.tab
EndChar

StartChar: seven
Encoding: 55 55 25
Width: 423
GlyphClass: 1
Flags: W
LayerCount: 2
Fore
SplineSet
306 486 m 1,0,-1
 35 486 l 2,1,2
 27 486 27 486 27 495 c 2,3,-1
 27 547 l 2,4,5
 27 556 27 556 35 556 c 2,6,-1
 339 556 l 2,7,8
 385 556 385 556 385 513 c 2,9,-1
 385 502 l 2,10,11
 385 489 385 489 382.5 479.5 c 128,-1,12
 380 470 380 470 374 456 c 2,13,-1
 170 12 l 2,14,15
 165 0 165 0 154 0 c 2,16,-1
 93 0 l 2,17,18
 89 0 89 0 87.5 3 c 128,-1,19
 86 6 86 6 87 9 c 2,20,-1
 306 486 l 1,0,-1
EndSplineSet
Substitution2: "'lnum' Lining Figures lookup 7 subtable" seven.tab
Substitution2: "'aalt' Access All Alternates lookup 0 subtable" seven.tab
EndChar

StartChar: eight
Encoding: 56 56 26
Width: 462
GlyphClass: 1
Flags: W
LayerCount: 2
Fore
SplineSet
140 294 m 1,0,1
 104 310 104 310 78 340.5 c 128,-1,2
 52 371 52 371 52 422 c 0,3,4
 52 467 52 467 75.5 499.5 c 128,-1,5
 99 532 99 532 140 549.5 c 128,-1,6
 181 567 181 567 231 567 c 0,7,8
 282 567 282 567 322.5 549.5 c 128,-1,9
 363 532 363 532 386.5 499.5 c 128,-1,10
 410 467 410 467 410 422 c 0,11,12
 410 371 410 371 384 340.5 c 128,-1,13
 358 310 358 310 322 294 c 1,14,15
 376 275 376 275 401.5 238 c 128,-1,16
 427 201 427 201 427 155 c 0,17,18
 427 83 427 83 375 36 c 128,-1,19
 323 -11 323 -11 231 -11 c 0,20,21
 140 -11 140 -11 88 36 c 128,-1,22
 36 83 36 83 36 155 c 0,23,24
 36 201 36 201 61.5 238 c 128,-1,25
 87 275 87 275 140 294 c 1,0,1
125 412 m 0,26,27
 125 375 125 375 154 349.5 c 128,-1,28
 183 324 183 324 231 324 c 256,29,30
 279 324 279 324 308 349.5 c 128,-1,31
 337 375 337 375 337 412 c 0,32,33
 337 456 337 456 307 479.5 c 128,-1,34
 277 503 277 503 231 503 c 0,35,36
 187 503 187 503 156 479.5 c 128,-1,37
 125 456 125 456 125 412 c 0,26,27
111 156 m 0,38,39
 111 110 111 110 143.5 82 c 128,-1,40
 176 54 176 54 231 54 c 0,41,42
 287 54 287 54 319.5 82 c 128,-1,43
 352 110 352 110 352 156 c 0,44,45
 352 206 352 206 316.5 233.5 c 128,-1,46
 281 261 281 261 231 261 c 0,47,48
 182 261 182 261 146.5 233.5 c 128,-1,49
 111 206 111 206 111 156 c 0,38,39
EndSplineSet
Substitution2: "'lnum' Lining Figures lookup 7 subtable" eight.tab
Substitution2: "'aalt' Access All Alternates lookup 0 subtable" eight.tab
EndChar

StartChar: nine
Encoding: 57 57 27
Width: 463
GlyphClass: 1
Flags: W
LayerCount: 2
Fore
SplineSet
275 209 m 1,0,1
 262 202 262 202 247 198 c 128,-1,2
 232 194 232 194 212 194 c 0,3,4
 161 194 161 194 121 217.5 c 128,-1,5
 81 241 81 241 58.5 281.5 c 128,-1,6
 36 322 36 322 36 372 c 0,7,8
 36 433 36 433 61.5 476.5 c 128,-1,9
 87 520 87 520 131.5 543.5 c 128,-1,10
 176 567 176 567 231 567 c 0,11,12
 287 567 287 567 330 543.5 c 128,-1,13
 373 520 373 520 397.5 478.5 c 128,-1,14
 422 437 422 437 422 382 c 0,15,16
 422 336 422 336 404 294.5 c 128,-1,17
 386 253 386 253 356 204 c 2,18,-1
 233 1 l 2,19,20
 226 -10 226 -10 217 -10 c 0,21,22
 189 -10 189 -10 182 17.5 c 128,-1,23
 175 45 175 45 194 77 c 2,24,-1
 275 209 l 1,0,1
228 261 m 0,25,26
 281 261 281 261 314 294 c 128,-1,27
 347 327 347 327 347 379 c 0,28,29
 347 432 347 432 316 465 c 128,-1,30
 285 498 285 498 229 498 c 0,31,32
 176 498 176 498 143.5 464.5 c 128,-1,33
 111 431 111 431 111 379 c 0,34,35
 111 325 111 325 142 293 c 128,-1,36
 173 261 173 261 228 261 c 0,25,26
EndSplineSet
Substitution2: "'lnum' Lining Figures lookup 7 subtable" nine.tab
Substitution2: "'aalt' Access All Alternates lookup 0 subtable" nine.tab
EndChar

StartChar: colon
Encoding: 58 58 28
Width: 176
GlyphClass: 1
Flags: W
LayerCount: 2
Fore
SplineSet
88 324 m 0,0,1
 111 324 111 324 126.5 308 c 128,-1,2
 142 292 142 292 142 269 c 0,3,4
 142 247 142 247 126.5 230.5 c 128,-1,5
 111 214 111 214 88 214 c 0,6,7
 66 214 66 214 50 230.5 c 128,-1,8
 34 247 34 247 34 269 c 0,9,10
 34 292 34 292 50 308 c 128,-1,11
 66 324 66 324 88 324 c 0,0,1
88 99 m 0,12,13
 111 99 111 99 126.5 83 c 128,-1,14
 142 67 142 67 142 44 c 0,15,16
 142 22 142 22 126.5 5.5 c 128,-1,17
 111 -11 111 -11 88 -11 c 0,18,19
 66 -11 66 -11 50 5.5 c 128,-1,20
 34 22 34 22 34 44 c 0,21,22
 34 67 34 67 50 83 c 128,-1,23
 66 99 66 99 88 99 c 0,12,13
EndSplineSet
EndChar

StartChar: semicolon
Encoding: 59 59 29
Width: 176
GlyphClass: 1
Flags: W
LayerCount: 2
Fore
SplineSet
88 214 m 0,0,1
 66 214 66 214 50 230.5 c 128,-1,2
 34 247 34 247 34 269 c 0,3,4
 34 292 34 292 50 308 c 128,-1,5
 66 324 66 324 88 324 c 0,6,7
 111 324 111 324 126.5 308 c 128,-1,8
 142 292 142 292 142 269 c 0,9,10
 142 247 142 247 126.5 230.5 c 128,-1,11
 111 214 111 214 88 214 c 0,0,1
87 99 m 256,12,13
 109 99 109 99 125 82.5 c 128,-1,14
 141 66 141 66 141 42 c 0,15,16
 141 -2 141 -2 116.5 -40 c 128,-1,17
 92 -78 92 -78 57 -106 c 0,18,19
 56 -109 56 -109 52 -105 c 0,20,21
 39 -93 39 -93 42 -80.5 c 128,-1,22
 45 -68 45 -68 53 -59 c 0,23,24
 60 -51 60 -51 68 -38.5 c 128,-1,25
 76 -26 76 -26 80 -11 c 1,26,27
 58 -7 58 -7 46 9 c 128,-1,28
 34 25 34 25 34 44 c 0,29,30
 34 67 34 67 49.5 83 c 128,-1,31
 65 99 65 99 87 99 c 256,12,13
EndSplineSet
EndChar

StartChar: less
Encoding: 60 60 30
Width: 450
GlyphClass: 1
Flags: W
LayerCount: 2
Fore
SplineSet
133 271 m 1,0,-1
 354 180 l 2,1,2
 384 168 384 168 395.5 148.5 c 128,-1,3
 407 129 407 129 407 99 c 2,4,-1
 407 94 l 2,5,6
 407 86 407 86 399 88 c 2,7,-1
 45 238 l 2,8,9
 37 239 37 239 37 251 c 2,10,-1
 37 290 l 2,11,12
 37 299 37 299 45 303 c 2,13,-1
 397 451 l 2,14,15
 407 454 407 454 407 445 c 2,16,-1
 407 396 l 2,17,18
 407 383 407 383 393 377 c 2,19,-1
 133 271 l 1,0,-1
EndSplineSet
EndChar

StartChar: equal
Encoding: 61 61 31
Width: 403
GlyphClass: 1
Flags: W
LayerCount: 2
Fore
SplineSet
45 325 m 2,0,1
 37 325 37 325 37 334 c 2,2,-1
 37 382 l 2,3,4
 37 391 37 391 45 391 c 2,5,-1
 315 391 l 2,6,7
 340 391 340 391 353 378 c 128,-1,8
 366 365 366 365 366 343 c 2,9,-1
 366 334 l 2,10,11
 366 325 366 325 358 325 c 2,12,-1
 45 325 l 2,0,1
45 148 m 2,13,14
 37 148 37 148 37 157 c 2,15,-1
 37 205 l 2,16,17
 37 214 37 214 45 214 c 2,18,-1
 315 214 l 2,19,20
 340 214 340 214 353 201 c 128,-1,21
 366 188 366 188 366 166 c 2,22,-1
 366 157 l 2,23,24
 366 148 366 148 358 148 c 2,25,-1
 45 148 l 2,13,14
EndSplineSet
EndChar

StartChar: greater
Encoding: 62 62 32
Width: 450
GlyphClass: 1
Flags: W
LayerCount: 2
Fore
SplineSet
318 271 m 1,0,-1
 57 377 l 2,1,2
 43 383 43 383 43 396 c 2,3,-1
 43 445 l 2,4,5
 43 455 43 455 53 451 c 2,6,-1
 406 303 l 2,7,8
 414 299 414 299 414 290 c 2,9,-1
 414 251 l 2,10,11
 414 239 414 239 406 238 c 2,12,-1
 52 88 l 2,13,14
 43 86 43 86 43 94 c 2,15,-1
 43 99 l 2,16,17
 43 129 43 129 54.5 148.5 c 128,-1,18
 66 168 66 168 96 180 c 2,19,-1
 318 271 l 1,0,-1
EndSplineSet
EndChar

StartChar: question
Encoding: 63 63 33
Width: 393
GlyphClass: 1
Flags: W
LayerCount: 2
Fore
SplineSet
144 160 m 2,0,-1
 144 192 l 2,1,2
 144 221 144 221 158.5 242 c 128,-1,3
 173 263 173 263 194.5 280.5 c 128,-1,4
 216 298 216 298 237.5 315 c 128,-1,5
 259 332 259 332 273.5 354 c 128,-1,6
 288 376 288 376 288 407 c 0,7,8
 288 449 288 449 260 473 c 128,-1,9
 232 497 232 497 184 497 c 0,10,11
 117 497 117 497 53 456 c 0,12,13
 45 451 45 451 40 451 c 256,14,15
 35 451 35 451 32 459 c 2,16,-1
 26 479 l 2,17,18
 19 500 19 500 27.5 514 c 128,-1,19
 36 528 36 528 61 539 c 0,20,21
 87 550 87 550 116.5 558.5 c 128,-1,22
 146 567 146 567 184 567 c 0,23,24
 266 567 266 567 315 527.5 c 128,-1,25
 364 488 364 488 364 413 c 0,26,27
 364 373 364 373 345 341 c 128,-1,28
 326 309 326 309 295.5 282 c 128,-1,29
 265 255 265 255 228 226 c 0,30,31
 215 216 215 216 212 207 c 128,-1,32
 209 198 209 198 209 183 c 2,33,-1
 209 160 l 2,34,35
 209 152 209 152 201 152 c 2,36,-1
 152 152 l 2,37,38
 144 152 144 152 144 160 c 2,0,-1
178 99 m 256,39,40
 200 99 200 99 215.5 83 c 128,-1,41
 231 67 231 67 231 44 c 0,42,43
 231 22 231 22 215.5 5.5 c 128,-1,44
 200 -11 200 -11 178 -11 c 256,45,46
 156 -11 156 -11 139.5 5.5 c 128,-1,47
 123 22 123 22 123 44 c 0,48,49
 123 67 123 67 139.5 83 c 128,-1,50
 156 99 156 99 178 99 c 256,39,40
EndSplineSet
EndChar

StartChar: at
Encoding: 64 64 34
Width: 766
GlyphClass: 1
Flags: W
LayerCount: 2
Fore
SplineSet
474 103 m 1,0,1
 459 78 459 78 427.5 56 c 128,-1,2
 396 34 396 34 347 34 c 0,3,4
 306 34 306 34 271 56 c 128,-1,5
 236 78 236 78 215.5 118.5 c 128,-1,6
 195 159 195 159 195 214 c 256,7,8
 195 269 195 269 219.5 313 c 128,-1,9
 244 357 244 357 285.5 383 c 128,-1,10
 327 409 327 409 379 409 c 0,11,12
 418 409 418 409 447.5 393.5 c 128,-1,13
 477 378 477 378 492 352 c 1,14,15
 503 403 503 403 551 403 c 2,16,-1
 557 403 l 2,17,18
 564 403 564 403 564 393 c 2,19,-1
 542 163 l 2,20,21
 541 152 541 152 540 143 c 128,-1,22
 539 134 539 134 539 126 c 0,23,24
 539 96 539 96 567 96 c 0,25,26
 603 96 603 96 629.5 136.5 c 128,-1,27
 656 177 656 177 656 267 c 0,28,29
 656 345 656 345 622.5 398.5 c 128,-1,30
 589 452 589 452 531 479.5 c 128,-1,31
 473 507 473 507 397 507 c 0,32,33
 313 507 313 507 249.5 469.5 c 128,-1,34
 186 432 186 432 150 367.5 c 128,-1,35
 114 303 114 303 114 221 c 0,36,37
 114 130 114 130 151 65 c 128,-1,38
 188 0 188 0 253 -34.5 c 128,-1,39
 318 -69 318 -69 403 -69 c 0,40,41
 483 -69 483 -69 534.5 -48 c 128,-1,42
 586 -27 586 -27 614 -7 c 0,43,44
 624 1 624 1 630 1 c 0,45,46
 639 1 639 1 639 -11 c 0,47,48
 639 -25 639 -25 622.5 -45 c 128,-1,49
 606 -65 606 -65 575 -85 c 128,-1,50
 544 -105 544 -105 498.5 -118 c 128,-1,51
 453 -131 453 -131 396 -131 c 0,52,53
 292 -131 292 -131 212 -87.5 c 128,-1,54
 132 -44 132 -44 87.5 35.5 c 128,-1,55
 43 115 43 115 43 222 c 0,56,57
 43 295 43 295 70 357.5 c 128,-1,58
 97 420 97 420 145 467.5 c 128,-1,59
 193 515 193 515 257.5 541.5 c 128,-1,60
 322 568 322 568 396 568 c 0,61,62
 486 568 486 568 560.5 532.5 c 128,-1,63
 635 497 635 497 679.5 431 c 128,-1,64
 724 365 724 365 724 271 c 0,65,66
 724 202 724 202 702 149 c 128,-1,67
 680 96 680 96 641.5 65.5 c 128,-1,68
 603 35 603 35 551 35 c 0,69,70
 515 35 515 35 495.5 56 c 128,-1,71
 476 77 476 77 474 103 c 1,0,1
361 101 m 0,72,73
 417 101 417 101 448.5 139.5 c 128,-1,74
 480 178 480 178 480 242 c 0,75,76
 480 289 480 289 455 316.5 c 128,-1,77
 430 344 430 344 384 344 c 0,78,79
 332 344 332 344 300.5 305.5 c 128,-1,80
 269 267 269 267 269 208 c 0,81,82
 269 161 269 161 293.5 131 c 128,-1,83
 318 101 318 101 361 101 c 0,72,73
EndSplineSet
EndChar

StartChar: A
Encoding: 65 65 35
Width: 510
GlyphClass: 1
Flags: W
LayerCount: 2
Fore
SplineSet
141 153 m 1,0,-1
 91 12 l 2,1,2
 87 0 87 0 76 0 c 2,3,-1
 17 0 l 2,4,5
 7 0 7 0 11 9 c 2,6,-1
 213 547 l 2,7,8
 216 556 216 556 224 556 c 2,9,-1
 243 556 l 2,10,11
 272 556 272 556 288 544 c 128,-1,12
 304 532 304 532 316 500 c 2,13,-1
 501 9 l 2,14,15
 505 0 505 0 494 0 c 2,16,-1
 435 0 l 2,17,18
 426 0 426 0 423 3 c 128,-1,19
 420 6 420 6 417 12 c 2,20,-1
 366 153 l 1,21,-1
 141 153 l 1,0,-1
165 221 m 1,22,-1
 342 221 l 1,23,-1
 253 463 l 1,24,-1
 165 221 l 1,22,-1
EndSplineSet
Substitution2: "Single Substitution lookup 2 subtable" ordfeminine
EndChar

StartChar: B
Encoding: 66 66 36
Width: 486
GlyphClass: 1
Flags: W
LayerCount: 2
Fore
SplineSet
346 292 m 1,0,1
 392 282 392 282 423.5 246 c 128,-1,2
 455 210 455 210 455 157 c 0,3,4
 455 84 455 84 409 42 c 128,-1,5
 363 0 363 0 277 0 c 2,6,-1
 72 0 l 2,7,8
 64 0 64 0 64 9 c 2,9,-1
 64 547 l 2,10,11
 64 556 64 556 72 556 c 2,12,-1
 260 556 l 2,13,14
 341 556 341 556 386 519 c 128,-1,15
 431 482 431 482 431 414 c 0,16,17
 431 362 431 362 405 334 c 128,-1,18
 379 306 379 306 346 292 c 1,0,1
140 325 m 1,19,-1
 271 325 l 2,20,21
 313 325 313 325 334.5 348.5 c 128,-1,22
 356 372 356 372 356 409 c 256,23,24
 356 446 356 446 333 467 c 128,-1,25
 310 488 310 488 264 488 c 2,26,-1
 140 488 l 1,27,-1
 140 325 l 1,19,-1
140 68 m 1,28,-1
 267 68 l 2,29,30
 292 68 292 68 317 74 c 128,-1,31
 342 80 342 80 359 100.5 c 128,-1,32
 376 121 376 121 376 164 c 0,33,34
 376 204 376 204 350 231 c 128,-1,35
 324 258 324 258 268 258 c 2,36,-1
 140 258 l 1,37,-1
 140 68 l 1,28,-1
EndSplineSet
EndChar

StartChar: C
Encoding: 67 67 37
Width: 512
GlyphClass: 1
Flags: W
LayerCount: 2
Fore
SplineSet
301 -11 m 0,0,1
 226 -11 226 -11 169.5 23.5 c 128,-1,2
 113 58 113 58 81.5 122.5 c 128,-1,3
 50 187 50 187 50 277 c 256,4,5
 50 367 50 367 83 432 c 128,-1,6
 116 497 116 497 174.5 532 c 128,-1,7
 233 567 233 567 309 567 c 0,8,9
 350 567 350 567 381 558 c 128,-1,10
 412 549 412 549 439 538 c 0,11,12
 464 527 464 527 473 513 c 128,-1,13
 482 499 482 499 477 477 c 2,14,-1
 472 456 l 2,15,16
 471 446 471 446 462 446 c 0,17,18
 457 446 457 446 448 452 c 0,19,20
 418 472 418 472 384.5 483.5 c 128,-1,21
 351 495 351 495 309 495 c 0,22,23
 226 495 226 495 177 438.5 c 128,-1,24
 128 382 128 382 128 276 c 0,25,26
 128 173 128 173 177 117 c 128,-1,27
 226 61 226 61 311 61 c 0,28,29
 365 61 365 61 402.5 83 c 128,-1,30
 440 105 440 105 462 132 c 0,31,32
 470 142 470 142 477 142 c 0,33,34
 485 142 485 142 488 136 c 128,-1,35
 491 130 491 130 491 122 c 0,36,37
 491 107 491 107 481 84.5 c 128,-1,38
 471 62 471 62 448.5 40.5 c 128,-1,39
 426 19 426 19 390 4 c 128,-1,40
 354 -11 354 -11 301 -11 c 0,0,1
EndSplineSet
EndChar

StartChar: D
Encoding: 68 68 38
Width: 556
GlyphClass: 1
Flags: W
LayerCount: 2
Fore
SplineSet
72 0 m 2,0,1
 64 0 64 0 64 9 c 2,2,-1
 64 547 l 2,3,4
 64 556 64 556 72 556 c 2,5,-1
 228 556 l 2,6,7
 310 556 310 556 372.5 527.5 c 128,-1,8
 435 499 435 499 470.5 439.5 c 128,-1,9
 506 380 506 380 506 286 c 0,10,11
 506 187 506 187 470.5 123.5 c 128,-1,12
 435 60 435 60 371 30 c 128,-1,13
 307 0 307 0 220 0 c 2,14,-1
 72 0 l 2,0,1
140 71 m 1,15,-1
 228 71 l 2,16,17
 325 71 325 71 376 123.5 c 128,-1,18
 427 176 427 176 427 283 c 0,19,20
 427 394 427 394 375 439.5 c 128,-1,21
 323 485 323 485 224 485 c 2,22,-1
 140 485 l 1,23,-1
 140 71 l 1,15,-1
EndSplineSet
EndChar

StartChar: E
Encoding: 69 69 39
Width: 412
GlyphClass: 1
Flags: W
LayerCount: 2
Fore
SplineSet
140 71 m 1,0,-1
 337 71 l 2,1,2
 360 71 360 71 371 59 c 128,-1,3
 382 47 382 47 382 27 c 2,4,-1
 382 11 l 2,5,6
 382 0 382 0 371 0 c 2,7,-1
 72 0 l 2,8,9
 64 0 64 0 64 9 c 2,10,-1
 64 547 l 2,11,12
 64 556 64 556 72 556 c 2,13,-1
 328 556 l 2,14,15
 373 556 373 556 373 513 c 2,16,-1
 373 496 l 2,17,18
 373 485 373 485 362 485 c 2,19,-1
 140 485 l 1,20,-1
 140 312 l 1,21,-1
 310 312 l 2,22,23
 354 312 354 312 354 268 c 2,24,-1
 354 252 l 2,25,26
 354 242 354 242 343 242 c 2,27,-1
 140 242 l 1,28,-1
 140 71 l 1,0,-1
EndSplineSet
EndChar

StartChar: F
Encoding: 70 70 40
Width: 397
GlyphClass: 1
Flags: W
LayerCount: 2
Fore
SplineSet
140 239 m 1,0,-1
 140 9 l 2,1,2
 140 0 140 0 132 0 c 2,3,-1
 72 0 l 2,4,5
 64 0 64 0 64 9 c 2,6,-1
 64 547 l 2,7,8
 64 556 64 556 72 556 c 2,9,-1
 328 556 l 2,10,11
 373 556 373 556 373 513 c 2,12,-1
 373 496 l 2,13,14
 373 485 373 485 362 485 c 2,15,-1
 140 485 l 1,16,-1
 140 310 l 1,17,-1
 308 310 l 2,18,19
 353 310 353 310 353 266 c 2,20,-1
 353 251 l 2,21,22
 353 239 353 239 341 239 c 2,23,-1
 140 239 l 1,0,-1
EndSplineSet
EndChar

StartChar: G
Encoding: 71 71 41
Width: 563
GlyphClass: 1
Flags: W
LayerCount: 2
Fore
SplineSet
442 107 m 1,0,-1
 442 224 l 1,1,-1
 338 224 l 2,2,3
 316 224 316 224 304.5 236 c 128,-1,4
 293 248 293 248 293 268 c 2,5,-1
 293 284 l 2,6,7
 293 295 293 295 303 295 c 2,8,-1
 505 295 l 2,9,10
 515 295 515 295 515 285 c 2,11,-1
 515 101 l 2,12,13
 515 86 515 86 511 78 c 128,-1,14
 507 70 507 70 496 59 c 0,15,16
 457 27 457 27 410.5 8 c 128,-1,17
 364 -11 364 -11 308 -11 c 0,18,19
 235 -11 235 -11 176 22 c 128,-1,20
 117 55 117 55 83 119.5 c 128,-1,21
 49 184 49 184 49 279 c 0,22,23
 49 367 49 367 81.5 431.5 c 128,-1,24
 114 496 114 496 173.5 531.5 c 128,-1,25
 233 567 233 567 313 567 c 0,26,27
 357 567 357 567 390.5 559.5 c 128,-1,28
 424 552 424 552 452 539 c 0,29,30
 478 529 478 529 487 515 c 128,-1,31
 496 501 496 501 491 479 c 2,32,-1
 486 458 l 2,33,34
 482 448 482 448 476 448 c 0,35,36
 471 448 471 448 462 454 c 0,37,38
 431 473 431 473 394 484 c 128,-1,39
 357 495 357 495 317 495 c 0,40,41
 228 495 228 495 177.5 439.5 c 128,-1,42
 127 384 127 384 127 274 c 0,43,44
 127 173 127 173 175 117 c 128,-1,45
 223 61 223 61 308 61 c 0,46,47
 343 61 343 61 377 71 c 128,-1,48
 411 81 411 81 442 107 c 1,0,-1
EndSplineSet
EndChar

StartChar: H
Encoding: 72 72 42
Width: 527
GlyphClass: 1
Flags: W
LayerCount: 2
Fore
SplineSet
140 239 m 1,0,-1
 140 9 l 2,1,2
 140 0 140 0 132 0 c 2,3,-1
 72 0 l 2,4,5
 64 0 64 0 64 9 c 2,6,-1
 64 547 l 2,7,8
 64 556 64 556 72 556 c 2,9,-1
 79 556 l 2,10,11
 140 556 140 556 140 485 c 2,12,-1
 140 310 l 1,13,-1
 386 310 l 1,14,-1
 386 547 l 2,15,16
 386 556 386 556 394 556 c 2,17,-1
 401 556 l 2,18,19
 462 556 462 556 462 485 c 2,20,-1
 462 9 l 2,21,22
 462 0 462 0 454 0 c 2,23,-1
 394 0 l 2,24,25
 386 0 386 0 386 9 c 2,26,-1
 386 239 l 1,27,-1
 140 239 l 1,0,-1
EndSplineSet
EndChar

StartChar: I
Encoding: 73 73 43
Width: 205
GlyphClass: 1
Flags: W
LayerCount: 2
Fore
SplineSet
72 0 m 2,0,1
 64 0 64 0 64 9 c 2,2,-1
 64 547 l 2,3,4
 64 556 64 556 72 556 c 2,5,-1
 79 556 l 2,6,7
 140 556 140 556 140 485 c 2,8,-1
 140 9 l 2,9,10
 140 0 140 0 132 0 c 2,11,-1
 72 0 l 2,0,1
EndSplineSet
EndChar

StartChar: J
Encoding: 74 74 44
Width: 294
GlyphClass: 1
Flags: W
LayerCount: 2
Fore
SplineSet
6 81 m 0,0,1
 6 97 6 97 17 97 c 0,2,3
 21 97 21 97 25 92 c 0,4,5
 42 73 42 73 58.5 63.5 c 128,-1,6
 75 54 75 54 94 54 c 0,7,8
 125 54 125 54 140.5 72 c 128,-1,9
 156 90 156 90 156 117 c 2,10,-1
 156 547 l 2,11,12
 156 556 156 556 164 556 c 2,13,-1
 171 556 l 2,14,15
 200 556 200 556 216 538.5 c 128,-1,16
 232 521 232 521 232 485 c 2,17,-1
 232 114 l 2,18,19
 232 59 232 59 201 24.5 c 128,-1,20
 170 -10 170 -10 111 -10 c 0,21,22
 65 -10 65 -10 35.5 17 c 128,-1,23
 6 44 6 44 6 81 c 0,0,1
EndSplineSet
EndChar

StartChar: K
Encoding: 75 75 45
Width: 489
GlyphClass: 1
Flags: W
LayerCount: 2
Fore
SplineSet
140 178 m 1,0,-1
 140 9 l 2,1,2
 140 0 140 0 132 0 c 2,3,-1
 72 0 l 2,4,5
 64 0 64 0 64 9 c 2,6,-1
 64 547 l 2,7,8
 64 556 64 556 72 556 c 2,9,-1
 79 556 l 2,10,11
 140 556 140 556 140 485 c 2,12,-1
 140 276 l 1,13,-1
 365 544 l 2,14,15
 371 551 371 551 374.5 553.5 c 128,-1,16
 378 556 378 556 385 556 c 2,17,-1
 447 556 l 2,18,19
 452 556 452 556 452.5 552.5 c 128,-1,20
 453 549 453 549 451 547 c 2,21,-1
 274 336 l 1,22,-1
 473 10 l 2,23,24
 476 6 476 6 475 3 c 128,-1,25
 474 0 474 0 468 0 c 2,26,-1
 404 0 l 2,27,28
 392 0 392 0 385 11 c 2,29,-1
 222 276 l 1,30,-1
 140 178 l 1,0,-1
EndSplineSet
EndChar

StartChar: L
Encoding: 76 76 46
Width: 370
GlyphClass: 1
Flags: W
LayerCount: 2
Fore
SplineSet
140 71 m 1,0,-1
 307 71 l 2,1,2
 329 71 329 71 340 59 c 128,-1,3
 351 47 351 47 351 27 c 2,4,-1
 351 11 l 2,5,6
 351 0 351 0 341 0 c 2,7,-1
 72 0 l 2,8,9
 64 0 64 0 64 9 c 2,10,-1
 64 547 l 2,11,12
 64 556 64 556 72 556 c 2,13,-1
 79 556 l 2,14,15
 140 556 140 556 140 485 c 2,16,-1
 140 71 l 1,0,-1
EndSplineSet
EndChar

StartChar: M
Encoding: 77 77 47
Width: 625
GlyphClass: 1
Flags: W
LayerCount: 2
Fore
SplineSet
313 108 m 1,0,-1
 454 547 l 2,1,2
 456 556 456 556 464 556 c 2,3,-1
 497 556 l 2,4,5
 520 556 520 556 536 541 c 128,-1,6
 552 526 552 526 553 500 c 2,7,-1
 580 9 l 2,8,9
 580 0 580 0 573 0 c 2,10,-1
 512 0 l 2,11,12
 504 0 504 0 504 9 c 2,13,-1
 483 416 l 1,14,-1
 350 9 l 2,15,16
 347 0 347 0 338 0 c 2,17,-1
 283 0 l 2,18,19
 276 0 276 0 272 9 c 2,20,-1
 144 412 l 1,21,-1
 122 9 l 2,22,23
 122 0 122 0 115 0 c 2,24,-1
 53 0 l 2,25,26
 46 0 46 0 46 9 c 2,27,-1
 76 547 l 2,28,29
 76 556 76 556 84 556 c 2,30,-1
 116 556 l 2,31,32
 145 556 145 556 160 546 c 128,-1,33
 175 536 175 536 182 511 c 2,34,-1
 313 108 l 1,0,-1
EndSplineSet
EndChar

StartChar: N
Encoding: 78 78 48
Width: 529
GlyphClass: 1
Flags: W
LayerCount: 2
Fore
SplineSet
388 138 m 1,0,-1
 388 547 l 2,1,2
 388 556 388 556 396 556 c 2,3,-1
 403 556 l 2,4,5
 463 556 463 556 463 485 c 2,6,-1
 463 9 l 2,7,8
 463 0 463 0 456 0 c 2,9,-1
 402 0 l 2,10,11
 388 0 388 0 380 13 c 2,12,-1
 140 403 l 1,13,-1
 140 9 l 2,14,15
 140 0 140 0 132 0 c 2,16,-1
 72 0 l 2,17,18
 64 0 64 0 64 9 c 2,19,-1
 64 547 l 2,20,21
 64 556 64 556 72 556 c 2,22,-1
 90 556 l 2,23,24
 119 556 119 556 132.5 545 c 128,-1,25
 146 534 146 534 160 511 c 2,26,-1
 388 138 l 1,0,-1
EndSplineSet
EndChar

StartChar: O
Encoding: 79 79 49
Width: 602
GlyphClass: 1
Flags: W
LayerCount: 2
Fore
SplineSet
301 -10 m 0,0,1
 182 -10 182 -10 115.5 67.5 c 128,-1,2
 49 145 49 145 49 277 c 0,3,4
 49 365 49 365 79 430 c 128,-1,5
 109 495 109 495 165.5 530.5 c 128,-1,6
 222 566 222 566 301 566 c 256,7,8
 380 566 380 566 436 530.5 c 128,-1,9
 492 495 492 495 522 430 c 128,-1,10
 552 365 552 365 552 277 c 0,11,12
 552 145 552 145 486.5 67.5 c 128,-1,13
 421 -10 421 -10 301 -10 c 0,0,1
301 62 m 256,14,15
 345 62 345 62 385 81 c 128,-1,16
 425 100 425 100 450 146.5 c 128,-1,17
 475 193 475 193 475 277 c 256,18,19
 475 361 475 361 450 408.5 c 128,-1,20
 425 456 425 456 385 475.5 c 128,-1,21
 345 495 345 495 301 495 c 256,22,23
 257 495 257 495 217 475.5 c 128,-1,24
 177 456 177 456 152 408.5 c 128,-1,25
 127 361 127 361 127 277 c 256,26,27
 127 193 127 193 152 146.5 c 128,-1,28
 177 100 177 100 217 81 c 128,-1,29
 257 62 257 62 301 62 c 256,14,15
EndSplineSet
Substitution2: "Single Substitution lookup 2 subtable" ordmasculine
EndChar

StartChar: P
Encoding: 80 80 50
Width: 489
GlyphClass: 1
Flags: W
LayerCount: 2
Fore
SplineSet
140 203 m 1,0,-1
 140 9 l 2,1,2
 140 0 140 0 132 0 c 2,3,-1
 72 0 l 2,4,5
 64 0 64 0 64 9 c 2,6,-1
 64 547 l 2,7,8
 64 556 64 556 72 556 c 2,9,-1
 263 556 l 2,10,11
 356 556 356 556 406 509 c 128,-1,12
 456 462 456 462 456 382 c 0,13,14
 456 301 456 301 406 252 c 128,-1,15
 356 203 356 203 270 203 c 2,16,-1
 140 203 l 1,0,-1
140 273 m 1,17,-1
 266 273 l 2,18,19
 293 273 293 273 319 282 c 128,-1,20
 345 291 345 291 362 314.5 c 128,-1,21
 379 338 379 338 379 382 c 0,22,23
 379 431 379 431 348 458 c 128,-1,24
 317 485 317 485 269 485 c 2,25,-1
 140 485 l 1,26,-1
 140 273 l 1,17,-1
EndSplineSet
EndChar

StartChar: Q
Encoding: 81 81 51
Width: 602
GlyphClass: 1
Flags: W
LayerCount: 2
Fore
SplineSet
264 -8 m 1,0,1
 162 4 162 4 105.5 79.5 c 128,-1,2
 49 155 49 155 49 277 c 0,3,4
 49 365 49 365 79 430 c 128,-1,5
 109 495 109 495 165.5 531 c 128,-1,6
 222 567 222 567 301 567 c 256,7,8
 380 567 380 567 436 531 c 128,-1,9
 492 495 492 495 522 430 c 128,-1,10
 552 365 552 365 552 277 c 0,11,12
 552 160 552 160 501 86 c 128,-1,13
 450 12 450 12 353 -3 c 1,14,15
 364 -21 364 -21 382.5 -33 c 128,-1,16
 401 -45 401 -45 430 -45 c 0,17,18
 477 -45 477 -45 515 -7 c 0,19,20
 521 -2 521 -2 525 -2 c 0,21,22
 536 -2 536 -2 536 -17 c 0,23,24
 536 -37 536 -37 521 -59 c 128,-1,25
 506 -81 506 -81 477.5 -96 c 128,-1,26
 449 -111 449 -111 410 -111 c 0,27,28
 352 -111 352 -111 317 -82 c 128,-1,29
 282 -53 282 -53 264 -8 c 1,0,1
301 62 m 256,30,31
 345 62 345 62 385 81 c 128,-1,32
 425 100 425 100 450 146.5 c 128,-1,33
 475 193 475 193 475 277 c 256,34,35
 475 361 475 361 450 408.5 c 128,-1,36
 425 456 425 456 385 475.5 c 128,-1,37
 345 495 345 495 301 495 c 256,38,39
 257 495 257 495 217 475.5 c 128,-1,40
 177 456 177 456 152 408.5 c 128,-1,41
 127 361 127 361 127 277 c 256,42,43
 127 193 127 193 152 146.5 c 128,-1,44
 177 100 177 100 217 81 c 128,-1,45
 257 62 257 62 301 62 c 256,30,31
EndSplineSet
EndChar

StartChar: R
Encoding: 82 82 52
Width: 498
GlyphClass: 1
Flags: W
LayerCount: 2
Fore
SplineSet
140 203 m 1,0,-1
 140 9 l 2,1,2
 140 0 140 0 132 0 c 2,3,-1
 72 0 l 2,4,5
 64 0 64 0 64 9 c 2,6,-1
 64 547 l 2,7,8
 64 556 64 556 72 556 c 2,9,-1
 262 556 l 2,10,11
 359 556 359 556 408 508.5 c 128,-1,12
 457 461 457 461 457 379 c 0,13,14
 457 315 457 315 424 273.5 c 128,-1,15
 391 232 391 232 341 214 c 1,16,-1
 461 9 l 2,17,18
 463 6 463 6 462 3 c 128,-1,19
 461 0 461 0 456 0 c 2,20,-1
 393 0 l 2,21,22
 380 0 380 0 373 11 c 2,23,-1
 264 203 l 1,24,-1
 140 203 l 1,0,-1
140 273 m 1,25,-1
 266 273 l 2,26,27
 319 273 319 273 349.5 299.5 c 128,-1,28
 380 326 380 326 380 382 c 0,29,30
 380 432 380 432 350 458.5 c 128,-1,31
 320 485 320 485 270 485 c 2,32,-1
 140 485 l 1,33,-1
 140 273 l 1,25,-1
EndSplineSet
EndChar

StartChar: S
Encoding: 83 83 53
Width: 444
GlyphClass: 1
Flags: W
LayerCount: 2
Fore
SplineSet
21 123 m 0,0,1
 21 143 21 143 34 143 c 0,2,3
 41 143 41 143 47 136 c 0,4,5
 77 100 77 100 115.5 79.5 c 128,-1,6
 154 59 154 59 209 59 c 0,7,8
 271 59 271 59 305 83.5 c 128,-1,9
 339 108 339 108 339 150 c 0,10,11
 339 180 339 180 317 198.5 c 128,-1,12
 295 217 295 217 261 230 c 128,-1,13
 227 243 227 243 188 256 c 128,-1,14
 149 269 149 269 115 287.5 c 128,-1,15
 81 306 81 306 59 336 c 128,-1,16
 37 366 37 366 37 414 c 0,17,18
 37 461 37 461 61.5 495 c 128,-1,19
 86 529 86 529 128 547.5 c 128,-1,20
 170 566 170 566 224 566 c 0,21,22
 265 566 265 566 298.5 559 c 128,-1,23
 332 552 332 552 360 539 c 0,24,25
 410 521 410 521 398 479 c 2,26,-1
 393 459 l 2,27,28
 391 449 391 449 385 449 c 0,29,30
 381 449 381 449 370 455 c 0,31,32
 339 475 339 475 301.5 486.5 c 128,-1,33
 264 498 264 498 223 498 c 0,34,35
 176 498 176 498 145 477 c 128,-1,36
 114 456 114 456 114 418 c 0,37,38
 114 387 114 387 136 368 c 128,-1,39
 158 349 158 349 192 336.5 c 128,-1,40
 226 324 226 324 265 311 c 128,-1,41
 304 298 304 298 338 280.5 c 128,-1,42
 372 263 372 263 394 234 c 128,-1,43
 416 205 416 205 416 159 c 0,44,45
 416 83 416 83 363.5 36 c 128,-1,46
 311 -11 311 -11 217 -11 c 0,47,48
 149 -11 149 -11 105.5 11 c 128,-1,49
 62 33 62 33 41.5 64.5 c 128,-1,50
 21 96 21 96 21 123 c 0,0,1
EndSplineSet
EndChar

StartChar: T
Encoding: 84 84 54
Width: 424
GlyphClass: 1
Flags: W
LayerCount: 2
Fore
SplineSet
173 485 m 1,0,-1
 22 485 l 2,1,2
 14 485 14 485 14 494 c 2,3,-1
 14 547 l 2,4,5
 14 556 14 556 22 556 c 2,6,-1
 365 556 l 2,7,8
 411 556 411 556 411 513 c 2,9,-1
 411 496 l 2,10,11
 411 485 411 485 400 485 c 2,12,-1
 248 485 l 1,13,-1
 248 9 l 2,14,15
 248 0 248 0 241 0 c 2,16,-1
 182 0 l 2,17,18
 173 0 173 0 173 9 c 2,19,-1
 173 485 l 1,0,-1
EndSplineSet
EndChar

StartChar: U
Encoding: 85 85 55
Width: 525
GlyphClass: 1
Flags: W
LayerCount: 2
Fore
SplineSet
262 -10 m 0,0,1
 203 -10 203 -10 164 8.5 c 128,-1,2
 125 27 125 27 103 57.5 c 128,-1,3
 81 88 81 88 72 125 c 128,-1,4
 63 162 63 162 63 199 c 2,5,-1
 63 547 l 2,6,7
 63 556 63 556 71 556 c 2,8,-1
 78 556 l 2,9,10
 139 556 139 556 139 485 c 2,11,-1
 139 212 l 2,12,13
 139 146 139 146 165.5 103.5 c 128,-1,14
 192 61 192 61 261 61 c 0,15,16
 308 61 308 61 335.5 81 c 128,-1,17
 363 101 363 101 375 135.5 c 128,-1,18
 387 170 387 170 387 213 c 2,19,-1
 387 547 l 2,20,21
 387 556 387 556 395 556 c 2,22,-1
 402 556 l 2,23,24
 462 556 462 556 462 485 c 2,25,-1
 462 201 l 2,26,27
 462 170 462 170 453.5 133.5 c 128,-1,28
 445 97 445 97 423.5 64 c 128,-1,29
 402 31 402 31 363 10.5 c 128,-1,30
 324 -10 324 -10 262 -10 c 0,0,1
EndSplineSet
EndChar

StartChar: V
Encoding: 86 86 56
Width: 481
GlyphClass: 1
Flags: W
LayerCount: 2
Fore
SplineSet
244 89 m 1,0,-1
 389 544 l 2,1,2
 394 556 394 556 406 556 c 2,3,-1
 463 556 l 2,4,5
 473 556 473 556 469 547 c 2,6,-1
 287 9 l 2,7,8
 284 0 284 0 276 0 c 2,9,-1
 209 0 l 2,10,11
 203 0 203 0 200.5 2.5 c 128,-1,12
 198 5 198 5 196 9 c 2,13,-1
 14 546 l 2,14,15
 10 556 10 556 20 556 c 2,16,-1
 46 556 l 2,17,18
 70 556 70 556 85 546 c 128,-1,19
 100 536 100 536 111 503 c 2,20,-1
 244 89 l 1,0,-1
EndSplineSet
EndChar

StartChar: W
Encoding: 87 87 57
Width: 749
GlyphClass: 1
Flags: W
LayerCount: 2
Fore
SplineSet
213 99 m 1,0,-1
 330 544 l 2,1,2
 333 556 333 556 345 556 c 2,3,-1
 365 556 l 2,4,5
 389 556 389 556 403.5 546 c 128,-1,6
 418 536 418 536 426 503 c 2,7,-1
 539 99 l 1,8,-1
 647 544 l 2,9,10
 650 556 650 556 663 556 c 2,11,-1
 720 556 l 2,12,13
 729 556 729 556 726 547 c 2,14,-1
 585 9 l 2,15,16
 581 0 581 0 573 0 c 2,17,-1
 509 0 l 2,18,19
 500 0 500 0 498 9 c 2,20,-1
 372 454 l 1,21,-1
 251 9 l 2,22,23
 247 0 247 0 240 0 c 2,24,-1
 175 0 l 2,25,26
 165 0 165 0 163 9 c 2,27,-1
 25 546 l 2,28,29
 23 556 23 556 32 556 c 2,30,-1
 49 556 l 2,31,32
 74 556 74 556 90 546 c 128,-1,33
 106 536 106 536 115 503 c 2,34,-1
 213 99 l 1,0,-1
EndSplineSet
EndChar

StartChar: X
Encoding: 88 88 58
Width: 480
GlyphClass: 1
Flags: W
LayerCount: 2
Fore
SplineSet
242 241 m 1,0,-1
 98 12 l 2,1,2
 91 0 91 0 79 0 c 2,3,-1
 19 0 l 2,4,5
 9 0 9 0 14 9 c 2,6,-1
 189 289 l 1,7,-1
 32 546 l 2,8,9
 30 548 30 548 31.5 552 c 128,-1,10
 33 556 33 556 37 556 c 2,11,-1
 65 556 l 2,12,13
 91 556 91 556 105 547.5 c 128,-1,14
 119 539 119 539 137 510 c 2,15,-1
 242 341 l 1,16,-1
 367 544 l 2,17,18
 371 550 371 550 374.5 553 c 128,-1,19
 378 556 378 556 385 556 c 2,20,-1
 444 556 l 2,21,22
 448 556 448 556 449.5 553.5 c 128,-1,23
 451 551 451 551 449 547 c 2,24,-1
 293 292 l 1,25,-1
 470 9 l 2,26,27
 473 5 473 5 471.5 2.5 c 128,-1,28
 470 0 470 0 465 0 c 2,29,-1
 404 0 l 2,30,31
 391 0 391 0 385 12 c 2,32,-1
 242 241 l 1,0,-1
EndSplineSet
EndChar

StartChar: Y
Encoding: 89 89 59
Width: 445
GlyphClass: 1
Flags: W
LayerCount: 2
Fore
SplineSet
186 213 m 1,0,-1
 5 547 l 2,1,2
 1 556 1 556 11 556 c 2,3,-1
 39 556 l 2,4,5
 65 556 65 556 81 544.5 c 128,-1,6
 97 533 97 533 112 506 c 2,7,-1
 226 292 l 1,8,-1
 360 543 l 2,9,10
 366 556 366 556 377 556 c 2,11,-1
 435 556 l 2,12,13
 446 556 446 556 441 544 c 2,14,-1
 261 212 l 1,15,-1
 261 9 l 2,16,17
 261 0 261 0 253 0 c 2,18,-1
 194 0 l 2,19,20
 186 0 186 0 186 9 c 2,21,-1
 186 213 l 1,0,-1
EndSplineSet
EndChar

StartChar: Z
Encoding: 90 90 60
Width: 449
GlyphClass: 1
Flags: W
LayerCount: 2
Fore
SplineSet
124 71 m 1,0,-1
 369 71 l 2,1,2
 392 71 392 71 403 59 c 128,-1,3
 414 47 414 47 414 27 c 2,4,-1
 414 11 l 2,5,6
 414 0 414 0 402 0 c 2,7,-1
 41 0 l 2,8,9
 33 0 33 0 33 9 c 2,10,-1
 33 51 l 2,11,12
 33 62 33 62 36 69.5 c 128,-1,13
 39 77 39 77 46 88 c 2,14,-1
 328 485 l 1,15,-1
 48 485 l 2,16,17
 40 485 40 485 40 494 c 2,18,-1
 40 547 l 2,19,20
 40 556 40 556 48 556 c 2,21,-1
 356 556 l 2,22,23
 381 556 381 556 396.5 545 c 128,-1,24
 412 534 412 534 412 505 c 2,25,-1
 412 492 l 2,26,27
 412 475 412 475 399 455 c 2,28,-1
 124 71 l 1,0,-1
EndSplineSet
EndChar

StartChar: bracketleft
Encoding: 91 91 61
Width: 306
GlyphClass: 1
Flags: W
LayerCount: 2
Fore
SplineSet
238 -144 m 2,0,-1
 131 -144 l 2,1,2
 102 -144 102 -144 84.5 -127 c 128,-1,3
 67 -110 67 -110 67 -82 c 2,4,-1
 67 633 l 2,5,6
 67 662 67 662 84.5 679 c 128,-1,7
 102 696 102 696 131 696 c 2,8,-1
 238 696 l 2,9,10
 250 696 250 696 250 683 c 2,11,-1
 250 678 l 2,12,13
 250 632 250 632 199 632 c 2,14,-1
 153 632 l 2,15,16
 136 632 136 632 136 614 c 2,17,-1
 136 -62 l 2,18,19
 136 -80 136 -80 153 -80 c 2,20,-1
 199 -80 l 2,21,22
 223 -80 223 -80 236.5 -92.5 c 128,-1,23
 250 -105 250 -105 250 -126 c 2,24,-1
 250 -131 l 2,25,26
 250 -144 250 -144 238 -144 c 2,0,-1
EndSplineSet
PairPos2: "'kern' Horizontal Kerning lookup 2 per glyph data 1" uni0632 dx=8 dy=0 dh=8 dv=0 dx=0 dy=0 dh=0 dv=0
EndChar

StartChar: backslash
Encoding: 92 92 62
Width: 302
GlyphClass: 1
Flags: W
LayerCount: 2
Fore
SplineSet
229 9 m 2,0,-1
 2 547 l 2,1,2
 -2 556 -2 556 8 556 c 2,3,-1
 19 556 l 2,4,5
 51 556 51 556 66 543 c 128,-1,6
 81 530 81 530 93 502 c 2,7,-1
 302 9 l 2,8,9
 306 0 306 0 297 0 c 2,10,-1
 242 0 l 2,11,12
 234 0 234 0 229 9 c 2,0,-1
EndSplineSet
EndChar

StartChar: bracketright
Encoding: 93 93 63
Width: 306
GlyphClass: 1
Flags: W
LayerCount: 2
Fore
SplineSet
175 -144 m 2,0,-1
 69 -144 l 2,1,2
 56 -144 56 -144 56 -131 c 2,3,-1
 56 -126 l 2,4,5
 56 -105 56 -105 69.5 -92.5 c 128,-1,6
 83 -80 83 -80 107 -80 c 2,7,-1
 153 -80 l 2,8,9
 170 -80 170 -80 170 -62 c 2,10,-1
 170 614 l 2,11,12
 170 632 170 632 153 632 c 2,13,-1
 107 632 l 2,14,15
 56 632 56 632 56 678 c 2,16,-1
 56 683 l 2,17,18
 56 696 56 696 69 696 c 2,19,-1
 175 696 l 2,20,21
 204 696 204 696 221.5 679 c 128,-1,22
 239 662 239 662 239 633 c 2,23,-1
 239 -82 l 2,24,25
 239 -110 239 -110 221.5 -127 c 128,-1,26
 204 -144 204 -144 175 -144 c 2,0,-1
EndSplineSet
PairPos2: "'kern' Horizontal Kerning lookup 2 per glyph data 1" uni0698 dx=-33 dy=0 dh=-33 dv=0 dx=0 dy=0 dh=0 dv=0
PairPos2: "'kern' Horizontal Kerning lookup 2 per glyph data 1" uni0695 dx=-18 dy=0 dh=-18 dv=0 dx=0 dy=0 dh=0 dv=0
PairPos2: "'kern' Horizontal Kerning lookup 2 per glyph data 1" uni0694 dx=-18 dy=0 dh=-18 dv=0 dx=0 dy=0 dh=0 dv=0
PairPos2: "'kern' Horizontal Kerning lookup 2 per glyph data 1" uni0691 dx=-11 dy=0 dh=-11 dv=0 dx=0 dy=0 dh=0 dv=0
PairPos2: "'kern' Horizontal Kerning lookup 2 per glyph data 1" uni0671 dx=28 dy=0 dh=28 dv=0 dx=0 dy=0 dh=0 dv=0
PairPos2: "'kern' Horizontal Kerning lookup 2 per glyph data 1" uni0632 dx=-33 dy=0 dh=-33 dv=0 dx=0 dy=0 dh=0 dv=0
PairPos2: "'kern' Horizontal Kerning lookup 2 per glyph data 1" uni0631 dx=-18 dy=0 dh=-18 dv=0 dx=0 dy=0 dh=0 dv=0
PairPos2: "'kern' Horizontal Kerning lookup 2 per glyph data 1" uni0627 dx=-18 dy=0 dh=-18 dv=0 dx=0 dy=0 dh=0 dv=0
PairPos2: "'kern' Horizontal Kerning lookup 2 per glyph data 1" uni0625 dx=12 dy=0 dh=12 dv=0 dx=0 dy=0 dh=0 dv=0
PairPos2: "'kern' Horizontal Kerning lookup 2 per glyph data 1" uni0623 dx=17 dy=0 dh=17 dv=0 dx=0 dy=0 dh=0 dv=0
PairPos2: "'kern' Horizontal Kerning lookup 2 per glyph data 1" uni0622 dx=26 dy=0 dh=26 dv=0 dx=0 dy=0 dh=0 dv=0
EndChar

StartChar: asciicircum
Encoding: 94 94 64
Width: 407
GlyphClass: 1
Flags: W
LayerCount: 2
Fore
SplineSet
205 477 m 1,0,-1
 102 282 l 2,1,2
 97 271 97 271 84 271 c 2,3,-1
 34 271 l 2,4,5
 30 271 30 271 28.5 274 c 128,-1,6
 27 277 27 277 28 279 c 2,7,-1
 169 544 l 2,8,9
 174 556 174 556 188 556 c 0,10,11
 211 556 211 556 227.5 546 c 128,-1,12
 244 536 244 536 257 512 c 2,13,-1
 382 279 l 2,14,15
 384 277 384 277 381.5 274 c 128,-1,16
 379 271 379 271 375 271 c 2,17,-1
 325 271 l 2,18,19
 313 271 313 271 307 282 c 2,20,-1
 205 477 l 1,0,-1
EndSplineSet
EndChar

StartChar: underscore
Encoding: 95 95 65
Width: 434
GlyphClass: 1
Flags: W
LayerCount: 2
Fore
SplineSet
2 -188 m 2,0,1
 -6 -188 -6 -188 -6 -180 c 2,2,-1
 -6 -131 l 2,3,4
 -6 -122 -6 -122 2 -122 c 2,5,-1
 432 -122 l 2,6,7
 441 -122 441 -122 441 -131 c 2,8,-1
 441 -180 l 2,9,10
 441 -188 441 -188 432 -188 c 2,11,-1
 2 -188 l 2,0,1
EndSplineSet
EndChar

StartChar: grave
Encoding: 96 96 66
Width: 173
GlyphClass: 1
Flags: W
LayerCount: 2
Fore
SplineSet
172 439 m 2,0,1
 175 437 175 437 174 433.5 c 128,-1,2
 173 430 173 430 168 430 c 2,3,-1
 115 430 l 2,4,5
 98 430 98 430 87 441 c 2,6,-1
 5 507 l 2,7,8
 2 509 2 509 3.5 512.5 c 128,-1,9
 5 516 5 516 9 516 c 2,10,-1
 73 516 l 2,11,12
 82 516 82 516 87 513.5 c 128,-1,13
 92 511 92 511 98 506 c 2,14,-1
 172 439 l 2,0,1
EndSplineSet
EndChar

StartChar: a
Encoding: 97 97 67
Width: 459
GlyphClass: 1
Flags: W
LayerCount: 2
Fore
SplineSet
331 52 m 1,0,1
 309 21 309 21 278 6 c 128,-1,2
 247 -9 247 -9 209 -9 c 0,3,4
 154 -9 154 -9 115.5 17 c 128,-1,5
 77 43 77 43 57 87 c 128,-1,6
 37 131 37 131 37 184 c 0,7,8
 37 240 37 240 59 283.5 c 128,-1,9
 81 327 81 327 120.5 352 c 128,-1,10
 160 377 160 377 212 377 c 0,11,12
 254 377 254 377 285.5 361 c 128,-1,13
 317 345 317 345 335 319 c 1,14,15
 340 345 340 345 355 356.5 c 128,-1,16
 370 368 370 368 393 368 c 2,17,-1
 398 368 l 2,18,19
 405 368 405 368 405 359 c 2,20,-1
 405 9 l 2,21,22
 405 0 405 0 398 0 c 2,23,-1
 339 0 l 2,24,25
 331 0 331 0 331 9 c 2,26,-1
 331 52 l 1,0,1
220 61 m 0,27,28
 245 61 245 61 270.5 71.5 c 128,-1,29
 296 82 296 82 313.5 109 c 128,-1,30
 331 136 331 136 331 184 c 0,31,32
 331 233 331 233 313.5 259.5 c 128,-1,33
 296 286 296 286 271 296 c 128,-1,34
 246 306 246 306 223 306 c 0,35,36
 180 306 180 306 147 276 c 128,-1,37
 114 246 114 246 114 184 c 0,38,39
 114 139 114 139 130.5 112 c 128,-1,40
 147 85 147 85 171.5 73 c 128,-1,41
 196 61 196 61 220 61 c 0,27,28
EndSplineSet
Substitution2: "Single Substitution lookup 2 subtable" ordfeminine
EndChar

StartChar: b
Encoding: 98 98 68
Width: 459
GlyphClass: 1
Flags: W
LayerCount: 2
Fore
SplineSet
127 49 m 1,0,-1
 127 9 l 2,1,2
 127 0 127 0 120 0 c 2,3,-1
 61 0 l 2,4,5
 53 0 53 0 53 9 c 2,6,-1
 53 547 l 2,7,8
 53 556 53 556 61 556 c 2,9,-1
 66 556 l 2,10,11
 127 556 127 556 127 487 c 2,12,-1
 127 316 l 1,13,14
 145 343 145 343 176.5 360 c 128,-1,15
 208 377 208 377 251 377 c 0,16,17
 329 377 329 377 375.5 324 c 128,-1,18
 422 271 422 271 422 184 c 0,19,20
 422 131 422 131 402 87 c 128,-1,21
 382 43 382 43 344 17 c 128,-1,22
 306 -9 306 -9 252 -9 c 0,23,24
 213 -9 213 -9 180 5.5 c 128,-1,25
 147 20 147 20 127 49 c 1,0,-1
237 61 m 0,26,27
 262 61 262 61 287 73 c 128,-1,28
 312 85 312 85 328.5 112 c 128,-1,29
 345 139 345 139 345 184 c 0,30,31
 345 246 345 246 312.5 276 c 128,-1,32
 280 306 280 306 236 306 c 0,33,34
 213 306 213 306 187.5 296 c 128,-1,35
 162 286 162 286 144.5 259.5 c 128,-1,36
 127 233 127 233 127 184 c 0,37,38
 127 136 127 136 145 109 c 128,-1,39
 163 82 163 82 188.5 71.5 c 128,-1,40
 214 61 214 61 237 61 c 0,26,27
EndSplineSet
EndChar

StartChar: c
Encoding: 99 99 69
Width: 363
GlyphClass: 1
Flags: W
LayerCount: 2
Fore
SplineSet
312 282 m 0,0,1
 290 294 290 294 270.5 300 c 128,-1,2
 251 306 251 306 223 306 c 0,3,4
 176 306 176 306 145.5 274 c 128,-1,5
 115 242 115 242 115 182 c 0,6,7
 115 124 115 124 145 90.5 c 128,-1,8
 175 57 175 57 231 57 c 0,9,10
 264 57 264 57 286.5 69 c 128,-1,11
 309 81 309 81 322 94 c 0,12,13
 324 96 324 96 327.5 98.5 c 128,-1,14
 331 101 331 101 334 101 c 0,15,16
 344 101 344 101 344 86 c 0,17,18
 344 66 344 66 329.5 43.5 c 128,-1,19
 315 21 315 21 286.5 5.5 c 128,-1,20
 258 -10 258 -10 215 -10 c 0,21,22
 136 -10 136 -10 87 41.5 c 128,-1,23
 38 93 38 93 38 183 c 0,24,25
 38 242 38 242 61 285.5 c 128,-1,26
 84 329 84 329 125 353 c 128,-1,27
 166 377 166 377 220 377 c 0,28,29
 246 377 246 377 265.5 373.5 c 128,-1,30
 285 370 285 370 304 362 c 0,31,32
 343 346 343 346 332 307 c 2,33,-1
 327 287 l 2,34,35
 325 279 325 279 320 279 c 0,36,37
 317 279 317 279 312 282 c 0,0,1
EndSplineSet
EndChar

StartChar: d
Encoding: 100 100 70
Width: 459
GlyphClass: 1
Flags: W
LayerCount: 2
Fore
SplineSet
332 320 m 1,0,-1
 332 547 l 2,1,2
 332 556 332 556 340 556 c 2,3,-1
 345 556 l 2,4,5
 374 556 374 556 390.5 539 c 128,-1,6
 407 522 407 522 407 487 c 2,7,-1
 407 9 l 2,8,9
 407 0 407 0 399 0 c 2,10,-1
 340 0 l 2,11,12
 332 0 332 0 332 9 c 2,13,-1
 332 52 l 1,14,15
 311 21 311 21 279.5 6 c 128,-1,16
 248 -9 248 -9 210 -9 c 0,17,18
 156 -9 156 -9 117.5 17 c 128,-1,19
 79 43 79 43 58.5 87 c 128,-1,20
 38 131 38 131 38 184 c 0,21,22
 38 240 38 240 60 283.5 c 128,-1,23
 82 327 82 327 121.5 352 c 128,-1,24
 161 377 161 377 215 377 c 0,25,26
 253 377 253 377 284 362 c 128,-1,27
 315 347 315 347 332 320 c 1,0,-1
221 61 m 0,28,29
 246 61 246 61 271.5 71.5 c 128,-1,30
 297 82 297 82 314.5 109 c 128,-1,31
 332 136 332 136 332 184 c 0,32,33
 332 233 332 233 314.5 259.5 c 128,-1,34
 297 286 297 286 272 296 c 128,-1,35
 247 306 247 306 224 306 c 0,36,37
 181 306 181 306 148 276 c 128,-1,38
 115 246 115 246 115 184 c 0,39,40
 115 139 115 139 131.5 112 c 128,-1,41
 148 85 148 85 172.5 73 c 128,-1,42
 197 61 197 61 221 61 c 0,28,29
EndSplineSet
EndChar

StartChar: e
Encoding: 101 101 71
Width: 412
GlyphClass: 1
Flags: W
LayerCount: 2
Fore
SplineSet
111 157 m 1,0,1
 117 105 117 105 149 80.5 c 128,-1,2
 181 56 181 56 233 56 c 0,3,4
 275 56 275 56 300 67 c 128,-1,5
 325 78 325 78 346 93 c 0,6,7
 350 95 350 95 353.5 98 c 128,-1,8
 357 101 357 101 360 101 c 0,9,10
 365 101 365 101 367.5 96.5 c 128,-1,11
 370 92 370 92 370 87 c 0,12,13
 370 66 370 66 353.5 43.5 c 128,-1,14
 337 21 337 21 304.5 6 c 128,-1,15
 272 -9 272 -9 224 -9 c 0,16,17
 175 -9 175 -9 132.5 11.5 c 128,-1,18
 90 32 90 32 63.5 74.5 c 128,-1,19
 37 117 37 117 37 184 c 0,20,21
 37 240 37 240 59 283.5 c 128,-1,22
 81 327 81 327 120.5 352 c 128,-1,23
 160 377 160 377 212 377 c 0,24,25
 271 377 271 377 307 352.5 c 128,-1,26
 343 328 343 328 359.5 289.5 c 128,-1,27
 376 251 376 251 376 208 c 0,28,29
 376 195 376 195 375.5 186 c 128,-1,30
 375 177 375 177 374 169 c 0,31,32
 373 157 373 157 359 157 c 2,33,-1
 111 157 l 1,0,1
113 214 m 1,34,-1
 302 214 l 1,35,36
 303 237 303 237 295.5 259 c 128,-1,37
 288 281 288 281 268 296 c 128,-1,38
 248 311 248 311 211 311 c 0,39,40
 169 311 169 311 143.5 285.5 c 128,-1,41
 118 260 118 260 113 214 c 1,34,-1
EndSplineSet
EndChar

StartChar: f
Encoding: 102 102 72
Width: 289
GlyphClass: 1
Flags: W
LayerCount: 2
Fore
SplineSet
82 302 m 1,0,-1
 22 302 l 2,1,2
 14 302 14 302 14 310 c 2,3,-1
 14 359 l 2,4,5
 14 368 14 368 22 368 c 2,6,-1
 82 368 l 1,7,-1
 82 442 l 2,8,9
 82 504 82 504 110 533 c 128,-1,10
 138 562 138 562 181 562 c 0,11,12
 212 562 212 562 231.5 549 c 128,-1,13
 251 536 251 536 260.5 518 c 128,-1,14
 270 500 270 500 270 485 c 0,15,16
 270 471 270 471 261 471 c 0,17,18
 258 471 258 471 252 474 c 0,19,20
 241 483 241 483 228.5 489.5 c 128,-1,21
 216 496 216 496 199 496 c 0,22,23
 179 496 179 496 167.5 483 c 128,-1,24
 156 470 156 470 156 438 c 2,25,-1
 156 368 l 1,26,-1
 247 368 l 2,27,28
 255 368 255 368 255 359 c 2,29,-1
 255 310 l 2,30,31
 255 302 255 302 247 302 c 2,32,-1
 156 302 l 1,33,-1
 156 9 l 2,34,35
 156 0 156 0 148 0 c 2,36,-1
 90 0 l 2,37,38
 82 0 82 0 82 9 c 2,39,-1
 82 302 l 1,0,-1
EndSplineSet
EndChar

StartChar: g
Encoding: 103 103 73
Width: 459
GlyphClass: 1
Flags: W
LayerCount: 2
Fore
SplineSet
332 54 m 1,0,1
 311 24 311 24 279.5 9 c 128,-1,2
 248 -6 248 -6 210 -6 c 0,3,4
 156 -6 156 -6 117.5 19.5 c 128,-1,5
 79 45 79 45 58.5 88 c 128,-1,6
 38 131 38 131 38 184 c 0,7,8
 38 240 38 240 60 283.5 c 128,-1,9
 82 327 82 327 121.5 352 c 128,-1,10
 161 377 161 377 213 377 c 0,11,12
 255 377 255 377 286.5 361 c 128,-1,13
 318 345 318 345 337 319 c 1,14,15
 341 345 341 345 356 356.5 c 128,-1,16
 371 368 371 368 394 368 c 2,17,-1
 399 368 l 2,18,19
 407 368 407 368 407 360 c 2,20,-1
 407 12 l 2,21,22
 407 -70 407 -70 360.5 -120.5 c 128,-1,23
 314 -171 314 -171 220 -171 c 0,24,25
 171 -171 171 -171 134.5 -155 c 128,-1,26
 98 -139 98 -139 78 -115.5 c 128,-1,27
 58 -92 58 -92 58 -68 c 0,28,29
 58 -61 58 -61 61 -56 c 128,-1,30
 64 -51 64 -51 69 -51 c 0,31,32
 73 -51 73 -51 75 -53 c 128,-1,33
 77 -55 77 -55 81 -58 c 0,34,35
 101 -76 101 -76 131 -88.5 c 128,-1,36
 161 -101 161 -101 207 -101 c 0,37,38
 276 -101 276 -101 304 -71 c 128,-1,39
 332 -41 332 -41 332 12 c 2,40,-1
 332 54 l 1,0,1
221 61 m 0,41,42
 246 61 246 61 271.5 71.5 c 128,-1,43
 297 82 297 82 314.5 109 c 128,-1,44
 332 136 332 136 332 184 c 0,45,46
 332 233 332 233 314.5 259.5 c 128,-1,47
 297 286 297 286 272 296 c 128,-1,48
 247 306 247 306 224 306 c 0,49,50
 181 306 181 306 148 276 c 128,-1,51
 115 246 115 246 115 184 c 0,52,53
 115 139 115 139 131.5 112 c 128,-1,54
 148 85 148 85 172.5 73 c 128,-1,55
 197 61 197 61 221 61 c 0,41,42
EndSplineSet
EndChar

StartChar: h
Encoding: 104 104 74
Width: 441
GlyphClass: 1
Flags: W
LayerCount: 2
Fore
SplineSet
127 323 m 1,0,1
 142 346 142 346 171 361.5 c 128,-1,2
 200 377 200 377 241 377 c 0,3,4
 309 377 309 377 350 334 c 128,-1,5
 391 291 391 291 391 217 c 2,6,-1
 391 9 l 2,7,8
 391 0 391 0 383 0 c 2,9,-1
 324 0 l 2,10,11
 316 0 316 0 316 9 c 2,12,-1
 316 204 l 2,13,14
 316 256 316 256 291 282 c 128,-1,15
 266 308 266 308 224 308 c 0,16,17
 179 308 179 308 153 281.5 c 128,-1,18
 127 255 127 255 127 199 c 2,19,-1
 127 9 l 2,20,21
 127 0 127 0 120 0 c 2,22,-1
 61 0 l 2,23,24
 53 0 53 0 53 9 c 2,25,-1
 53 547 l 2,26,27
 53 556 53 556 61 556 c 2,28,-1
 66 556 l 2,29,30
 127 556 127 556 127 487 c 2,31,-1
 127 323 l 1,0,1
EndSplineSet
EndChar

StartChar: i
Encoding: 105 105 75
Width: 180
GlyphClass: 1
Flags: W
LayerCount: 2
Fore
SplineSet
46 467 m 0,0,1
 46 487 46 487 59 500 c 128,-1,2
 72 513 72 513 91 513 c 0,3,4
 109 513 109 513 122 500 c 128,-1,5
 135 487 135 487 135 467 c 0,6,7
 135 448 135 448 122 435 c 128,-1,8
 109 422 109 422 91 422 c 0,9,10
 72 422 72 422 59 435 c 128,-1,11
 46 448 46 448 46 467 c 0,0,1
61 0 m 2,12,13
 53 0 53 0 53 9 c 2,14,-1
 53 359 l 2,15,16
 53 368 53 368 61 368 c 2,17,-1
 66 368 l 2,18,19
 95 368 95 368 111.5 351 c 128,-1,20
 128 334 128 334 128 299 c 2,21,-1
 128 9 l 2,22,23
 128 0 128 0 120 0 c 2,24,-1
 61 0 l 2,12,13
EndSplineSet
EndChar

StartChar: j
Encoding: 106 106 76
Width: 180
GlyphClass: 1
Flags: W
LayerCount: 2
Fore
SplineSet
45 467 m 0,0,1
 45 487 45 487 58 500 c 128,-1,2
 71 513 71 513 90 513 c 256,3,4
 109 513 109 513 122 500 c 128,-1,5
 135 487 135 487 135 467 c 0,6,7
 135 448 135 448 122 435 c 128,-1,8
 109 422 109 422 90 422 c 256,9,10
 71 422 71 422 58 435 c 128,-1,11
 45 448 45 448 45 467 c 0,0,1
-42 -81 m 0,12,13
 -29 -91 -29 -91 -17 -98.5 c 128,-1,14
 -5 -106 -5 -106 11 -106 c 0,15,16
 35 -106 35 -106 44 -89.5 c 128,-1,17
 53 -73 53 -73 53 -42 c 2,18,-1
 53 360 l 2,19,20
 53 368 53 368 60 368 c 2,21,-1
 65 368 l 2,22,23
 94 368 94 368 110.5 351 c 128,-1,24
 127 334 127 334 127 299 c 2,25,-1
 127 -48 l 2,26,27
 127 -109 127 -109 102 -140 c 128,-1,28
 77 -171 77 -171 33 -171 c 0,29,30
 1 -171 1 -171 -19.5 -157 c 128,-1,31
 -40 -143 -40 -143 -49.5 -124 c 128,-1,32
 -59 -105 -59 -105 -59 -92 c 0,33,34
 -59 -78 -59 -78 -50 -78 c 0,35,36
 -45 -78 -45 -78 -42 -81 c 0,12,13
EndSplineSet
EndChar

StartChar: k
Encoding: 107 107 77
Width: 376
GlyphClass: 1
Flags: W
LayerCount: 2
Fore
SplineSet
127 135 m 1,0,-1
 127 9 l 2,1,2
 127 0 127 0 120 0 c 2,3,-1
 61 0 l 2,4,5
 53 0 53 0 53 9 c 2,6,-1
 53 547 l 2,7,8
 53 556 53 556 61 556 c 2,9,-1
 66 556 l 2,10,11
 127 556 127 556 127 487 c 2,12,-1
 127 224 l 1,13,-1
 257 358 l 2,14,15
 268 368 268 368 280 368 c 2,16,-1
 342 368 l 2,17,18
 347 368 347 368 347.5 365 c 128,-1,19
 348 362 348 362 346 360 c 2,20,-1
 224 234 l 1,21,-1
 363 9 l 2,22,23
 365 6 365 6 363.5 3 c 128,-1,24
 362 0 362 0 358 0 c 2,25,-1
 295 0 l 2,26,27
 282 0 282 0 276 11 c 2,28,-1
 173 181 l 1,29,-1
 127 135 l 1,0,-1
EndSplineSet
EndChar

StartChar: l
Encoding: 108 108 78
Width: 233
GlyphClass: 1
Flags: W
LayerCount: 2
Fore
SplineSet
145 -9 m 0,0,1
 102 -9 102 -9 77 18.5 c 128,-1,2
 52 46 52 46 52 106 c 2,3,-1
 52 547 l 2,4,5
 52 556 52 556 60 556 c 2,6,-1
 65 556 l 2,7,8
 126 556 126 556 126 487 c 2,9,-1
 126 111 l 2,10,11
 126 59 126 59 165 59 c 0,12,13
 181 59 181 59 192 65.5 c 128,-1,14
 203 72 203 72 213 83 c 0,15,16
 218 89 218 89 223 89 c 256,17,18
 228 89 228 89 230 85 c 128,-1,19
 232 81 232 81 232 76 c 0,20,21
 232 60 232 60 223.5 40 c 128,-1,22
 215 20 215 20 196 5.5 c 128,-1,23
 177 -9 177 -9 145 -9 c 0,0,1
EndSplineSet
EndChar

StartChar: m
Encoding: 109 109 79
Width: 693
GlyphClass: 1
Flags: W
LayerCount: 2
Fore
SplineSet
125 319 m 1,0,1
 140 342 140 342 168.5 359 c 128,-1,2
 197 376 197 376 237 376 c 0,3,4
 281 376 281 376 313 358 c 128,-1,5
 345 340 345 340 364 308 c 1,6,7
 382 334 382 334 413.5 355 c 128,-1,8
 445 376 445 376 492 376 c 0,9,10
 563 376 563 376 602.5 333 c 128,-1,11
 642 290 642 290 642 216 c 2,12,-1
 642 9 l 2,13,14
 642 0 642 0 634 0 c 2,15,-1
 576 0 l 2,16,17
 568 0 568 0 568 9 c 2,18,-1
 568 203 l 2,19,20
 568 256 568 256 544 281.5 c 128,-1,21
 520 307 520 307 479 307 c 0,22,23
 436 307 436 307 410.5 280.5 c 128,-1,24
 385 254 385 254 385 199 c 2,25,-1
 385 9 l 2,26,27
 385 0 385 0 377 0 c 2,28,-1
 318 0 l 2,29,30
 310 0 310 0 310 9 c 2,31,-1
 310 203 l 2,32,33
 310 256 310 256 286.5 281.5 c 128,-1,34
 263 307 263 307 222 307 c 0,35,36
 178 307 178 307 152.5 280.5 c 128,-1,37
 127 254 127 254 127 199 c 2,38,-1
 127 9 l 2,39,40
 127 0 127 0 120 0 c 2,41,-1
 61 0 l 2,42,43
 53 0 53 0 53 9 c 2,44,-1
 53 360 l 2,45,46
 53 368 53 368 61 368 c 2,47,-1
 66 368 l 2,48,49
 116 368 116 368 125 319 c 1,0,1
EndSplineSet
EndChar

StartChar: n
Encoding: 110 110 80
Width: 441
GlyphClass: 1
Flags: W
LayerCount: 2
Fore
SplineSet
124 318 m 1,0,1
 140 343 140 343 170 359.5 c 128,-1,2
 200 376 200 376 240 376 c 0,3,4
 310 376 310 376 350 333 c 128,-1,5
 390 290 390 290 390 216 c 2,6,-1
 390 9 l 2,7,8
 390 0 390 0 382 0 c 2,9,-1
 323 0 l 2,10,11
 315 0 315 0 315 9 c 2,12,-1
 315 202 l 2,13,14
 315 255 315 255 290 281 c 128,-1,15
 265 307 265 307 223 307 c 0,16,17
 178 307 178 307 152 280.5 c 128,-1,18
 126 254 126 254 126 198 c 2,19,-1
 126 9 l 2,20,21
 126 0 126 0 119 0 c 2,22,-1
 60 0 l 2,23,24
 52 0 52 0 52 9 c 2,25,-1
 52 359 l 2,26,27
 52 368 52 368 60 368 c 2,28,-1
 65 368 l 2,29,30
 88 368 88 368 104 355 c 128,-1,31
 120 342 120 342 124 318 c 1,0,1
EndSplineSet
EndChar

StartChar: o
Encoding: 111 111 81
Width: 447
GlyphClass: 1
Flags: W
LayerCount: 2
Fore
SplineSet
223 -9 m 256,0,1
 138 -9 138 -9 87.5 43.5 c 128,-1,2
 37 96 37 96 37 183 c 256,3,4
 37 270 37 270 87.5 323.5 c 128,-1,5
 138 377 138 377 222 377 c 0,6,7
 307 377 307 377 358 323.5 c 128,-1,8
 409 270 409 270 409 184 c 0,9,10
 409 97 409 97 358.5 44 c 128,-1,11
 308 -9 308 -9 223 -9 c 256,0,1
222 62 m 0,12,13
 269 62 269 62 300.5 92 c 128,-1,14
 332 122 332 122 332 183 c 0,15,16
 332 242 332 242 300.5 274 c 128,-1,17
 269 306 269 306 222 306 c 0,18,19
 174 306 174 306 144 274 c 128,-1,20
 114 242 114 242 114 183 c 256,21,22
 114 124 114 124 144 93 c 128,-1,23
 174 62 174 62 222 62 c 0,12,13
EndSplineSet
Substitution2: "Single Substitution lookup 2 subtable" ordmasculine
EndChar

StartChar: p
Encoding: 112 112 82
Width: 459
GlyphClass: 1
Flags: W
LayerCount: 2
Fore
SplineSet
127 49 m 1,0,-1
 127 -151 l 2,1,2
 127 -160 127 -160 120 -160 c 2,3,-1
 61 -160 l 2,4,5
 53 -160 53 -160 53 -151 c 2,6,-1
 53 360 l 2,7,8
 53 368 53 368 61 368 c 2,9,-1
 66 368 l 2,10,11
 93 368 93 368 107 352.5 c 128,-1,12
 121 337 121 337 125 316 c 1,13,14
 142 342 142 342 173 359.5 c 128,-1,15
 204 377 204 377 247 377 c 0,16,17
 330 377 330 377 376 322.5 c 128,-1,18
 422 268 422 268 422 184 c 0,19,20
 422 131 422 131 402 87 c 128,-1,21
 382 43 382 43 344 17 c 128,-1,22
 306 -9 306 -9 252 -9 c 0,23,24
 213 -9 213 -9 180 5 c 128,-1,25
 147 19 147 19 127 49 c 1,0,-1
238 61 m 0,26,27
 262 61 262 61 287 73 c 128,-1,28
 312 85 312 85 328.5 112 c 128,-1,29
 345 139 345 139 345 184 c 0,30,31
 345 246 345 246 312.5 276 c 128,-1,32
 280 306 280 306 236 306 c 0,33,34
 213 306 213 306 187.5 296 c 128,-1,35
 162 286 162 286 144.5 259.5 c 128,-1,36
 127 233 127 233 127 184 c 0,37,38
 127 136 127 136 145 109 c 128,-1,39
 163 82 163 82 189 71.5 c 128,-1,40
 215 61 215 61 238 61 c 0,26,27
EndSplineSet
EndChar

StartChar: q
Encoding: 113 113 83
Width: 459
GlyphClass: 1
Flags: W
LayerCount: 2
Fore
SplineSet
332 52 m 1,0,1
 311 21 311 21 279.5 6 c 128,-1,2
 248 -9 248 -9 210 -9 c 0,3,4
 156 -9 156 -9 117.5 17 c 128,-1,5
 79 43 79 43 58.5 87 c 128,-1,6
 38 131 38 131 38 184 c 0,7,8
 38 240 38 240 60 283.5 c 128,-1,9
 82 327 82 327 121.5 352 c 128,-1,10
 161 377 161 377 213 377 c 0,11,12
 255 377 255 377 286.5 361 c 128,-1,13
 318 345 318 345 337 319 c 1,14,15
 341 345 341 345 356 356.5 c 128,-1,16
 371 368 371 368 394 368 c 2,17,-1
 399 368 l 2,18,19
 407 368 407 368 407 360 c 2,20,-1
 407 -151 l 2,21,22
 407 -160 407 -160 399 -160 c 2,23,-1
 340 -160 l 2,24,25
 332 -160 332 -160 332 -151 c 2,26,-1
 332 52 l 1,0,1
221 61 m 0,27,28
 246 61 246 61 271.5 71.5 c 128,-1,29
 297 82 297 82 314.5 109 c 128,-1,30
 332 136 332 136 332 184 c 0,31,32
 332 233 332 233 314.5 259.5 c 128,-1,33
 297 286 297 286 272 296 c 128,-1,34
 247 306 247 306 224 306 c 0,35,36
 181 306 181 306 148 276 c 128,-1,37
 115 246 115 246 115 184 c 0,38,39
 115 139 115 139 131.5 112 c 128,-1,40
 148 85 148 85 172.5 73 c 128,-1,41
 197 61 197 61 221 61 c 0,27,28
EndSplineSet
EndChar

StartChar: r
Encoding: 114 114 84
Width: 278
GlyphClass: 1
Flags: W
LayerCount: 2
Fore
SplineSet
125 315 m 1,0,1
 143 346 143 346 168 357 c 128,-1,2
 193 368 193 368 233 368 c 2,3,-1
 244 368 l 2,4,5
 252 368 252 368 252 360 c 2,6,-1
 252 305 l 2,7,8
 252 296 252 296 244 296 c 2,9,-1
 220 296 l 2,10,11
 167 296 167 296 147 269 c 128,-1,12
 127 242 127 242 127 184 c 2,13,-1
 127 9 l 2,14,15
 127 0 127 0 120 0 c 2,16,-1
 61 0 l 2,17,18
 53 0 53 0 53 9 c 2,19,-1
 53 360 l 2,20,21
 53 368 53 368 61 368 c 2,22,-1
 66 368 l 2,23,24
 91 368 91 368 106.5 354.5 c 128,-1,25
 122 341 122 341 125 315 c 1,0,1
EndSplineSet
EndChar

StartChar: s
Encoding: 115 115 85
Width: 317
GlyphClass: 1
Flags: W
LayerCount: 2
Fore
SplineSet
259 288 m 0,0,1
 235 301 235 301 213 307 c 128,-1,2
 191 313 191 313 165 313 c 256,3,4
 139 313 139 313 122.5 303 c 128,-1,5
 106 293 106 293 106 273 c 0,6,7
 106 254 106 254 125 242 c 128,-1,8
 144 230 144 230 172 220 c 128,-1,9
 200 210 200 210 228.5 197 c 128,-1,10
 257 184 257 184 276 163.5 c 128,-1,11
 295 143 295 143 295 108 c 0,12,13
 295 55 295 55 257.5 22 c 128,-1,14
 220 -11 220 -11 155 -11 c 0,15,16
 114 -11 114 -11 84 3.5 c 128,-1,17
 54 18 54 18 38 40 c 128,-1,18
 22 62 22 62 22 84 c 0,19,20
 22 101 22 101 33 101 c 0,21,22
 37 101 37 101 42 96 c 0,23,24
 61 79 61 79 86 66 c 128,-1,25
 111 53 111 53 148 53 c 0,26,27
 184 53 184 53 202 66 c 128,-1,28
 220 79 220 79 220 101 c 0,29,30
 220 121 220 121 201 133 c 128,-1,31
 182 145 182 145 153.5 154.5 c 128,-1,32
 125 164 125 164 96.5 177 c 128,-1,33
 68 190 68 190 49 211 c 128,-1,34
 30 232 30 232 30 267 c 0,35,36
 30 320 30 320 70 348.5 c 128,-1,37
 110 377 110 377 166 377 c 0,38,39
 215 377 215 377 251 359 c 0,40,41
 271 351 271 351 277 338.5 c 128,-1,42
 283 326 283 326 278 305 c 2,43,-1
 275 292 l 2,44,45
 274 285 274 285 268 285 c 0,46,47
 266 285 266 285 263.5 286 c 128,-1,48
 261 287 261 287 259 288 c 0,0,1
EndSplineSet
EndChar

StartChar: t
Encoding: 116 116 86
Width: 276
GlyphClass: 1
Flags: W
LayerCount: 2
Fore
SplineSet
92 302 m 1,0,-1
 24 302 l 2,1,2
 16 302 16 302 16 310 c 2,3,-1
 16 360 l 2,4,5
 16 368 16 368 24 368 c 2,6,-1
 92 368 l 1,7,-1
 92 492 l 2,8,9
 92 501 92 501 99 501 c 2,10,-1
 104 501 l 2,11,12
 133 501 133 501 149.5 483.5 c 128,-1,13
 166 466 166 466 166 431 c 2,14,-1
 166 368 l 1,15,-1
 243 368 l 2,16,17
 250 368 250 368 250 360 c 2,18,-1
 250 310 l 2,19,20
 250 302 250 302 243 302 c 2,21,-1
 166 302 l 1,22,-1
 166 9 l 2,23,24
 166 0 166 0 158 0 c 2,25,-1
 99 0 l 2,26,27
 92 0 92 0 92 9 c 2,28,-1
 92 302 l 1,0,-1
EndSplineSet
EndChar

StartChar: u
Encoding: 117 117 87
Width: 426
GlyphClass: 1
Flags: W
LayerCount: 2
Fore
SplineSet
213 -10 m 256,0,1
 131 -10 131 -10 90 38.5 c 128,-1,2
 49 87 49 87 49 172 c 2,3,-1
 49 359 l 2,4,5
 49 368 49 368 57 368 c 2,6,-1
 62 368 l 2,7,8
 123 368 123 368 123 299 c 2,9,-1
 123 164 l 2,10,11
 123 111 123 111 147.5 85 c 128,-1,12
 172 59 172 59 213 59 c 256,13,14
 254 59 254 59 278.5 82.5 c 128,-1,15
 303 106 303 106 303 161 c 2,16,-1
 303 359 l 2,17,18
 303 368 303 368 311 368 c 2,19,-1
 316 368 l 2,20,21
 378 368 378 368 378 299 c 2,22,-1
 378 167 l 2,23,24
 378 85 378 85 336.5 37.5 c 128,-1,25
 295 -10 295 -10 213 -10 c 256,0,1
EndSplineSet
EndChar

StartChar: v
Encoding: 118 118 88
Width: 359
GlyphClass: 1
Flags: W
LayerCount: 2
Fore
SplineSet
181 82 m 1,0,-1
 269 357 l 2,1,2
 273 368 273 368 285 368 c 2,3,-1
 340 368 l 2,4,5
 347 368 347 368 345 360 c 2,6,-1
 223 8 l 2,7,8
 220 0 220 0 213 0 c 2,9,-1
 149 0 l 2,10,11
 141 0 141 0 137 8 c 2,12,-1
 15 360 l 2,13,14
 12 368 12 368 20 368 c 2,15,-1
 36 368 l 2,16,17
 66 368 66 368 82.5 355.5 c 128,-1,18
 99 343 99 343 110 306 c 2,19,-1
 181 82 l 1,0,-1
EndSplineSet
EndChar

StartChar: w
Encoding: 119 119 89
Width: 574
GlyphClass: 1
Flags: W
LayerCount: 2
Fore
SplineSet
170 96 m 1,0,-1
 250 359 l 2,1,2
 253 368 253 368 262 368 c 2,3,-1
 272 368 l 2,4,5
 302 368 302 368 317.5 355 c 128,-1,6
 333 342 333 342 344 306 c 2,7,-1
 409 96 l 1,8,-1
 484 357 l 2,9,10
 488 368 488 368 500 368 c 2,11,-1
 550 368 l 2,12,13
 559 368 559 368 556 360 c 2,14,-1
 447 8 l 2,15,16
 446 4 446 4 444 2 c 128,-1,17
 442 0 442 0 436 0 c 2,18,-1
 381 0 l 2,19,20
 373 0 373 0 370 8 c 2,21,-1
 287 269 l 1,22,-1
 206 8 l 2,23,24
 203 0 203 0 196 0 c 2,25,-1
 139 0 l 2,26,27
 134 0 134 0 131.5 2 c 128,-1,28
 129 4 129 4 127 8 c 2,29,-1
 19 360 l 2,30,31
 17 368 17 368 25 368 c 2,32,-1
 38 368 l 2,33,34
 68 368 68 368 85 355 c 128,-1,35
 102 342 102 342 111 306 c 2,36,-1
 170 96 l 1,0,-1
EndSplineSet
EndChar

StartChar: x
Encoding: 120 120 90
Width: 363
GlyphClass: 1
Flags: W
LayerCount: 2
Fore
SplineSet
179 149 m 1,0,-1
 93 11 l 2,1,2
 86 0 86 0 75 0 c 2,3,-1
 18 0 l 2,4,5
 14 0 14 0 13 3 c 128,-1,6
 12 6 12 6 14 9 c 2,7,-1
 133 194 l 1,8,-1
 29 360 l 2,9,10
 23 368 23 368 33 368 c 2,11,-1
 59 368 l 2,12,13
 88 368 88 368 103.5 356.5 c 128,-1,14
 119 345 119 345 138 313 c 2,15,-1
 181 247 l 1,16,-1
 249 357 l 2,17,18
 256 368 256 368 270 368 c 2,19,-1
 324 368 l 2,20,21
 332 368 332 368 328 360 c 2,22,-1
 228 199 l 1,23,-1
 349 9 l 2,24,25
 351 6 351 6 350 3 c 128,-1,26
 349 0 349 0 345 0 c 2,27,-1
 286 0 l 2,28,29
 273 0 273 0 267 11 c 2,30,-1
 179 149 l 1,0,-1
EndSplineSet
EndChar

StartChar: y
Encoding: 121 121 91
Width: 361
GlyphClass: 1
Flags: W
LayerCount: 2
Fore
SplineSet
143 -7 m 1,0,-1
 15 359 l 2,1,2
 13 368 13 368 20 368 c 2,3,-1
 37 368 l 2,4,5
 68 368 68 368 83 355 c 128,-1,6
 98 342 98 342 111 306 c 2,7,-1
 183 88 l 1,8,-1
 271 357 l 2,9,10
 275 368 275 368 287 368 c 2,11,-1
 342 368 l 2,12,13
 349 368 349 368 347 359 c 2,14,-1
 216 -9 l 2,15,16
 199 -58 199 -58 181 -94.5 c 128,-1,17
 163 -131 163 -131 138.5 -151 c 128,-1,18
 114 -171 114 -171 76 -171 c 256,19,20
 38 -171 38 -171 15 -146 c 128,-1,21
 -8 -121 -8 -121 -8 -93 c 0,22,23
 -8 -88 -8 -88 -5.5 -83 c 128,-1,24
 -3 -78 -3 -78 2 -78 c 256,25,26
 7 -78 7 -78 11 -82 c 0,27,28
 25 -93 25 -93 37 -99.5 c 128,-1,29
 49 -106 49 -106 63 -106 c 0,30,31
 90 -106 90 -106 106 -85.5 c 128,-1,32
 122 -65 122 -65 143 -7 c 1,0,-1
EndSplineSet
EndChar

StartChar: z
Encoding: 122 122 92
Width: 337
GlyphClass: 1
Flags: W
LayerCount: 2
Fore
SplineSet
124 66 m 1,0,-1
 297 66 l 2,1,2
 304 66 304 66 304 57 c 2,3,-1
 304 9 l 2,4,5
 304 0 304 0 297 0 c 2,6,-1
 39 0 l 2,7,8
 31 0 31 0 31 9 c 2,9,-1
 31 46 l 2,10,11
 31 55 31 55 34 60.5 c 128,-1,12
 37 66 37 66 44 76 c 2,13,-1
 224 302 l 1,14,-1
 44 302 l 2,15,16
 36 302 36 302 36 310 c 2,17,-1
 36 359 l 2,18,19
 36 368 36 368 44 368 c 2,20,-1
 251 368 l 2,21,22
 280 368 280 368 292 356 c 128,-1,23
 304 344 304 344 304 313 c 0,24,25
 304 300 304 300 301 292 c 128,-1,26
 298 284 298 284 290 275 c 2,27,-1
 124 66 l 1,0,-1
EndSplineSet
EndChar

StartChar: braceleft
Encoding: 123 123 93
Width: 346
GlyphClass: 1
Flags: W
LayerCount: 2
Fore
SplineSet
278 -144 m 2,0,-1
 172 -144 l 2,1,2
 143 -144 143 -144 125 -127 c 128,-1,3
 107 -110 107 -110 107 -82 c 2,4,-1
 107 196 l 2,5,6
 107 224 107 224 94.5 234 c 128,-1,7
 82 244 82 244 68 245 c 0,8,9
 56 247 56 247 56 258 c 2,10,-1
 56 294 l 2,11,12
 56 305 56 305 68 307 c 0,13,14
 82 309 82 309 94.5 319 c 128,-1,15
 107 329 107 329 107 357 c 2,16,-1
 107 633 l 2,17,18
 107 662 107 662 125 679 c 128,-1,19
 143 696 143 696 172 696 c 2,20,-1
 278 696 l 2,21,22
 291 696 291 696 291 683 c 2,23,-1
 291 678 l 2,24,25
 291 656 291 656 277 644 c 128,-1,26
 263 632 263 632 240 632 c 2,27,-1
 194 632 l 2,28,29
 177 632 177 632 177 614 c 2,30,-1
 177 352 l 2,31,32
 177 319 177 319 167.5 302 c 128,-1,33
 158 285 158 285 147 276 c 1,34,35
 158 267 158 267 167.5 250 c 128,-1,36
 177 233 177 233 177 199 c 2,37,-1
 177 -62 l 2,38,39
 177 -80 177 -80 194 -80 c 2,40,-1
 240 -80 l 2,41,42
 263 -80 263 -80 277 -92.5 c 128,-1,43
 291 -105 291 -105 291 -126 c 2,44,-1
 291 -131 l 2,45,46
 291 -144 291 -144 278 -144 c 2,0,-1
EndSplineSet
EndChar

StartChar: bar
Encoding: 124 124 94
Width: 190
GlyphClass: 1
Flags: W
LayerCount: 2
Fore
SplineSet
70 -149 m 2,0,1
 62 -149 62 -149 62 -140 c 2,2,-1
 62 558 l 2,3,4
 62 567 62 567 70 567 c 0,5,6
 97 567 97 567 113 550 c 128,-1,7
 129 533 129 533 129 498 c 2,8,-1
 129 -140 l 2,9,10
 129 -149 129 -149 120 -149 c 2,11,-1
 70 -149 l 2,0,1
EndSplineSet
EndChar

StartChar: braceright
Encoding: 125 125 95
Width: 346
GlyphClass: 1
Flags: W
LayerCount: 2
Fore
SplineSet
175 -144 m 2,0,-1
 69 -144 l 2,1,2
 56 -144 56 -144 56 -131 c 2,3,-1
 56 -126 l 2,4,5
 56 -105 56 -105 70 -92.5 c 128,-1,6
 84 -80 84 -80 107 -80 c 2,7,-1
 153 -80 l 2,8,9
 170 -80 170 -80 170 -62 c 2,10,-1
 170 199 l 2,11,12
 170 233 170 233 180 250 c 128,-1,13
 190 267 190 267 200 276 c 1,14,15
 190 285 190 285 180 302 c 128,-1,16
 170 319 170 319 170 352 c 2,17,-1
 170 614 l 2,18,19
 170 632 170 632 153 632 c 2,20,-1
 107 632 l 2,21,22
 84 632 84 632 70 644 c 128,-1,23
 56 656 56 656 56 678 c 2,24,-1
 56 683 l 2,25,26
 56 696 56 696 69 696 c 2,27,-1
 175 696 l 2,28,29
 204 696 204 696 222 679 c 128,-1,30
 240 662 240 662 240 633 c 2,31,-1
 240 357 l 2,32,33
 240 329 240 329 253 319 c 128,-1,34
 266 309 266 309 279 307 c 0,35,36
 291 305 291 305 291 294 c 2,37,-1
 291 258 l 2,38,39
 291 247 291 247 279 245 c 0,40,41
 266 244 266 244 253 234 c 128,-1,42
 240 224 240 224 240 196 c 2,43,-1
 240 -82 l 2,44,45
 240 -110 240 -110 222 -127 c 128,-1,46
 204 -144 204 -144 175 -144 c 2,0,-1
EndSplineSet
PairPos2: "'kern' Horizontal Kerning lookup 2 per glyph data 1" uni0698 dx=-33 dy=0 dh=-33 dv=0 dx=0 dy=0 dh=0 dv=0
PairPos2: "'kern' Horizontal Kerning lookup 2 per glyph data 1" uni0695 dx=-18 dy=0 dh=-18 dv=0 dx=0 dy=0 dh=0 dv=0
PairPos2: "'kern' Horizontal Kerning lookup 2 per glyph data 1" uni0694 dx=-18 dy=0 dh=-18 dv=0 dx=0 dy=0 dh=0 dv=0
PairPos2: "'kern' Horizontal Kerning lookup 2 per glyph data 1" uni0691 dx=-11 dy=0 dh=-11 dv=0 dx=0 dy=0 dh=0 dv=0
PairPos2: "'kern' Horizontal Kerning lookup 2 per glyph data 1" uni0671 dx=28 dy=0 dh=28 dv=0 dx=0 dy=0 dh=0 dv=0
PairPos2: "'kern' Horizontal Kerning lookup 2 per glyph data 1" uni0632 dx=-33 dy=0 dh=-33 dv=0 dx=0 dy=0 dh=0 dv=0
PairPos2: "'kern' Horizontal Kerning lookup 2 per glyph data 1" uni0631 dx=-18 dy=0 dh=-18 dv=0 dx=0 dy=0 dh=0 dv=0
PairPos2: "'kern' Horizontal Kerning lookup 2 per glyph data 1" uni0627 dx=-18 dy=0 dh=-18 dv=0 dx=0 dy=0 dh=0 dv=0
PairPos2: "'kern' Horizontal Kerning lookup 2 per glyph data 1" uni0625 dx=12 dy=0 dh=12 dv=0 dx=0 dy=0 dh=0 dv=0
PairPos2: "'kern' Horizontal Kerning lookup 2 per glyph data 1" uni0623 dx=17 dy=0 dh=17 dv=0 dx=0 dy=0 dh=0 dv=0
PairPos2: "'kern' Horizontal Kerning lookup 2 per glyph data 1" uni0622 dx=26 dy=0 dh=26 dv=0 dx=0 dy=0 dh=0 dv=0
EndChar

StartChar: asciitilde
Encoding: 126 126 96
Width: 398
GlyphClass: 1
Flags: W
LayerCount: 2
Fore
SplineSet
347 315 m 0,0,1
 355 321 355 321 355 312 c 2,2,-1
 355 271 l 2,3,4
 355 261 355 261 354 255 c 128,-1,5
 353 249 353 249 346 243 c 0,6,7
 330 229 330 229 313 222.5 c 128,-1,8
 296 216 296 216 271 216 c 0,9,10
 243 216 243 216 219.5 224 c 128,-1,11
 196 232 196 232 174.5 240 c 128,-1,12
 153 248 153 248 129 248 c 256,13,14
 105 248 105 248 88.5 242 c 128,-1,15
 72 236 72 236 52 217 c 0,16,17
 50 215 50 215 46.5 215 c 128,-1,18
 43 215 43 215 43 219 c 2,19,-1
 43 262 l 2,20,21
 43 280 43 280 52 288 c 0,22,23
 87 316 87 316 129 316 c 0,24,25
 156 316 156 316 179 308 c 128,-1,26
 202 300 202 300 224.5 291.5 c 128,-1,27
 247 283 247 283 271 283 c 0,28,29
 294 283 294 283 310.5 289.5 c 128,-1,30
 327 296 327 296 347 315 c 0,0,1
EndSplineSet
EndChar

StartChar: exclamdown
Encoding: 161 161 97
Width: 165
GlyphClass: 1
Flags: W
LayerCount: 2
Fore
SplineSet
79 266 m 0,0,1
 57 266 57 266 41.5 283 c 128,-1,2
 26 300 26 300 26 322 c 0,3,4
 26 345 26 345 41.5 361 c 128,-1,5
 57 377 57 377 79 377 c 0,6,7
 102 377 102 377 118 361 c 128,-1,8
 134 345 134 345 134 322 c 0,9,10
 134 300 134 300 118 283 c 128,-1,11
 102 266 102 266 79 266 c 0,0,1
111 -189 m 2,12,-1
 49 -189 l 2,13,14
 42 -189 42 -189 42 -180 c 2,15,-1
 49 204 l 2,16,17
 49 212 49 212 57 212 c 0,18,19
 112 212 112 212 113 142 c 2,20,-1
 119 -180 l 2,21,22
 119 -189 119 -189 111 -189 c 2,12,-1
EndSplineSet
EndChar

StartChar: cent
Encoding: 162 162 98
Width: 363
GlyphClass: 1
Flags: W
LayerCount: 2
Fore
SplineSet
243 -7 m 1,0,-1
 243 -59 l 2,1,2
 243 -68 243 -68 235 -68 c 2,3,-1
 200 -68 l 2,4,5
 191 -68 191 -68 191 -59 c 2,6,-1
 191 -9 l 1,7,8
 121 -1 121 -1 78.5 49.5 c 128,-1,9
 36 100 36 100 36 183 c 0,10,11
 36 263 36 263 79 315 c 128,-1,12
 122 367 122 367 191 374 c 1,13,-1
 191 429 l 2,14,15
 191 438 191 438 200 438 c 2,16,-1
 235 438 l 2,17,18
 243 438 243 438 243 429 c 2,19,-1
 243 376 l 1,20,21
 277 373 277 373 302 362 c 0,22,23
 322 354 322 354 328 340.5 c 128,-1,24
 334 327 334 327 329 307 c 2,25,-1
 325 289 l 2,26,27
 324 282 324 282 318 282 c 0,28,29
 316 282 316 282 312 284 c 0,30,31
 294 294 294 294 278.5 299.5 c 128,-1,32
 263 305 263 305 243 307 c 1,33,-1
 243 57 l 1,34,35
 271 59 271 59 289.5 69.5 c 128,-1,36
 308 80 308 80 320 92 c 0,37,38
 327 99 327 99 333 99 c 0,39,40
 342 99 342 99 342 84 c 0,41,42
 342 58 342 58 317.5 29.5 c 128,-1,43
 293 1 293 1 243 -7 c 1,0,-1
191 61 m 1,44,-1
 191 304 l 1,45,46
 156 295 156 295 134 263.5 c 128,-1,47
 112 232 112 232 112 182 c 0,48,49
 112 133 112 133 132 101.5 c 128,-1,50
 152 70 152 70 191 61 c 1,44,-1
EndSplineSet
EndChar

StartChar: sterling
Encoding: 163 163 99
Width: 471
GlyphClass: 1
Flags: W
LayerCount: 2
Fore
SplineSet
209 69 m 1,0,-1
 386 69 l 2,1,2
 431 69 431 69 431 26 c 2,3,-1
 431 11 l 2,4,5
 431 0 431 0 421 0 c 2,6,-1
 54 0 l 2,7,8
 46 0 46 0 46 9 c 2,9,-1
 46 61 l 2,10,11
 46 69 46 69 54 69 c 2,12,-1
 138 69 l 1,13,14
 147 91 147 91 157.5 124.5 c 128,-1,15
 168 158 168 158 168 193 c 0,16,17
 168 218 168 218 152 249 c 1,18,-1
 54 249 l 2,19,20
 46 249 46 249 46 258 c 2,21,-1
 46 310 l 2,22,23
 46 319 46 319 54 319 c 2,24,-1
 120 319 l 1,25,26
 107 342 107 342 100.5 363.5 c 128,-1,27
 94 385 94 385 94 412 c 0,28,29
 94 487 94 487 143.5 527 c 128,-1,30
 193 567 193 567 270 567 c 0,31,32
 309 567 309 567 336 559.5 c 128,-1,33
 363 552 363 552 389 539 c 0,34,35
 415 529 415 529 424.5 515 c 128,-1,36
 434 501 434 501 426 480 c 2,37,-1
 419 461 l 2,38,39
 416 452 416 452 411 452 c 256,40,41
 406 452 406 452 397 458 c 0,42,43
 366 478 366 478 336.5 488 c 128,-1,44
 307 498 307 498 273 498 c 0,45,46
 227 498 227 498 198 475 c 128,-1,47
 169 452 169 452 169 411 c 0,48,49
 169 386 169 386 177.5 365 c 128,-1,50
 186 344 186 344 198 319 c 1,51,-1
 337 319 l 2,52,53
 381 319 381 319 381 276 c 2,54,-1
 381 261 l 2,55,56
 381 249 381 249 370 249 c 2,57,-1
 228 249 l 1,58,59
 233 234 233 234 236.5 221.5 c 128,-1,60
 240 209 240 209 240 193 c 0,61,62
 240 156 240 156 230 125 c 128,-1,63
 220 94 220 94 209 69 c 1,0,-1
EndSplineSet
EndChar

StartChar: yen
Encoding: 165 165 100
Width: 472
GlyphClass: 1
Flags: W
LayerCount: 2
Fore
SplineSet
199 128 m 1,0,-1
 53 128 l 2,1,2
 45 128 45 128 45 137 c 2,3,-1
 45 178 l 2,4,5
 45 187 45 187 53 187 c 2,6,-1
 199 187 l 1,7,-1
 199 213 l 1,8,-1
 178 251 l 1,9,-1
 53 251 l 2,10,11
 45 251 45 251 45 259 c 2,12,-1
 45 301 l 2,13,14
 45 309 45 309 53 309 c 2,15,-1
 146 309 l 1,16,-1
 18 547 l 2,17,18
 14 556 14 556 24 556 c 2,19,-1
 52 556 l 2,20,21
 78 556 78 556 95 544.5 c 128,-1,22
 112 533 112 533 125 506 c 2,23,-1
 239 292 l 1,24,-1
 373 544 l 2,25,26
 379 556 379 556 392 556 c 2,27,-1
 448 556 l 2,28,29
 462 556 462 556 455 544 c 2,30,-1
 327 309 l 1,31,-1
 417 309 l 2,32,33
 424 309 424 309 424 301 c 2,34,-1
 424 259 l 2,35,36
 424 251 424 251 417 251 c 2,37,-1
 296 251 l 1,38,-1
 274 214 l 1,39,-1
 274 187 l 1,40,-1
 417 187 l 2,41,42
 424 187 424 187 424 178 c 2,43,-1
 424 137 l 2,44,45
 424 128 424 128 417 128 c 2,46,-1
 274 128 l 1,47,-1
 274 9 l 2,48,49
 274 0 274 0 267 0 c 2,50,-1
 208 0 l 2,51,52
 199 0 199 0 199 9 c 2,53,-1
 199 128 l 1,0,-1
EndSplineSet
EndChar

StartChar: brokenbar
Encoding: 166 166 101
Width: 190
GlyphClass: 1
Flags: W
LayerCount: 2
Fore
SplineSet
70 263 m 2,0,1
 62 263 62 263 62 272 c 2,2,-1
 62 558 l 2,3,4
 62 567 62 567 70 567 c 0,5,6
 97 567 97 567 113 550 c 128,-1,7
 129 533 129 533 129 498 c 2,8,-1
 129 272 l 2,9,10
 129 263 129 263 120 263 c 2,11,-1
 70 263 l 2,0,1
70 -149 m 2,12,13
 62 -149 62 -149 62 -140 c 2,14,-1
 62 145 l 2,15,16
 62 154 62 154 70 154 c 2,17,-1
 120 154 l 2,18,19
 129 154 129 154 129 145 c 2,20,-1
 129 -140 l 2,21,22
 129 -149 129 -149 120 -149 c 2,23,-1
 70 -149 l 2,12,13
EndSplineSet
EndChar

StartChar: section
Encoding: 167 167 102
Width: 421
GlyphClass: 1
Flags: W
LayerCount: 2
Fore
SplineSet
80 15 m 0,0,1
 101 -5 101 -5 130 -21.5 c 128,-1,2
 159 -38 159 -38 196 -38 c 0,3,4
 234 -38 234 -38 255 -21 c 128,-1,5
 276 -4 276 -4 276 21 c 0,6,7
 276 47 276 47 253.5 66 c 128,-1,8
 231 85 231 85 198.5 102.5 c 128,-1,9
 166 120 166 120 133 139.5 c 128,-1,10
 100 159 100 159 77.5 185 c 128,-1,11
 55 211 55 211 55 248 c 0,12,13
 55 278 55 278 68 300.5 c 128,-1,14
 81 323 81 323 100.5 340 c 128,-1,15
 120 357 120 357 139 368 c 1,16,17
 117 385 117 385 101 405.5 c 128,-1,18
 85 426 85 426 85 457 c 0,19,20
 85 508 85 508 123.5 538 c 128,-1,21
 162 568 162 568 221 568 c 0,22,23
 250 568 250 568 273 562 c 128,-1,24
 296 556 296 556 311 549 c 0,25,26
 332 538 332 538 337 525 c 128,-1,27
 342 512 342 512 336 494 c 2,28,-1
 332 482 l 2,29,30
 329 475 329 475 326 475 c 256,31,32
 323 475 323 475 317 479 c 0,33,34
 273 507 273 507 228 507 c 0,35,36
 161 507 161 507 161 460 c 0,37,38
 161 437 161 437 182 420.5 c 128,-1,39
 203 404 203 404 234.5 389 c 128,-1,40
 266 374 266 374 297 356 c 128,-1,41
 328 338 328 338 349 313.5 c 128,-1,42
 370 289 370 289 370 252 c 0,43,44
 370 205 370 205 345 173.5 c 128,-1,45
 320 142 320 142 292 123 c 1,46,47
 318 105 318 105 335 83 c 128,-1,48
 352 61 352 61 352 29 c 0,49,50
 352 -24 352 -24 312.5 -61 c 128,-1,51
 273 -98 273 -98 203 -98 c 0,52,53
 168 -98 168 -98 137.5 -87.5 c 128,-1,54
 107 -77 107 -77 87 -62 c 0,55,56
 69 -48 69 -48 62.5 -33.5 c 128,-1,57
 56 -19 56 -19 63 -1 c 2,58,-1
 68 11 l 2,59,60
 72 22 72 22 80 15 c 0,0,1
242 154 m 1,61,62
 262 169 262 169 279.5 190.5 c 128,-1,63
 297 212 297 212 297 243 c 0,64,65
 297 265 297 265 279.5 281.5 c 128,-1,66
 262 298 262 298 236.5 311.5 c 128,-1,67
 211 325 211 325 185 338 c 1,68,69
 164 325 164 325 145.5 305 c 128,-1,70
 127 285 127 285 127 257 c 0,71,72
 127 233 127 233 143.5 215.5 c 128,-1,73
 160 198 160 198 186.5 183.5 c 128,-1,74
 213 169 213 169 242 154 c 1,61,62
EndSplineSet
EndChar

StartChar: dieresis
Encoding: 168 168 103
Width: 226
GlyphClass: 1
Flags: W
LayerCount: 2
Fore
SplineSet
0 467 m 0,0,1
 0 487 0 487 13 500 c 128,-1,2
 26 513 26 513 44 513 c 0,3,4
 63 513 63 513 76 500 c 128,-1,5
 89 487 89 487 89 467 c 0,6,7
 89 448 89 448 76 435 c 128,-1,8
 63 422 63 422 44 422 c 0,9,10
 26 422 26 422 13 435 c 128,-1,11
 0 448 0 448 0 467 c 0,0,1
136 467 m 0,12,13
 136 487 136 487 149 500 c 128,-1,14
 162 513 162 513 181 513 c 256,15,16
 200 513 200 513 213 500 c 128,-1,17
 226 487 226 487 226 467 c 0,18,19
 226 448 226 448 213 435 c 128,-1,20
 200 422 200 422 181 422 c 256,21,22
 162 422 162 422 149 435 c 128,-1,23
 136 448 136 448 136 467 c 0,12,13
EndSplineSet
EndChar

StartChar: copyright
Encoding: 169 169 104
Width: 505
GlyphClass: 1
Flags: W
LayerCount: 2
Fore
SplineSet
30 340 m 256,0,1
 30 407 30 407 57.5 457 c 128,-1,2
 85 507 85 507 135 535 c 128,-1,3
 185 563 185 563 252 563 c 256,4,5
 319 563 319 563 369 535 c 128,-1,6
 419 507 419 507 447 457 c 128,-1,7
 475 407 475 407 475 340 c 256,8,9
 475 273 475 273 447 222.5 c 128,-1,10
 419 172 419 172 369 144 c 128,-1,11
 319 116 319 116 252 116 c 256,12,13
 185 116 185 116 135 144 c 128,-1,14
 85 172 85 172 57.5 222.5 c 128,-1,15
 30 273 30 273 30 340 c 256,0,1
252 159 m 0,16,17
 334 159 334 159 382.5 208.5 c 128,-1,18
 431 258 431 258 431 340 c 0,19,20
 431 421 431 421 382.5 471 c 128,-1,21
 334 521 334 521 252 521 c 0,22,23
 171 521 171 521 122 471 c 128,-1,24
 73 421 73 421 73 340 c 0,25,26
 73 258 73 258 122 208.5 c 128,-1,27
 171 159 171 159 252 159 c 0,16,17
320 406 m 0,28,29
 294 423 294 423 262 423 c 256,30,31
 230 423 230 423 210.5 401.5 c 128,-1,32
 191 380 191 380 191 339 c 0,33,34
 191 299 191 299 210.5 278 c 128,-1,35
 230 257 230 257 262 257 c 0,36,37
 301 257 301 257 327 289 c 0,38,39
 330 293 330 293 334 293 c 0,40,41
 340 293 340 293 340 285 c 0,42,43
 339 264 339 264 316.5 241.5 c 128,-1,44
 294 219 294 219 256 219 c 0,45,46
 207 219 207 219 176.5 252 c 128,-1,47
 146 285 146 285 146 340 c 0,48,49
 146 397 146 397 180 430 c 128,-1,50
 214 463 214 463 262 463 c 0,51,52
 279 463 279 463 291.5 459.5 c 128,-1,53
 304 456 304 456 316 451 c 0,54,55
 335 443 335 443 333 431 c 2,56,-1
 331 412 l 2,57,58
 330 401 330 401 320 406 c 0,28,29
EndSplineSet
EndChar

StartChar: ordfeminine
Encoding: 170 170 105
Width: 344
GlyphClass: 1
Flags: W
LayerCount: 2
Fore
SplineSet
257 300 m 1,0,1
 241 276 241 276 215 264.5 c 128,-1,2
 189 253 189 253 158 253 c 0,3,4
 114 253 114 253 82.5 274 c 128,-1,5
 51 295 51 295 34.5 329.5 c 128,-1,6
 18 364 18 364 18 406 c 0,7,8
 18 450 18 450 36 484 c 128,-1,9
 54 518 54 518 86.5 538 c 128,-1,10
 119 558 119 558 160 558 c 0,11,12
 195 558 195 558 220.5 545.5 c 128,-1,13
 246 533 246 533 262 513 c 1,14,15
 265 533 265 533 277.5 542 c 128,-1,16
 290 551 290 551 309 551 c 2,17,-1
 314 551 l 2,18,19
 320 551 320 551 320 544 c 2,20,-1
 320 266 l 2,21,22
 320 261 320 261 314 261 c 2,23,-1
 262 261 l 2,24,25
 257 261 257 261 257 266 c 2,26,-1
 257 300 l 1,0,1
167 310 m 0,27,28
 187 310 187 310 207.5 318 c 128,-1,29
 228 326 228 326 242 346.5 c 128,-1,30
 256 367 256 367 256 404 c 0,31,32
 256 443 256 443 242 464 c 128,-1,33
 228 485 228 485 208 492.5 c 128,-1,34
 188 500 188 500 170 500 c 0,35,36
 136 500 136 500 110 477 c 128,-1,37
 84 454 84 454 84 404 c 0,38,39
 84 370 84 370 97 349.5 c 128,-1,40
 110 329 110 329 129.5 319.5 c 128,-1,41
 149 310 149 310 167 310 c 0,27,28
EndSplineSet
EndChar

StartChar: guillemotleft
Encoding: 171 171 106
Width: 389
GlyphClass: 1
Flags: W
LayerCount: 2
Fore
SplineSet
257 189 m 1,0,-1
 364 48 l 2,1,2
 367 44 367 44 365.5 41.5 c 128,-1,3
 364 39 364 39 359 39 c 2,4,-1
 304 39 l 2,5,6
 292 39 292 39 284 49 c 2,7,-1
 187 175 l 2,8,9
 180 184 180 184 180 189 c 256,10,11
 180 194 180 194 187 203 c 2,12,-1
 284 328 l 2,13,14
 289 335 289 335 293 336.5 c 128,-1,15
 297 338 297 338 304 338 c 2,16,-1
 359 338 l 2,17,18
 364 338 364 338 365.5 335.5 c 128,-1,19
 367 333 367 333 364 329 c 2,20,-1
 257 189 l 1,0,-1
103 189 m 1,21,-1
 209 48 l 2,22,23
 213 44 213 44 211 41.5 c 128,-1,24
 209 39 209 39 205 39 c 2,25,-1
 151 39 l 2,26,27
 138 39 138 39 130 49 c 2,28,-1
 33 175 l 2,29,30
 26 184 26 184 26 189 c 256,31,32
 26 194 26 194 33 203 c 2,33,-1
 130 328 l 2,34,35
 135 335 135 335 139.5 336.5 c 128,-1,36
 144 338 144 338 151 338 c 2,37,-1
 205 338 l 2,38,39
 209 338 209 338 211 335.5 c 128,-1,40
 213 333 213 333 209 329 c 2,41,-1
 103 189 l 1,21,-1
EndSplineSet
EndChar

StartChar: uni00AD
Encoding: 173 173 107
Width: 301
GlyphClass: 1
Flags: W
LayerCount: 2
Fore
SplineSet
45 168 m 2,0,1
 37 168 37 168 37 177 c 2,2,-1
 37 229 l 2,3,4
 37 238 37 238 45 238 c 2,5,-1
 257 238 l 2,6,7
 265 238 265 238 265 229 c 2,8,-1
 265 177 l 2,9,10
 265 168 265 168 257 168 c 2,11,-1
 45 168 l 2,0,1
EndSplineSet
EndChar

StartChar: registered
Encoding: 174 174 108
Width: 505
GlyphClass: 1
Flags: W
LayerCount: 2
Fore
SplineSet
30 340 m 256,0,1
 30 407 30 407 57.5 457 c 128,-1,2
 85 507 85 507 135 535 c 128,-1,3
 185 563 185 563 252 563 c 256,4,5
 319 563 319 563 369 535 c 128,-1,6
 419 507 419 507 447 457 c 128,-1,7
 475 407 475 407 475 340 c 256,8,9
 475 273 475 273 447 222.5 c 128,-1,10
 419 172 419 172 369 144 c 128,-1,11
 319 116 319 116 252 116 c 256,12,13
 185 116 185 116 135 144 c 128,-1,14
 85 172 85 172 57.5 222.5 c 128,-1,15
 30 273 30 273 30 340 c 256,0,1
252 159 m 0,16,17
 334 159 334 159 382.5 208.5 c 128,-1,18
 431 258 431 258 431 340 c 0,19,20
 431 421 431 421 382.5 471 c 128,-1,21
 334 521 334 521 252 521 c 0,22,23
 171 521 171 521 122 471 c 128,-1,24
 73 421 73 421 73 340 c 0,25,26
 73 258 73 258 122 208.5 c 128,-1,27
 171 159 171 159 252 159 c 0,16,17
209 306 m 1,28,-1
 209 228 l 2,29,30
 209 224 209 224 206 224 c 2,31,-1
 171 224 l 2,32,33
 168 224 168 224 168 228 c 2,34,-1
 168 453 l 2,35,36
 168 458 168 458 171 458 c 2,37,-1
 258 458 l 2,38,39
 304 458 304 458 326.5 438.5 c 128,-1,40
 349 419 349 419 349 384 c 0,41,42
 349 329 349 329 298 310 c 1,43,-1
 352 228 l 2,44,45
 354 227 354 227 352.5 225.5 c 128,-1,46
 351 224 351 224 349 224 c 2,47,-1
 315 224 l 2,48,49
 307 224 307 224 304 229 c 2,50,-1
 257 306 l 1,51,-1
 209 306 l 1,28,-1
209 343 m 1,52,-1
 253 343 l 2,53,54
 278 343 278 343 292.5 352.5 c 128,-1,55
 307 362 307 362 307 384 c 256,56,57
 307 406 307 406 293 414 c 128,-1,58
 279 422 279 422 256 422 c 2,59,-1
 209 422 l 1,60,-1
 209 343 l 1,52,-1
EndSplineSet
EndChar

StartChar: macron
Encoding: 175 175 109
Width: 231
GlyphClass: 1
Flags: W
LayerCount: 2
Fore
SplineSet
8 431 m 2,0,1
 0 431 0 431 0 439 c 2,2,-1
 0 478 l 2,3,4
 0 486 0 486 8 486 c 2,5,-1
 222 486 l 2,6,7
 231 486 231 486 231 478 c 2,8,-1
 231 439 l 2,9,10
 231 431 231 431 222 431 c 2,11,-1
 8 431 l 2,0,1
EndSplineSet
EndChar

StartChar: degree
Encoding: 176 176 110
Width: 257
GlyphClass: 1
Flags: W
LayerCount: 2
Fore
SplineSet
129 369 m 256,0,1
 82 369 82 369 52.5 399 c 128,-1,2
 23 429 23 429 23 475 c 0,3,4
 23 522 23 522 52.5 551.5 c 128,-1,5
 82 581 82 581 129 581 c 256,6,7
 176 581 176 581 205 551.5 c 128,-1,8
 234 522 234 522 234 475 c 0,9,10
 234 429 234 429 205 399 c 128,-1,11
 176 369 176 369 129 369 c 256,0,1
129 414 m 0,12,13
 153 414 153 414 168 432 c 128,-1,14
 183 450 183 450 183 475 c 256,15,16
 183 500 183 500 168 517 c 128,-1,17
 153 534 153 534 129 534 c 0,18,19
 104 534 104 534 89 517 c 128,-1,20
 74 500 74 500 74 475 c 256,21,22
 74 450 74 450 89 432 c 128,-1,23
 104 414 104 414 129 414 c 0,12,13
EndSplineSet
EndChar

StartChar: plusminus
Encoding: 177 177 111
Width: 403
GlyphClass: 1
Flags: W
LayerCount: 2
Fore
SplineSet
168 267 m 1,0,-1
 45 267 l 2,1,2
 37 267 37 267 37 276 c 2,3,-1
 37 324 l 2,4,5
 37 333 37 333 45 333 c 2,6,-1
 168 333 l 1,7,-1
 168 470 l 2,8,9
 168 479 168 479 176 479 c 0,10,11
 208 479 208 479 221.5 464.5 c 128,-1,12
 235 450 235 450 235 418 c 2,13,-1
 235 333 l 1,14,-1
 358 333 l 2,15,16
 366 333 366 333 366 324 c 2,17,-1
 366 276 l 2,18,19
 366 267 366 267 358 267 c 2,20,-1
 235 267 l 1,21,-1
 235 130 l 2,22,23
 235 122 235 122 227 122 c 2,24,-1
 176 122 l 2,25,26
 168 122 168 122 168 130 c 2,27,-1
 168 267 l 1,0,-1
45 0 m 2,28,29
 37 0 37 0 37 9 c 2,30,-1
 37 57 l 2,31,32
 37 66 37 66 45 66 c 2,33,-1
 315 66 l 2,34,35
 340 66 340 66 353 53 c 128,-1,36
 366 40 366 40 366 18 c 2,37,-1
 366 9 l 2,38,39
 366 0 366 0 358 0 c 2,40,-1
 45 0 l 2,28,29
EndSplineSet
EndChar

StartChar: twosuperior
Encoding: 178 178 112
Width: 296
GlyphClass: 1
Flags: W
LayerCount: 2
Fore
SplineSet
105 286 m 1,0,-1
 229 286 l 2,1,2
 246 286 246 286 256.5 280 c 128,-1,3
 267 274 267 274 267 254 c 2,4,-1
 267 238 l 2,5,6
 267 233 267 233 259 233 c 2,7,-1
 37 233 l 2,8,9
 32 233 32 233 32 238 c 0,10,11
 32 283 32 283 49 311.5 c 128,-1,12
 66 340 66 340 91.5 358.5 c 128,-1,13
 117 377 117 377 142 391 c 128,-1,14
 167 405 167 405 184 422 c 128,-1,15
 201 439 201 439 201 464 c 0,16,17
 201 491 201 491 182 500.5 c 128,-1,18
 163 510 163 510 139 510 c 0,19,20
 108 510 108 510 85 499 c 128,-1,21
 62 488 62 488 57 484 c 0,22,23
 49 478 49 478 45 487 c 2,24,-1
 38 503 l 2,25,26
 33 516 33 516 37 524.5 c 128,-1,27
 41 533 41 533 57 543 c 0,28,29
 77 554 77 554 98.5 558.5 c 128,-1,30
 120 563 120 563 142 563 c 0,31,32
 193 563 193 563 228.5 539 c 128,-1,33
 264 515 264 515 264 471 c 0,34,35
 264 440 264 440 249.5 417.5 c 128,-1,36
 235 395 235 395 213.5 378.5 c 128,-1,37
 192 362 192 362 169 348 c 128,-1,38
 146 334 146 334 128.5 319.5 c 128,-1,39
 111 305 111 305 105 286 c 1,0,-1
EndSplineSet
EndChar

StartChar: threesuperior
Encoding: 179 179 113
Width: 305
GlyphClass: 1
Flags: W
LayerCount: 2
Fore
SplineSet
210 403 m 1,0,1
 240 394 240 394 257 375 c 128,-1,2
 274 356 274 356 274 324 c 0,3,4
 274 282 274 282 241.5 254.5 c 128,-1,5
 209 227 209 227 151 227 c 0,6,7
 111 227 111 227 84.5 242 c 128,-1,8
 58 257 58 257 45 277 c 128,-1,9
 32 297 32 297 32 312 c 0,10,11
 32 317 32 317 34.5 321 c 128,-1,12
 37 325 37 325 41 325 c 0,13,14
 46 325 46 325 50 319 c 0,15,16
 66 300 66 300 89 289 c 128,-1,17
 112 278 112 278 145 278 c 0,18,19
 214 278 214 278 214 326 c 0,20,21
 214 347 214 347 203 357 c 128,-1,22
 192 367 192 367 175.5 370.5 c 128,-1,23
 159 374 159 374 143 374 c 2,24,-1
 115 374 l 2,25,26
 102 374 102 374 93 379 c 128,-1,27
 84 384 84 384 84 398 c 2,28,-1
 84 419 l 2,29,30
 84 426 84 426 90 426 c 2,31,-1
 143 426 l 2,32,33
 172 426 172 426 188 436.5 c 128,-1,34
 204 447 204 447 204 472 c 0,35,36
 204 491 204 491 187 501.5 c 128,-1,37
 170 512 170 512 140 512 c 0,38,39
 117 512 117 512 97 504.5 c 128,-1,40
 77 497 77 497 60 486 c 0,41,42
 57 485 57 485 52.5 485.5 c 128,-1,43
 48 486 48 486 46 491 c 2,44,-1
 39 507 l 2,45,46
 29 529 29 529 60 544 c 0,47,48
 80 554 80 554 101.5 558.5 c 128,-1,49
 123 563 123 563 144 563 c 0,50,51
 198 563 198 563 230.5 541.5 c 128,-1,52
 263 520 263 520 263 479 c 0,53,54
 263 423 263 423 210 403 c 1,0,1
EndSplineSet
EndChar

StartChar: acute
Encoding: 180 180 114
Width: 173
GlyphClass: 1
Flags: W
LayerCount: 2
Fore
SplineSet
5 439 m 2,0,-1
 78 506 l 2,1,2
 85 511 85 511 90 513.5 c 128,-1,3
 95 516 95 516 102 516 c 2,4,-1
 168 516 l 2,5,6
 173 516 173 516 174 512.5 c 128,-1,7
 175 509 175 509 172 507 c 2,8,-1
 90 441 l 2,9,10
 79 430 79 430 62 430 c 2,11,-1
 9 430 l 2,12,13
 5 430 5 430 3.5 433.5 c 128,-1,14
 2 437 2 437 5 439 c 2,0,-1
EndSplineSet
EndChar

StartChar: paragraph
Encoding: 182 182 115
Width: 434
GlyphClass: 1
Flags: W
LayerCount: 2
Fore
SplineSet
211 221 m 1,0,-1
 207 221 l 2,1,2
 131 221 131 221 83.5 267.5 c 128,-1,3
 36 314 36 314 36 391 c 0,4,5
 36 464 36 464 81 510 c 128,-1,6
 126 556 126 556 227 556 c 2,7,-1
 298 556 l 2,8,9
 335 556 335 556 353.5 538 c 128,-1,10
 372 520 372 520 372 478 c 2,11,-1
 372 8 l 2,12,13
 372 0 372 0 364 0 c 2,14,-1
 330 0 l 2,15,16
 323 0 323 0 323 8 c 2,17,-1
 323 504 l 1,18,-1
 260 504 l 1,19,-1
 260 8 l 2,20,21
 260 0 260 0 252 0 c 2,22,-1
 218 0 l 2,23,24
 211 0 211 0 211 8 c 2,25,-1
 211 221 l 1,0,-1
EndSplineSet
EndChar

StartChar: periodcentered
Encoding: 183 183 116
Width: 156
GlyphClass: 1
Flags: W
LayerCount: 2
Fore
SplineSet
78 334 m 0,0,1
 101 334 101 334 116.5 318 c 128,-1,2
 132 302 132 302 132 279 c 0,3,4
 132 257 132 257 116.5 240.5 c 128,-1,5
 101 224 101 224 78 224 c 0,6,7
 56 224 56 224 40 240.5 c 128,-1,8
 24 257 24 257 24 279 c 0,9,10
 24 302 24 302 40 318 c 128,-1,11
 56 334 56 334 78 334 c 0,0,1
EndSplineSet
EndChar

StartChar: cedilla
Encoding: 184 184 117
Width: 121
GlyphClass: 1
Flags: W
LayerCount: 2
Fore
SplineSet
2 -89 m 2,0,-1
 56 -6 l 2,1,2
 61 2 61 2 67.5 3.5 c 128,-1,3
 74 5 74 5 82 5 c 2,4,-1
 117 5 l 2,5,6
 124 5 124 5 122 -3 c 2,7,-1
 80 -87 l 2,8,9
 76 -94 76 -94 70.5 -96 c 128,-1,10
 65 -98 65 -98 56 -98 c 2,11,-1
 6 -98 l 2,12,13
 2 -98 2 -98 1.5 -95 c 128,-1,14
 1 -92 1 -92 2 -89 c 2,0,-1
EndSplineSet
EndChar

StartChar: onesuperior
Encoding: 185 185 118
Width: 209
GlyphClass: 1
Flags: W
LayerCount: 2
Fore
SplineSet
96 497 m 1,0,-1
 37 476 l 2,1,2
 31 474 31 474 31 481 c 2,3,-1
 31 527 l 2,4,5
 31 536 31 536 39 539 c 2,6,-1
 74 551 l 2,7,8
 82 553 82 553 89.5 554.5 c 128,-1,9
 97 556 97 556 104 556 c 2,10,-1
 129 556 l 2,11,12
 159 556 159 556 159 523 c 2,13,-1
 159 241 l 2,14,15
 159 233 159 233 152 233 c 2,16,-1
 104 233 l 2,17,18
 96 233 96 233 96 241 c 2,19,-1
 96 497 l 1,0,-1
EndSplineSet
EndChar

StartChar: ordmasculine
Encoding: 186 186 119
Width: 337
GlyphClass: 1
Flags: W
LayerCount: 2
Fore
SplineSet
168 253 m 0,0,1
 101 253 101 253 59.5 295.5 c 128,-1,2
 18 338 18 338 18 407 c 256,3,4
 18 476 18 476 59 517 c 128,-1,5
 100 558 100 558 167 558 c 0,6,7
 237 558 237 558 278 517 c 128,-1,8
 319 476 319 476 319 407 c 0,9,10
 319 339 319 339 278.5 296 c 128,-1,11
 238 253 238 253 168 253 c 0,0,1
167 312 m 0,12,13
 205 312 205 312 229.5 336.5 c 128,-1,14
 254 361 254 361 254 407 c 256,15,16
 254 453 254 453 229 476.5 c 128,-1,17
 204 500 204 500 168 500 c 0,18,19
 131 500 131 500 107.5 476.5 c 128,-1,20
 84 453 84 453 84 407 c 256,21,22
 84 361 84 361 107.5 336.5 c 128,-1,23
 131 312 131 312 167 312 c 0,12,13
EndSplineSet
EndChar

StartChar: guillemotright
Encoding: 187 187 120
Width: 389
GlyphClass: 1
Flags: W
LayerCount: 2
Fore
SplineSet
136 189 m 1,0,-1
 28 329 l 2,1,2
 25 333 25 333 26.5 335.5 c 128,-1,3
 28 338 28 338 32 338 c 2,4,-1
 88 338 l 2,5,6
 94 338 94 338 98.5 336.5 c 128,-1,7
 103 335 103 335 108 328 c 2,8,-1
 205 203 l 2,9,10
 212 194 212 194 212 189 c 256,11,12
 212 184 212 184 205 175 c 2,13,-1
 108 49 l 2,14,15
 101 39 101 39 88 39 c 2,16,-1
 32 39 l 2,17,18
 28 39 28 39 26.5 41.5 c 128,-1,19
 25 44 25 44 28 48 c 2,20,-1
 136 189 l 1,0,-1
288 189 m 1,21,-1
 182 329 l 2,22,23
 179 333 179 333 180.5 335.5 c 128,-1,24
 182 338 182 338 186 338 c 2,25,-1
 241 338 l 2,26,27
 248 338 248 338 252.5 336.5 c 128,-1,28
 257 335 257 335 262 328 c 2,29,-1
 359 203 l 2,30,31
 366 194 366 194 366 189 c 256,32,33
 366 184 366 184 359 175 c 2,34,-1
 262 49 l 2,35,36
 255 39 255 39 241 39 c 2,37,-1
 186 39 l 2,38,39
 182 39 182 39 180.5 41.5 c 128,-1,40
 179 44 179 44 182 48 c 2,41,-1
 288 189 l 1,21,-1
EndSplineSet
EndChar

StartChar: onequarter
Encoding: 188 188 121
Width: 656
GlyphClass: 1
Flags: W
LayerCount: 2
Fore
SplineSet
128 0 m 2,0,1
 117 0 117 0 124 9 c 2,2,-1
 419 547 l 2,3,4
 424 556 424 556 432 556 c 2,5,-1
 441 556 l 2,6,7
 465 556 465 556 471.5 539 c 128,-1,8
 478 522 478 522 463 496 c 2,9,-1
 196 9 l 2,10,11
 192 0 192 0 184 0 c 2,12,-1
 128 0 l 2,0,1
96 497 m 1,13,-1
 37 476 l 2,14,15
 31 475 31 475 31 481 c 2,16,-1
 31 527 l 2,17,18
 31 536 31 536 39 539 c 2,19,-1
 74 551 l 2,20,21
 82 553 82 553 89.5 554.5 c 128,-1,22
 97 556 97 556 104 556 c 2,23,-1
 129 556 l 2,24,25
 159 556 159 556 159 523 c 2,26,-1
 159 241 l 2,27,28
 159 233 159 233 152 233 c 2,29,-1
 104 233 l 2,30,31
 96 233 96 233 96 241 c 2,32,-1
 96 497 l 1,13,-1
512 73 m 1,33,-1
 354 73 l 2,34,35
 348 73 348 73 348 79 c 2,36,-1
 348 106 l 2,37,38
 348 111 348 111 349 114.5 c 128,-1,39
 350 118 350 118 354 123 c 2,40,-1
 487 312 l 2,41,42
 495 323 495 323 507 323 c 2,43,-1
 543 323 l 2,44,45
 573 323 573 323 573 295 c 2,46,-1
 573 124 l 1,47,-1
 595 124 l 2,48,49
 623 124 623 124 623 98 c 2,50,-1
 623 79 l 2,51,52
 623 73 623 73 615 73 c 2,53,-1
 573 73 l 1,54,-1
 573 6 l 2,55,56
 573 0 573 0 567 0 c 2,57,-1
 518 0 l 2,58,59
 512 0 512 0 512 6 c 2,60,-1
 512 73 l 1,33,-1
412 124 m 1,61,-1
 512 124 l 1,62,-1
 512 267 l 1,63,-1
 412 124 l 1,61,-1
EndSplineSet
Ligature2: "'frac' Diagonal Fractions lookup 4 subtable" one fraction four
Ligature2: "'frac' Diagonal Fractions lookup 4 subtable" one slash four
EndChar

StartChar: onehalf
Encoding: 189 189 122
Width: 713
GlyphClass: 1
Flags: W
LayerCount: 2
Fore
SplineSet
96 497 m 1,0,-1
 37 476 l 2,1,2
 31 473 31 473 31 481 c 2,3,-1
 31 527 l 2,4,5
 31 536 31 536 39 539 c 2,6,-1
 74 551 l 2,7,8
 82 553 82 553 89.5 554.5 c 128,-1,9
 97 556 97 556 104 556 c 2,10,-1
 129 556 l 2,11,12
 159 556 159 556 159 523 c 2,13,-1
 159 241 l 2,14,15
 159 233 159 233 152 233 c 2,16,-1
 104 233 l 2,17,18
 96 233 96 233 96 241 c 2,19,-1
 96 497 l 1,0,-1
128 0 m 2,20,21
 117 0 117 0 124 9 c 2,22,-1
 419 547 l 2,23,24
 424 556 424 556 432 556 c 2,25,-1
 441 556 l 2,26,27
 465 556 465 556 471.5 539 c 128,-1,28
 478 522 478 522 463 496 c 2,29,-1
 196 9 l 2,30,31
 192 0 192 0 184 0 c 2,32,-1
 128 0 l 2,20,21
493 54 m 1,33,-1
 617 54 l 2,34,35
 634 54 634 54 644 48 c 128,-1,36
 654 42 654 42 654 22 c 2,37,-1
 654 6 l 2,38,39
 654 0 654 0 648 0 c 2,40,-1
 425 0 l 2,41,42
 420 0 420 0 420 6 c 0,43,44
 420 51 420 51 437 79.5 c 128,-1,45
 454 108 454 108 479 126 c 128,-1,46
 504 144 504 144 529.5 158.5 c 128,-1,47
 555 173 555 173 572 189.5 c 128,-1,48
 589 206 589 206 589 232 c 256,49,50
 589 258 589 258 570 267.5 c 128,-1,51
 551 277 551 277 527 277 c 0,52,53
 497 277 497 277 474 266.5 c 128,-1,54
 451 256 451 256 445 252 c 0,55,56
 442 249 442 249 438.5 249.5 c 128,-1,57
 435 250 435 250 433 254 c 2,58,-1
 426 271 l 2,59,60
 421 283 421 283 425 291.5 c 128,-1,61
 429 300 429 300 445 310 c 0,62,63
 464 321 464 321 486 326 c 128,-1,64
 508 331 508 331 530 331 c 0,65,66
 582 331 582 331 617.5 306.5 c 128,-1,67
 653 282 653 282 653 238 c 0,68,69
 653 207 653 207 638.5 184.5 c 128,-1,70
 624 162 624 162 602 145.5 c 128,-1,71
 580 129 580 129 557 115.5 c 128,-1,72
 534 102 534 102 516.5 87.5 c 128,-1,73
 499 73 499 73 493 54 c 1,33,-1
EndSplineSet
Ligature2: "'frac' Diagonal Fractions lookup 4 subtable" one fraction two
Ligature2: "'frac' Diagonal Fractions lookup 4 subtable" one slash two
EndChar

StartChar: threequarters
Encoding: 190 190 123
Width: 729
GlyphClass: 1
Flags: W
LayerCount: 2
Fore
SplineSet
210 403 m 1,0,1
 240 394 240 394 257 375 c 128,-1,2
 274 356 274 356 274 324 c 0,3,4
 274 282 274 282 241.5 254.5 c 128,-1,5
 209 227 209 227 151 227 c 0,6,7
 111 227 111 227 84.5 242 c 128,-1,8
 58 257 58 257 45 277 c 128,-1,9
 32 297 32 297 32 312 c 0,10,11
 32 317 32 317 34.5 321 c 128,-1,12
 37 325 37 325 41 325 c 0,13,14
 46 325 46 325 50 319 c 0,15,16
 66 300 66 300 89 289 c 128,-1,17
 112 278 112 278 145 278 c 0,18,19
 214 278 214 278 214 326 c 0,20,21
 214 347 214 347 203 357 c 128,-1,22
 192 367 192 367 175.5 370.5 c 128,-1,23
 159 374 159 374 143 374 c 2,24,-1
 115 374 l 2,25,26
 102 374 102 374 93 379 c 128,-1,27
 84 384 84 384 84 398 c 2,28,-1
 84 419 l 2,29,30
 84 426 84 426 90 426 c 2,31,-1
 143 426 l 2,32,33
 172 426 172 426 188 436.5 c 128,-1,34
 204 447 204 447 204 472 c 0,35,36
 204 491 204 491 187 501.5 c 128,-1,37
 170 512 170 512 140 512 c 0,38,39
 117 512 117 512 97 504.5 c 128,-1,40
 77 497 77 497 60 486 c 0,41,42
 57 485 57 485 52.5 485.5 c 128,-1,43
 48 486 48 486 46 491 c 2,44,-1
 39 507 l 2,45,46
 29 529 29 529 60 544 c 0,47,48
 80 554 80 554 101.5 558.5 c 128,-1,49
 123 563 123 563 144 563 c 0,50,51
 198 563 198 563 230.5 541.5 c 128,-1,52
 263 520 263 520 263 479 c 0,53,54
 263 423 263 423 210 403 c 1,0,1
201 0 m 2,55,56
 192 0 192 0 197 9 c 2,57,-1
 493 547 l 2,58,59
 496 556 496 556 505 556 c 2,60,-1
 514 556 l 2,61,62
 538 556 538 556 544 539 c 128,-1,63
 550 522 550 522 536 496 c 2,64,-1
 270 9 l 2,65,66
 264 0 264 0 258 0 c 2,67,-1
 201 0 l 2,55,56
586 73 m 1,68,-1
 428 73 l 2,69,70
 422 73 422 73 422 79 c 2,71,-1
 422 106 l 2,72,73
 422 111 422 111 423 114.5 c 128,-1,74
 424 118 424 118 428 123 c 2,75,-1
 560 312 l 2,76,77
 564 317 564 317 568.5 320 c 128,-1,78
 573 323 573 323 581 323 c 2,79,-1
 616 323 l 2,80,81
 646 323 646 323 646 295 c 2,82,-1
 646 124 l 1,83,-1
 668 124 l 2,84,85
 696 124 696 124 696 98 c 2,86,-1
 696 79 l 2,87,88
 696 73 696 73 689 73 c 2,89,-1
 646 73 l 1,90,-1
 646 6 l 2,91,92
 646 0 646 0 640 0 c 2,93,-1
 591 0 l 2,94,95
 586 0 586 0 586 6 c 2,96,-1
 586 73 l 1,68,-1
485 124 m 1,97,-1
 586 124 l 1,98,-1
 586 267 l 1,99,-1
 485 124 l 1,97,-1
EndSplineSet
Ligature2: "'frac' Diagonal Fractions lookup 4 subtable" three fraction four
Ligature2: "'frac' Diagonal Fractions lookup 4 subtable" three slash four
EndChar

StartChar: questiondown
Encoding: 191 191 124
Width: 335
GlyphClass: 1
Flags: W
LayerCount: 2
Fore
SplineSet
199 267 m 256,0,1
 177 267 177 267 160.5 283.5 c 128,-1,2
 144 300 144 300 144 322 c 0,3,4
 144 345 144 345 160.5 361 c 128,-1,5
 177 377 177 377 199 377 c 256,6,7
 221 377 221 377 236.5 361 c 128,-1,8
 252 345 252 345 252 322 c 0,9,10
 252 300 252 300 236.5 283.5 c 128,-1,11
 221 267 221 267 199 267 c 256,0,1
11 -47 m 0,12,13
 11 -6 11 -6 29.5 25.5 c 128,-1,14
 48 57 48 57 79 84.5 c 128,-1,15
 110 112 110 112 147 141 c 0,16,17
 159 151 159 151 162.5 158 c 128,-1,18
 166 165 166 165 166 180 c 2,19,-1
 166 207 l 2,20,21
 166 215 166 215 174 215 c 2,22,-1
 187 215 l 2,23,24
 207 215 207 215 218.5 202.5 c 128,-1,25
 230 190 230 190 230 173 c 0,26,27
 230 145 230 145 215.5 124.5 c 128,-1,28
 201 104 201 104 180 87 c 128,-1,29
 159 70 159 70 138 52.5 c 128,-1,30
 117 35 117 35 102.5 13 c 128,-1,31
 88 -9 88 -9 88 -40 c 0,32,33
 88 -83 88 -83 115.5 -106.5 c 128,-1,34
 143 -130 143 -130 190 -130 c 0,35,36
 229 -130 229 -130 260 -120 c 128,-1,37
 291 -110 291 -110 322 -91 c 0,38,39
 328 -86 328 -86 335 -86 c 0,40,41
 341 -86 341 -86 343 -93 c 2,42,-1
 357 -137 l 2,43,44
 360 -146 360 -146 352 -151 c 0,45,46
 314 -175 314 -175 275.5 -187.5 c 128,-1,47
 237 -200 237 -200 190 -200 c 0,48,49
 108 -200 108 -200 59.5 -160.5 c 128,-1,50
 11 -121 11 -121 11 -47 c 0,12,13
EndSplineSet
EndChar

StartChar: Agrave
Encoding: 192 192 125
Width: 510
GlyphClass: 1
Flags: W
LayerCount: 2
Fore
SplineSet
328 617 m 2,0,1
 331 615 331 615 330 611.5 c 128,-1,2
 329 608 329 608 324 608 c 2,3,-1
 272 608 l 2,4,5
 255 608 255 608 243 619 c 2,6,-1
 161 684 l 2,7,8
 158 687 158 687 159.5 690 c 128,-1,9
 161 693 161 693 165 693 c 2,10,-1
 230 693 l 2,11,12
 245 693 245 693 255 683 c 2,13,-1
 328 617 l 2,0,1
141 153 m 1,14,-1
 91 12 l 2,15,16
 87 0 87 0 76 0 c 2,17,-1
 17 0 l 2,18,19
 7 0 7 0 11 9 c 2,20,-1
 213 547 l 2,21,22
 216 556 216 556 224 556 c 2,23,-1
 243 556 l 2,24,25
 272 556 272 556 288 544 c 128,-1,26
 304 532 304 532 316 500 c 2,27,-1
 501 9 l 2,28,29
 505 0 505 0 494 0 c 2,30,-1
 435 0 l 2,31,32
 426 0 426 0 423 3 c 128,-1,33
 420 6 420 6 417 12 c 2,34,-1
 366 153 l 1,35,-1
 141 153 l 1,14,-1
165 221 m 1,36,-1
 342 221 l 1,37,-1
 253 463 l 1,38,-1
 165 221 l 1,36,-1
EndSplineSet
EndChar

StartChar: Aacute
Encoding: 193 193 126
Width: 510
GlyphClass: 1
Flags: W
LayerCount: 2
Fore
SplineSet
174 617 m 2,0,-1
 247 683 l 2,1,2
 258 693 258 693 271 693 c 2,3,-1
 337 693 l 2,4,5
 342 693 342 693 343 690 c 128,-1,6
 344 687 344 687 341 684 c 2,7,-1
 260 619 l 2,8,9
 248 608 248 608 231 608 c 2,10,-1
 178 608 l 2,11,12
 174 608 174 608 172.5 611.5 c 128,-1,13
 171 615 171 615 174 617 c 2,0,-1
141 153 m 1,14,-1
 91 12 l 2,15,16
 87 0 87 0 76 0 c 2,17,-1
 17 0 l 2,18,19
 7 0 7 0 11 9 c 2,20,-1
 213 547 l 2,21,22
 216 556 216 556 224 556 c 2,23,-1
 243 556 l 2,24,25
 272 556 272 556 288 544 c 128,-1,26
 304 532 304 532 316 500 c 2,27,-1
 501 9 l 2,28,29
 505 0 505 0 494 0 c 2,30,-1
 435 0 l 2,31,32
 426 0 426 0 423 3 c 128,-1,33
 420 6 420 6 417 12 c 2,34,-1
 366 153 l 1,35,-1
 141 153 l 1,14,-1
165 221 m 1,36,-1
 342 221 l 1,37,-1
 253 463 l 1,38,-1
 165 221 l 1,36,-1
EndSplineSet
EndChar

StartChar: Acircumflex
Encoding: 194 194 127
Width: 510
GlyphClass: 1
Flags: W
LayerCount: 2
Fore
SplineSet
254 663 m 1,0,-1
 213 620 l 2,1,2
 204 608 204 608 185 608 c 2,3,-1
 138 608 l 2,4,5
 134 608 134 608 132.5 611.5 c 128,-1,6
 131 615 131 615 134 617 c 2,7,-1
 202 683 l 2,8,9
 209 690 209 690 214 691.5 c 128,-1,10
 219 693 219 693 227 693 c 2,11,-1
 281 693 l 2,12,13
 290 693 290 693 294.5 691.5 c 128,-1,14
 299 690 299 690 305 683 c 2,15,-1
 375 617 l 2,16,17
 377 615 377 615 376 611.5 c 128,-1,18
 375 608 375 608 371 608 c 2,19,-1
 324 608 l 2,20,21
 307 608 307 608 295 620 c 2,22,-1
 254 663 l 1,0,-1
141 153 m 1,23,-1
 91 12 l 2,24,25
 87 0 87 0 76 0 c 2,26,-1
 17 0 l 2,27,28
 7 0 7 0 11 9 c 2,29,-1
 213 547 l 2,30,31
 216 556 216 556 224 556 c 2,32,-1
 243 556 l 2,33,34
 272 556 272 556 288 544 c 128,-1,35
 304 532 304 532 316 500 c 2,36,-1
 501 9 l 2,37,38
 505 0 505 0 494 0 c 2,39,-1
 435 0 l 2,40,41
 426 0 426 0 423 3 c 128,-1,42
 420 6 420 6 417 12 c 2,43,-1
 366 153 l 1,44,-1
 141 153 l 1,23,-1
165 221 m 1,45,-1
 342 221 l 1,46,-1
 253 463 l 1,47,-1
 165 221 l 1,45,-1
EndSplineSet
EndChar

StartChar: Atilde
Encoding: 195 195 128
Width: 510
GlyphClass: 1
Flags: W
LayerCount: 2
Fore
SplineSet
369 681 m 0,0,1
 361 608 361 608 300 608 c 0,2,3
 283 608 283 608 265.5 615 c 128,-1,4
 248 622 248 622 232 629 c 128,-1,5
 216 636 216 636 204 636 c 0,6,7
 194 636 194 636 190 630.5 c 128,-1,8
 186 625 186 625 184 617 c 0,9,10
 183 607 183 607 175 607 c 2,11,-1
 140 607 l 2,12,13
 132 607 132 607 132 616 c 0,14,15
 137 691 137 691 194 691 c 0,16,17
 214 691 214 691 232 684 c 128,-1,18
 250 677 250 677 266 669.5 c 128,-1,19
 282 662 282 662 295 662 c 0,20,21
 310 662 310 662 315 679 c 0,22,23
 318 689 318 689 326 689 c 2,24,-1
 361 689 l 2,25,26
 369 689 369 689 369 681 c 0,0,1
141 153 m 1,27,-1
 91 12 l 2,28,29
 87 0 87 0 76 0 c 2,30,-1
 17 0 l 2,31,32
 7 0 7 0 11 9 c 2,33,-1
 213 547 l 2,34,35
 216 556 216 556 224 556 c 2,36,-1
 243 556 l 2,37,38
 272 556 272 556 288 544 c 128,-1,39
 304 532 304 532 316 500 c 2,40,-1
 501 9 l 2,41,42
 505 0 505 0 494 0 c 2,43,-1
 435 0 l 2,44,45
 426 0 426 0 423 3 c 128,-1,46
 420 6 420 6 417 12 c 2,47,-1
 366 153 l 1,48,-1
 141 153 l 1,27,-1
165 221 m 1,49,-1
 342 221 l 1,50,-1
 253 463 l 1,51,-1
 165 221 l 1,49,-1
EndSplineSet
EndChar

StartChar: Adieresis
Encoding: 196 196 129
Width: 510
GlyphClass: 1
Flags: W
LayerCount: 2
Fore
SplineSet
138 645 m 0,0,1
 138 665 138 665 151 678 c 128,-1,2
 164 691 164 691 183 691 c 256,3,4
 202 691 202 691 215 678 c 128,-1,5
 228 665 228 665 228 645 c 0,6,7
 228 626 228 626 215 613 c 128,-1,8
 202 600 202 600 183 600 c 256,9,10
 164 600 164 600 151 613 c 128,-1,11
 138 626 138 626 138 645 c 0,0,1
275 645 m 0,12,13
 275 665 275 665 288 678 c 128,-1,14
 301 691 301 691 320 691 c 0,15,16
 338 691 338 691 351 678 c 128,-1,17
 364 665 364 665 364 645 c 0,18,19
 364 626 364 626 351 613 c 128,-1,20
 338 600 338 600 320 600 c 0,21,22
 301 600 301 600 288 613 c 128,-1,23
 275 626 275 626 275 645 c 0,12,13
141 153 m 1,24,-1
 91 12 l 2,25,26
 87 0 87 0 76 0 c 2,27,-1
 17 0 l 2,28,29
 7 0 7 0 11 9 c 2,30,-1
 213 547 l 2,31,32
 216 556 216 556 224 556 c 2,33,-1
 243 556 l 2,34,35
 272 556 272 556 288 544 c 128,-1,36
 304 532 304 532 316 500 c 2,37,-1
 501 9 l 2,38,39
 505 0 505 0 494 0 c 2,40,-1
 435 0 l 2,41,42
 426 0 426 0 423 3 c 128,-1,43
 420 6 420 6 417 12 c 2,44,-1
 366 153 l 1,45,-1
 141 153 l 1,24,-1
165 221 m 1,46,-1
 342 221 l 1,47,-1
 253 463 l 1,48,-1
 165 221 l 1,46,-1
EndSplineSet
EndChar

StartChar: Aring
Encoding: 197 197 130
Width: 510
GlyphClass: 1
Flags: W
LayerCount: 2
Fore
SplineSet
182 667 m 256,0,1
 182 696 182 696 203 716.5 c 128,-1,2
 224 737 224 737 253 737 c 256,3,4
 282 737 282 737 302.5 716.5 c 128,-1,5
 323 696 323 696 323 667 c 256,6,7
 323 638 323 638 302.5 617.5 c 128,-1,8
 282 597 282 597 253 597 c 256,9,10
 224 597 224 597 203 617.5 c 128,-1,11
 182 638 182 638 182 667 c 256,0,1
253 633 m 256,12,13
 267 633 267 633 276.5 643 c 128,-1,14
 286 653 286 653 286 667 c 0,15,16
 286 682 286 682 276.5 692 c 128,-1,17
 267 702 267 702 253 702 c 256,18,19
 239 702 239 702 229.5 692 c 128,-1,20
 220 682 220 682 220 667 c 0,21,22
 220 653 220 653 229.5 643 c 128,-1,23
 239 633 239 633 253 633 c 256,12,13
141 153 m 1,24,-1
 91 12 l 2,25,26
 87 0 87 0 76 0 c 2,27,-1
 17 0 l 2,28,29
 7 0 7 0 11 9 c 2,30,-1
 213 547 l 2,31,32
 216 556 216 556 224 556 c 2,33,-1
 243 556 l 2,34,35
 272 556 272 556 288 544 c 128,-1,36
 304 532 304 532 316 500 c 2,37,-1
 501 9 l 2,38,39
 505 0 505 0 494 0 c 2,40,-1
 435 0 l 2,41,42
 426 0 426 0 423 3 c 128,-1,43
 420 6 420 6 417 12 c 2,44,-1
 366 153 l 1,45,-1
 141 153 l 1,24,-1
165 221 m 1,46,-1
 342 221 l 1,47,-1
 253 463 l 1,48,-1
 165 221 l 1,46,-1
EndSplineSet
EndChar

StartChar: AE
Encoding: 198 198 131
Width: 688
GlyphClass: 1
Flags: W
LayerCount: 2
Fore
SplineSet
164 153 m 1,0,-1
 90 12 l 2,1,2
 85 0 85 0 71 0 c 2,3,-1
 10 0 l 2,4,5
 0 0 0 0 5 9 c 2,6,-1
 296 547 l 2,7,8
 301 556 301 556 312 556 c 2,9,-1
 605 556 l 2,10,11
 650 556 650 556 650 513 c 2,12,-1
 650 496 l 2,13,14
 650 485 650 485 639 485 c 2,15,-1
 418 485 l 1,16,-1
 418 312 l 1,17,-1
 586 312 l 2,18,19
 632 312 632 312 632 268 c 2,20,-1
 632 252 l 2,21,22
 632 242 632 242 620 242 c 2,23,-1
 418 242 l 1,24,-1
 418 71 l 1,25,-1
 614 71 l 2,26,27
 637 71 637 71 648.5 59 c 128,-1,28
 660 47 660 47 660 27 c 2,29,-1
 660 11 l 2,30,31
 660 0 660 0 648 0 c 2,32,-1
 349 0 l 2,33,34
 341 0 341 0 341 9 c 2,35,-1
 341 153 l 1,36,-1
 164 153 l 1,0,-1
200 221 m 1,37,-1
 341 221 l 1,38,-1
 341 486 l 1,39,-1
 200 221 l 1,37,-1
EndSplineSet
EndChar

StartChar: Ccedilla
Encoding: 199 199 132
Width: 512
GlyphClass: 1
Flags: W
LayerCount: 2
Fore
SplineSet
333 -9 m 1,0,-1
 292 -92 l 2,1,2
 288 -99 288 -99 282 -101.5 c 128,-1,3
 276 -104 276 -104 268 -104 c 2,4,-1
 218 -104 l 2,5,6
 214 -104 214 -104 213.5 -101 c 128,-1,7
 213 -98 213 -98 214 -96 c 2,8,-1
 269 -9 l 1,9,10
 170 2 170 2 110 77.5 c 128,-1,11
 50 153 50 153 50 277 c 0,12,13
 50 367 50 367 83 432 c 128,-1,14
 116 497 116 497 174.5 532 c 128,-1,15
 233 567 233 567 309 567 c 0,16,17
 350 567 350 567 381 558 c 128,-1,18
 412 549 412 549 439 538 c 0,19,20
 464 527 464 527 473 513 c 128,-1,21
 482 499 482 499 477 477 c 2,22,-1
 472 456 l 2,23,24
 471 446 471 446 462 446 c 0,25,26
 457 446 457 446 448 452 c 0,27,28
 418 472 418 472 384.5 483.5 c 128,-1,29
 351 495 351 495 309 495 c 0,30,31
 226 495 226 495 177 438.5 c 128,-1,32
 128 382 128 382 128 276 c 0,33,34
 128 173 128 173 177 117 c 128,-1,35
 226 61 226 61 311 61 c 0,36,37
 365 61 365 61 402.5 83 c 128,-1,38
 440 105 440 105 462 132 c 0,39,40
 470 142 470 142 477 142 c 0,41,42
 485 142 485 142 488 136 c 128,-1,43
 491 130 491 130 491 122 c 0,44,45
 491 103 491 103 475.5 74.5 c 128,-1,46
 460 46 460 46 425.5 22 c 128,-1,47
 391 -2 391 -2 333 -9 c 1,0,-1
EndSplineSet
EndChar

StartChar: Egrave
Encoding: 200 200 133
Width: 412
GlyphClass: 1
Flags: W
LayerCount: 2
Fore
SplineSet
280 617 m 2,0,1
 284 615 284 615 282.5 611.5 c 128,-1,2
 281 608 281 608 276 608 c 2,3,-1
 224 608 l 2,4,5
 207 608 207 608 195 619 c 2,6,-1
 113 684 l 2,7,8
 111 687 111 687 112 690 c 128,-1,9
 113 693 113 693 117 693 c 2,10,-1
 182 693 l 2,11,12
 197 693 197 693 207 683 c 2,13,-1
 280 617 l 2,0,1
140 71 m 1,14,-1
 337 71 l 2,15,16
 360 71 360 71 371 59 c 128,-1,17
 382 47 382 47 382 27 c 2,18,-1
 382 11 l 2,19,20
 382 0 382 0 371 0 c 2,21,-1
 72 0 l 2,22,23
 64 0 64 0 64 9 c 2,24,-1
 64 547 l 2,25,26
 64 556 64 556 72 556 c 2,27,-1
 328 556 l 2,28,29
 373 556 373 556 373 513 c 2,30,-1
 373 496 l 2,31,32
 373 485 373 485 362 485 c 2,33,-1
 140 485 l 1,34,-1
 140 312 l 1,35,-1
 310 312 l 2,36,37
 354 312 354 312 354 268 c 2,38,-1
 354 252 l 2,39,40
 354 242 354 242 343 242 c 2,41,-1
 140 242 l 1,42,-1
 140 71 l 1,14,-1
EndSplineSet
EndChar

StartChar: Eacute
Encoding: 201 201 134
Width: 412
GlyphClass: 1
Flags: W
LayerCount: 2
Fore
SplineSet
146 617 m 2,0,-1
 220 683 l 2,1,2
 230 693 230 693 243 693 c 2,3,-1
 309 693 l 2,4,5
 314 693 314 693 315 690 c 128,-1,6
 316 687 316 687 313 684 c 2,7,-1
 232 619 l 2,8,9
 220 608 220 608 203 608 c 2,10,-1
 150 608 l 2,11,12
 146 608 146 608 144.5 611.5 c 128,-1,13
 143 615 143 615 146 617 c 2,0,-1
140 71 m 1,14,-1
 337 71 l 2,15,16
 360 71 360 71 371 59 c 128,-1,17
 382 47 382 47 382 27 c 2,18,-1
 382 11 l 2,19,20
 382 0 382 0 371 0 c 2,21,-1
 72 0 l 2,22,23
 64 0 64 0 64 9 c 2,24,-1
 64 547 l 2,25,26
 64 556 64 556 72 556 c 2,27,-1
 328 556 l 2,28,29
 373 556 373 556 373 513 c 2,30,-1
 373 496 l 2,31,32
 373 485 373 485 362 485 c 2,33,-1
 140 485 l 1,34,-1
 140 312 l 1,35,-1
 310 312 l 2,36,37
 354 312 354 312 354 268 c 2,38,-1
 354 252 l 2,39,40
 354 242 354 242 343 242 c 2,41,-1
 140 242 l 1,42,-1
 140 71 l 1,14,-1
EndSplineSet
EndChar

StartChar: Ecircumflex
Encoding: 202 202 135
Width: 412
GlyphClass: 1
Flags: W
LayerCount: 2
Fore
SplineSet
215 663 m 1,0,-1
 174 620 l 2,1,2
 163 608 163 608 145 608 c 2,3,-1
 98 608 l 2,4,5
 94 608 94 608 93 611.5 c 128,-1,6
 92 615 92 615 95 617 c 2,7,-1
 163 683 l 2,8,9
 169 690 169 690 174 691.5 c 128,-1,10
 179 693 179 693 188 693 c 2,11,-1
 242 693 l 2,12,13
 250 693 250 693 254.5 691.5 c 128,-1,14
 259 690 259 690 266 683 c 2,15,-1
 335 617 l 2,16,17
 337 615 337 615 336.5 611.5 c 128,-1,18
 336 608 336 608 331 608 c 2,19,-1
 285 608 l 2,20,21
 268 608 268 608 256 620 c 2,22,-1
 215 663 l 1,0,-1
140 71 m 1,23,-1
 337 71 l 2,24,25
 360 71 360 71 371 59 c 128,-1,26
 382 47 382 47 382 27 c 2,27,-1
 382 11 l 2,28,29
 382 0 382 0 371 0 c 2,30,-1
 72 0 l 2,31,32
 64 0 64 0 64 9 c 2,33,-1
 64 547 l 2,34,35
 64 556 64 556 72 556 c 2,36,-1
 328 556 l 2,37,38
 373 556 373 556 373 513 c 2,39,-1
 373 496 l 2,40,41
 373 485 373 485 362 485 c 2,42,-1
 140 485 l 1,43,-1
 140 312 l 1,44,-1
 310 312 l 2,45,46
 354 312 354 312 354 268 c 2,47,-1
 354 252 l 2,48,49
 354 242 354 242 343 242 c 2,50,-1
 140 242 l 1,51,-1
 140 71 l 1,23,-1
EndSplineSet
EndChar

StartChar: Edieresis
Encoding: 203 203 136
Width: 412
GlyphClass: 1
Flags: W
LayerCount: 2
Fore
SplineSet
103 645 m 0,0,1
 103 665 103 665 116 678 c 128,-1,2
 129 691 129 691 148 691 c 256,3,4
 167 691 167 691 180 678 c 128,-1,5
 193 665 193 665 193 645 c 0,6,7
 193 626 193 626 180 613 c 128,-1,8
 167 600 167 600 148 600 c 256,9,10
 129 600 129 600 116 613 c 128,-1,11
 103 626 103 626 103 645 c 0,0,1
240 645 m 0,12,13
 240 665 240 665 253 678 c 128,-1,14
 266 691 266 691 285 691 c 0,15,16
 303 691 303 691 316 678 c 128,-1,17
 329 665 329 665 329 645 c 0,18,19
 329 626 329 626 316 613 c 128,-1,20
 303 600 303 600 285 600 c 0,21,22
 266 600 266 600 253 613 c 128,-1,23
 240 626 240 626 240 645 c 0,12,13
140 71 m 1,24,-1
 337 71 l 2,25,26
 360 71 360 71 371 59 c 128,-1,27
 382 47 382 47 382 27 c 2,28,-1
 382 11 l 2,29,30
 382 0 382 0 371 0 c 2,31,-1
 72 0 l 2,32,33
 64 0 64 0 64 9 c 2,34,-1
 64 547 l 2,35,36
 64 556 64 556 72 556 c 2,37,-1
 328 556 l 2,38,39
 373 556 373 556 373 513 c 2,40,-1
 373 496 l 2,41,42
 373 485 373 485 362 485 c 2,43,-1
 140 485 l 1,44,-1
 140 312 l 1,45,-1
 310 312 l 2,46,47
 354 312 354 312 354 268 c 2,48,-1
 354 252 l 2,49,50
 354 242 354 242 343 242 c 2,51,-1
 140 242 l 1,52,-1
 140 71 l 1,24,-1
EndSplineSet
EndChar

StartChar: Igrave
Encoding: 204 204 137
Width: 205
GlyphClass: 1
Flags: W
LayerCount: 2
Fore
SplineSet
186 617 m 2,0,1
 189 615 189 615 188 611.5 c 128,-1,2
 187 608 187 608 182 608 c 2,3,-1
 129 608 l 2,4,5
 112 608 112 608 101 619 c 2,6,-1
 19 684 l 2,7,8
 16 687 16 687 17.5 690 c 128,-1,9
 19 693 19 693 23 693 c 2,10,-1
 87 693 l 2,11,12
 102 693 102 693 112 683 c 2,13,-1
 186 617 l 2,0,1
79 0 m 2,14,15
 71 0 71 0 71 9 c 2,16,-1
 71 547 l 2,17,18
 71 556 71 556 79 556 c 2,19,-1
 86 556 l 2,20,21
 146 556 146 556 146 485 c 2,22,-1
 146 9 l 2,23,24
 146 0 146 0 138 0 c 2,25,-1
 79 0 l 2,14,15
EndSplineSet
EndChar

StartChar: Iacute
Encoding: 205 205 138
Width: 205
GlyphClass: 1
Flags: W
LayerCount: 2
Fore
SplineSet
19 617 m 2,0,-1
 92 683 l 2,1,2
 103 693 103 693 116 693 c 2,3,-1
 182 693 l 2,4,5
 187 693 187 693 188 690 c 128,-1,6
 189 687 189 687 186 684 c 2,7,-1
 104 619 l 2,8,9
 93 608 93 608 76 608 c 2,10,-1
 23 608 l 2,11,12
 19 608 19 608 17.5 611.5 c 128,-1,13
 16 615 16 615 19 617 c 2,0,-1
80 0 m 2,14,15
 72 0 72 0 72 9 c 2,16,-1
 72 547 l 2,17,18
 72 556 72 556 80 556 c 2,19,-1
 87 556 l 2,20,21
 147 556 147 556 147 485 c 2,22,-1
 147 9 l 2,23,24
 147 0 147 0 139 0 c 2,25,-1
 80 0 l 2,14,15
EndSplineSet
EndChar

StartChar: Icircumflex
Encoding: 206 206 139
Width: 205
GlyphClass: 1
Flags: W
LayerCount: 2
Fore
SplineSet
103 663 m 1,0,-1
 62 620 l 2,1,2
 53 608 53 608 33 608 c 2,3,-1
 -13 608 l 2,4,5
 -17 608 -17 608 -18.5 611.5 c 128,-1,6
 -20 615 -20 615 -17 617 c 2,7,-1
 51 683 l 2,8,9
 58 690 58 690 63 691.5 c 128,-1,10
 68 693 68 693 76 693 c 2,11,-1
 130 693 l 2,12,13
 139 693 139 693 143.5 691.5 c 128,-1,14
 148 690 148 690 154 683 c 2,15,-1
 223 617 l 2,16,17
 225 615 225 615 224.5 611.5 c 128,-1,18
 224 608 224 608 220 608 c 2,19,-1
 173 608 l 2,20,21
 156 608 156 608 144 620 c 2,22,-1
 103 663 l 1,0,-1
74 0 m 2,23,24
 66 0 66 0 66 9 c 2,25,-1
 66 547 l 2,26,27
 66 556 66 556 74 556 c 2,28,-1
 81 556 l 2,29,30
 141 556 141 556 141 485 c 2,31,-1
 141 9 l 2,32,33
 141 0 141 0 133 0 c 2,34,-1
 74 0 l 2,23,24
EndSplineSet
EndChar

StartChar: Idieresis
Encoding: 207 207 140
Width: 205
GlyphClass: 1
Flags: W
LayerCount: 2
Fore
SplineSet
-10 645 m 0,0,1
 -10 665 -10 665 3 678 c 128,-1,2
 16 691 16 691 34 691 c 0,3,4
 53 691 53 691 66 678 c 128,-1,5
 79 665 79 665 79 645 c 0,6,7
 79 626 79 626 66 613 c 128,-1,8
 53 600 53 600 34 600 c 0,9,10
 16 600 16 600 3 613 c 128,-1,11
 -10 626 -10 626 -10 645 c 0,0,1
126 645 m 0,12,13
 126 665 126 665 139 678 c 128,-1,14
 152 691 152 691 171 691 c 256,15,16
 190 691 190 691 203 678 c 128,-1,17
 216 665 216 665 216 645 c 0,18,19
 216 626 216 626 203 613 c 128,-1,20
 190 600 190 600 171 600 c 256,21,22
 152 600 152 600 139 613 c 128,-1,23
 126 626 126 626 126 645 c 0,12,13
73 0 m 2,24,25
 64 0 64 0 64 9 c 2,26,-1
 64 547 l 2,27,28
 64 556 64 556 73 556 c 2,29,-1
 79 556 l 2,30,31
 140 556 140 556 140 485 c 2,32,-1
 140 9 l 2,33,34
 140 0 140 0 132 0 c 2,35,-1
 73 0 l 2,24,25
EndSplineSet
EndChar

StartChar: Eth
Encoding: 208 208 141
Width: 571
GlyphClass: 1
Flags: W
LayerCount: 2
Fore
SplineSet
80 244 m 1,0,-1
 27 244 l 2,1,2
 19 244 19 244 19 253 c 2,3,-1
 19 307 l 2,4,5
 19 315 19 315 27 315 c 2,6,-1
 80 315 l 1,7,-1
 80 547 l 2,8,9
 80 556 80 556 87 556 c 2,10,-1
 243 556 l 2,11,12
 325 556 325 556 387.5 527.5 c 128,-1,13
 450 499 450 499 485.5 439.5 c 128,-1,14
 521 380 521 380 521 286 c 0,15,16
 521 187 521 187 485.5 123.5 c 128,-1,17
 450 60 450 60 386 30 c 128,-1,18
 322 0 322 0 236 0 c 2,19,-1
 87 0 l 2,20,21
 80 0 80 0 80 9 c 2,22,-1
 80 244 l 1,0,-1
155 71 m 1,23,-1
 245 71 l 2,24,25
 341 71 341 71 391.5 123.5 c 128,-1,26
 442 176 442 176 442 283 c 0,27,28
 442 394 442 394 390.5 439.5 c 128,-1,29
 339 485 339 485 240 485 c 2,30,-1
 155 485 l 1,31,-1
 155 315 l 1,32,-1
 283 315 l 2,33,34
 328 315 328 315 328 272 c 2,35,-1
 328 256 l 2,36,37
 328 244 328 244 317 244 c 2,38,-1
 155 244 l 1,39,-1
 155 71 l 1,23,-1
EndSplineSet
EndChar

StartChar: Ntilde
Encoding: 209 209 142
Width: 528
GlyphClass: 1
Flags: W
LayerCount: 2
Fore
SplineSet
379 681 m 0,0,1
 371 608 371 608 310 608 c 0,2,3
 293 608 293 608 275.5 615 c 128,-1,4
 258 622 258 622 242 629 c 128,-1,5
 226 636 226 636 214 636 c 0,6,7
 204 636 204 636 200 630.5 c 128,-1,8
 196 625 196 625 194 617 c 0,9,10
 193 607 193 607 185 607 c 2,11,-1
 150 607 l 2,12,13
 142 607 142 607 142 616 c 0,14,15
 147 691 147 691 204 691 c 0,16,17
 224 691 224 691 242 684 c 128,-1,18
 260 677 260 677 276 669.5 c 128,-1,19
 292 662 292 662 305 662 c 0,20,21
 320 662 320 662 325 679 c 0,22,23
 328 689 328 689 336 689 c 2,24,-1
 371 689 l 2,25,26
 379 689 379 689 379 681 c 0,0,1
388 138 m 1,27,-1
 388 547 l 2,28,29
 388 556 388 556 396 556 c 2,30,-1
 403 556 l 2,31,32
 463 556 463 556 463 485 c 2,33,-1
 463 9 l 2,34,35
 463 0 463 0 456 0 c 2,36,-1
 402 0 l 2,37,38
 388 0 388 0 380 13 c 2,39,-1
 140 403 l 1,40,-1
 140 9 l 2,41,42
 140 0 140 0 132 0 c 2,43,-1
 72 0 l 2,44,45
 64 0 64 0 64 9 c 2,46,-1
 64 547 l 2,47,48
 64 556 64 556 72 556 c 2,49,-1
 90 556 l 2,50,51
 119 556 119 556 132.5 545 c 128,-1,52
 146 534 146 534 160 511 c 2,53,-1
 388 138 l 1,27,-1
EndSplineSet
EndChar

StartChar: Ograve
Encoding: 210 210 143
Width: 602
GlyphClass: 1
Flags: W
LayerCount: 2
Fore
SplineSet
380 617 m 2,0,1
 384 615 384 615 382.5 611.5 c 128,-1,2
 381 608 381 608 376 608 c 2,3,-1
 324 608 l 2,4,5
 307 608 307 608 295 619 c 2,6,-1
 213 684 l 2,7,8
 211 687 211 687 212 690 c 128,-1,9
 213 693 213 693 217 693 c 2,10,-1
 282 693 l 2,11,12
 297 693 297 693 307 683 c 2,13,-1
 380 617 l 2,0,1
301 -10 m 0,14,15
 182 -10 182 -10 115.5 67.5 c 128,-1,16
 49 145 49 145 49 277 c 0,17,18
 49 365 49 365 79 430 c 128,-1,19
 109 495 109 495 165.5 530.5 c 128,-1,20
 222 566 222 566 301 566 c 256,21,22
 380 566 380 566 436 530.5 c 128,-1,23
 492 495 492 495 522 430 c 128,-1,24
 552 365 552 365 552 277 c 0,25,26
 552 145 552 145 486.5 67.5 c 128,-1,27
 421 -10 421 -10 301 -10 c 0,14,15
301 62 m 256,28,29
 345 62 345 62 385 81 c 128,-1,30
 425 100 425 100 450 146.5 c 128,-1,31
 475 193 475 193 475 277 c 256,32,33
 475 361 475 361 450 408.5 c 128,-1,34
 425 456 425 456 385 475.5 c 128,-1,35
 345 495 345 495 301 495 c 256,36,37
 257 495 257 495 217 475.5 c 128,-1,38
 177 456 177 456 152 408.5 c 128,-1,39
 127 361 127 361 127 277 c 256,40,41
 127 193 127 193 152 146.5 c 128,-1,42
 177 100 177 100 217 81 c 128,-1,43
 257 62 257 62 301 62 c 256,28,29
EndSplineSet
EndChar

StartChar: Oacute
Encoding: 211 211 144
Width: 602
GlyphClass: 1
Flags: W
LayerCount: 2
Fore
SplineSet
220 617 m 2,0,-1
 293 683 l 2,1,2
 304 693 304 693 317 693 c 2,3,-1
 383 693 l 2,4,5
 388 693 388 693 389 690 c 128,-1,6
 390 687 390 687 387 684 c 2,7,-1
 306 619 l 2,8,9
 294 608 294 608 277 608 c 2,10,-1
 224 608 l 2,11,12
 220 608 220 608 218.5 611.5 c 128,-1,13
 217 615 217 615 220 617 c 2,0,-1
301 -10 m 0,14,15
 182 -10 182 -10 115.5 67.5 c 128,-1,16
 49 145 49 145 49 277 c 0,17,18
 49 365 49 365 79 430 c 128,-1,19
 109 495 109 495 165.5 530.5 c 128,-1,20
 222 566 222 566 301 566 c 256,21,22
 380 566 380 566 436 530.5 c 128,-1,23
 492 495 492 495 522 430 c 128,-1,24
 552 365 552 365 552 277 c 0,25,26
 552 145 552 145 486.5 67.5 c 128,-1,27
 421 -10 421 -10 301 -10 c 0,14,15
301 62 m 256,28,29
 345 62 345 62 385 81 c 128,-1,30
 425 100 425 100 450 146.5 c 128,-1,31
 475 193 475 193 475 277 c 256,32,33
 475 361 475 361 450 408.5 c 128,-1,34
 425 456 425 456 385 475.5 c 128,-1,35
 345 495 345 495 301 495 c 256,36,37
 257 495 257 495 217 475.5 c 128,-1,38
 177 456 177 456 152 408.5 c 128,-1,39
 127 361 127 361 127 277 c 256,40,41
 127 193 127 193 152 146.5 c 128,-1,42
 177 100 177 100 217 81 c 128,-1,43
 257 62 257 62 301 62 c 256,28,29
EndSplineSet
EndChar

StartChar: Ocircumflex
Encoding: 212 212 145
Width: 602
GlyphClass: 1
Flags: W
LayerCount: 2
Fore
SplineSet
300 663 m 1,0,-1
 260 620 l 2,1,2
 249 608 249 608 231 608 c 2,3,-1
 184 608 l 2,4,5
 180 608 180 608 178.5 611.5 c 128,-1,6
 177 615 177 615 180 617 c 2,7,-1
 248 683 l 2,8,9
 255 690 255 690 260 691.5 c 128,-1,10
 265 693 265 693 273 693 c 2,11,-1
 327 693 l 2,12,13
 336 693 336 693 340.5 691.5 c 128,-1,14
 345 690 345 690 351 683 c 2,15,-1
 421 617 l 2,16,17
 423 615 423 615 422 611.5 c 128,-1,18
 421 608 421 608 417 608 c 2,19,-1
 370 608 l 2,20,21
 353 608 353 608 341 620 c 2,22,-1
 300 663 l 1,0,-1
301 -10 m 0,23,24
 182 -10 182 -10 115.5 67.5 c 128,-1,25
 49 145 49 145 49 277 c 0,26,27
 49 365 49 365 79 430 c 128,-1,28
 109 495 109 495 165.5 530.5 c 128,-1,29
 222 566 222 566 301 566 c 256,30,31
 380 566 380 566 436 530.5 c 128,-1,32
 492 495 492 495 522 430 c 128,-1,33
 552 365 552 365 552 277 c 0,34,35
 552 145 552 145 486.5 67.5 c 128,-1,36
 421 -10 421 -10 301 -10 c 0,23,24
301 62 m 256,37,38
 345 62 345 62 385 81 c 128,-1,39
 425 100 425 100 450 146.5 c 128,-1,40
 475 193 475 193 475 277 c 256,41,42
 475 361 475 361 450 408.5 c 128,-1,43
 425 456 425 456 385 475.5 c 128,-1,44
 345 495 345 495 301 495 c 256,45,46
 257 495 257 495 217 475.5 c 128,-1,47
 177 456 177 456 152 408.5 c 128,-1,48
 127 361 127 361 127 277 c 256,49,50
 127 193 127 193 152 146.5 c 128,-1,51
 177 100 177 100 217 81 c 128,-1,52
 257 62 257 62 301 62 c 256,37,38
EndSplineSet
EndChar

StartChar: Otilde
Encoding: 213 213 146
Width: 602
GlyphClass: 1
Flags: W
LayerCount: 2
Fore
SplineSet
417 681 m 0,0,1
 409 608 409 608 348 608 c 0,2,3
 331 608 331 608 313.5 615 c 128,-1,4
 296 622 296 622 280 629 c 128,-1,5
 264 636 264 636 252 636 c 0,6,7
 243 636 243 636 238.5 630.5 c 128,-1,8
 234 625 234 625 232 617 c 0,9,10
 231 607 231 607 223 607 c 2,11,-1
 188 607 l 2,12,13
 181 607 181 607 181 616 c 0,14,15
 183 652 183 652 199 671.5 c 128,-1,16
 215 691 215 691 242 691 c 0,17,18
 262 691 262 691 280 684 c 128,-1,19
 298 677 298 677 314 669.5 c 128,-1,20
 330 662 330 662 343 662 c 0,21,22
 360 662 360 662 363 679 c 0,23,24
 367 689 367 689 375 689 c 2,25,-1
 409 689 l 2,26,27
 417 689 417 689 417 681 c 0,0,1
301 -10 m 0,28,29
 182 -10 182 -10 115.5 67.5 c 128,-1,30
 49 145 49 145 49 277 c 0,31,32
 49 365 49 365 79 430 c 128,-1,33
 109 495 109 495 165.5 530.5 c 128,-1,34
 222 566 222 566 301 566 c 256,35,36
 380 566 380 566 436 530.5 c 128,-1,37
 492 495 492 495 522 430 c 128,-1,38
 552 365 552 365 552 277 c 0,39,40
 552 145 552 145 486.5 67.5 c 128,-1,41
 421 -10 421 -10 301 -10 c 0,28,29
301 62 m 256,42,43
 345 62 345 62 385 81 c 128,-1,44
 425 100 425 100 450 146.5 c 128,-1,45
 475 193 475 193 475 277 c 256,46,47
 475 361 475 361 450 408.5 c 128,-1,48
 425 456 425 456 385 475.5 c 128,-1,49
 345 495 345 495 301 495 c 256,50,51
 257 495 257 495 217 475.5 c 128,-1,52
 177 456 177 456 152 408.5 c 128,-1,53
 127 361 127 361 127 277 c 256,54,55
 127 193 127 193 152 146.5 c 128,-1,56
 177 100 177 100 217 81 c 128,-1,57
 257 62 257 62 301 62 c 256,42,43
EndSplineSet
EndChar

StartChar: Odieresis
Encoding: 214 214 147
Width: 602
GlyphClass: 1
Flags: W
LayerCount: 2
Fore
SplineSet
188 645 m 0,0,1
 188 665 188 665 201 678 c 128,-1,2
 214 691 214 691 233 691 c 256,3,4
 252 691 252 691 265 678 c 128,-1,5
 278 665 278 665 278 645 c 0,6,7
 278 626 278 626 265 613 c 128,-1,8
 252 600 252 600 233 600 c 256,9,10
 214 600 214 600 201 613 c 128,-1,11
 188 626 188 626 188 645 c 0,0,1
325 645 m 0,12,13
 325 665 325 665 338 678 c 128,-1,14
 351 691 351 691 370 691 c 0,15,16
 388 691 388 691 401 678 c 128,-1,17
 414 665 414 665 414 645 c 0,18,19
 414 626 414 626 401 613 c 128,-1,20
 388 600 388 600 370 600 c 0,21,22
 351 600 351 600 338 613 c 128,-1,23
 325 626 325 626 325 645 c 0,12,13
301 -10 m 0,24,25
 182 -10 182 -10 115.5 67.5 c 128,-1,26
 49 145 49 145 49 277 c 0,27,28
 49 365 49 365 79 430 c 128,-1,29
 109 495 109 495 165.5 530.5 c 128,-1,30
 222 566 222 566 301 566 c 256,31,32
 380 566 380 566 436 530.5 c 128,-1,33
 492 495 492 495 522 430 c 128,-1,34
 552 365 552 365 552 277 c 0,35,36
 552 145 552 145 486.5 67.5 c 128,-1,37
 421 -10 421 -10 301 -10 c 0,24,25
301 62 m 256,38,39
 345 62 345 62 385 81 c 128,-1,40
 425 100 425 100 450 146.5 c 128,-1,41
 475 193 475 193 475 277 c 256,42,43
 475 361 475 361 450 408.5 c 128,-1,44
 425 456 425 456 385 475.5 c 128,-1,45
 345 495 345 495 301 495 c 256,46,47
 257 495 257 495 217 475.5 c 128,-1,48
 177 456 177 456 152 408.5 c 128,-1,49
 127 361 127 361 127 277 c 256,50,51
 127 193 127 193 152 146.5 c 128,-1,52
 177 100 177 100 217 81 c 128,-1,53
 257 62 257 62 301 62 c 256,38,39
EndSplineSet
EndChar

StartChar: multiply
Encoding: 215 215 148
Width: 403
GlyphClass: 1
Flags: W
LayerCount: 2
Fore
SplineSet
160 274 m 1,0,-1
 48 386 l 2,1,2
 41 391 41 391 47 398 c 0,3,4
 69 419 69 419 86.5 417 c 128,-1,5
 104 415 104 415 126 393 c 2,6,-1
 203 317 l 1,7,-1
 309 422 l 2,8,9
 313 428 313 428 319 422 c 2,10,-1
 350 392 l 2,11,12
 357 386 357 386 350 379 c 2,13,-1
 246 274 l 1,14,-1
 357 162 l 2,15,16
 363 156 363 156 357 150 c 0,17,18
 336 128 336 128 318.5 130.5 c 128,-1,19
 301 133 301 133 277 155 c 2,20,-1
 202 232 l 1,21,-1
 97 126 l 2,22,23
 91 120 91 120 85 126 c 2,24,-1
 54 156 l 2,25,26
 47 161 47 161 54 168 c 2,27,-1
 160 274 l 1,0,-1
EndSplineSet
EndChar

StartChar: Oslash
Encoding: 216 216 149
Width: 602
GlyphClass: 1
Flags: W
LayerCount: 2
Fore
SplineSet
301 -10 m 0,0,1
 182 -10 182 -10 115.5 67.5 c 128,-1,2
 49 145 49 145 49 277 c 0,3,4
 49 365 49 365 79 430 c 128,-1,5
 109 495 109 495 165.5 531 c 128,-1,6
 222 567 222 567 301 567 c 256,7,8
 380 567 380 567 436 531 c 128,-1,9
 492 495 492 495 522 430 c 128,-1,10
 552 365 552 365 552 277 c 0,11,12
 552 145 552 145 486.5 67.5 c 128,-1,13
 421 -10 421 -10 301 -10 c 0,0,1
166 125 m 1,14,-1
 387 472 l 1,15,16
 367 485 367 485 345.5 490 c 128,-1,17
 324 495 324 495 301 495 c 0,18,19
 257 495 257 495 217 475.5 c 128,-1,20
 177 456 177 456 152 408.5 c 128,-1,21
 127 361 127 361 127 277 c 0,22,23
 127 225 127 225 137.5 187.5 c 128,-1,24
 148 150 148 150 166 125 c 1,14,-1
436 428 m 1,25,-1
 216 82 l 1,26,27
 236 72 236 72 257.5 67 c 128,-1,28
 279 62 279 62 301 62 c 0,29,30
 345 62 345 62 385 81 c 128,-1,31
 425 100 425 100 450 146.5 c 128,-1,32
 475 193 475 193 475 277 c 0,33,34
 475 329 475 329 464.5 366.5 c 128,-1,35
 454 404 454 404 436 428 c 1,25,-1
EndSplineSet
EndChar

StartChar: Ugrave
Encoding: 217 217 150
Width: 521
GlyphClass: 1
Flags: W
LayerCount: 2
Fore
SplineSet
324 617 m 2,0,1
 327 615 327 615 326 611.5 c 128,-1,2
 325 608 325 608 320 608 c 2,3,-1
 267 608 l 2,4,5
 250 608 250 608 239 619 c 2,6,-1
 157 684 l 2,7,8
 154 687 154 687 155.5 690 c 128,-1,9
 157 693 157 693 161 693 c 2,10,-1
 225 693 l 2,11,12
 240 693 240 693 250 683 c 2,13,-1
 324 617 l 2,0,1
262 -10 m 0,14,15
 203 -10 203 -10 164 8.5 c 128,-1,16
 125 27 125 27 103 57.5 c 128,-1,17
 81 88 81 88 72 125 c 128,-1,18
 63 162 63 162 63 199 c 2,19,-1
 63 547 l 2,20,21
 63 556 63 556 71 556 c 2,22,-1
 78 556 l 2,23,24
 139 556 139 556 139 485 c 2,25,-1
 139 212 l 2,26,27
 139 146 139 146 165.5 103.5 c 128,-1,28
 192 61 192 61 261 61 c 0,29,30
 308 61 308 61 335.5 81 c 128,-1,31
 363 101 363 101 375 135.5 c 128,-1,32
 387 170 387 170 387 213 c 2,33,-1
 387 547 l 2,34,35
 387 556 387 556 395 556 c 2,36,-1
 402 556 l 2,37,38
 462 556 462 556 462 485 c 2,39,-1
 462 201 l 2,40,41
 462 170 462 170 453.5 133.5 c 128,-1,42
 445 97 445 97 423.5 64 c 128,-1,43
 402 31 402 31 363 10.5 c 128,-1,44
 324 -10 324 -10 262 -10 c 0,14,15
EndSplineSet
EndChar

StartChar: Uacute
Encoding: 218 218 151
Width: 521
GlyphClass: 1
Flags: W
LayerCount: 2
Fore
SplineSet
176 617 m 2,0,-1
 249 683 l 2,1,2
 259 693 259 693 273 693 c 2,3,-1
 339 693 l 2,4,5
 344 693 344 693 345 690 c 128,-1,6
 346 687 346 687 342 684 c 2,7,-1
 261 619 l 2,8,9
 249 608 249 608 232 608 c 2,10,-1
 180 608 l 2,11,12
 176 608 176 608 174.5 611.5 c 128,-1,13
 173 615 173 615 176 617 c 2,0,-1
262 -10 m 0,14,15
 203 -10 203 -10 164 8.5 c 128,-1,16
 125 27 125 27 103 57.5 c 128,-1,17
 81 88 81 88 72 125 c 128,-1,18
 63 162 63 162 63 199 c 2,19,-1
 63 547 l 2,20,21
 63 556 63 556 71 556 c 2,22,-1
 78 556 l 2,23,24
 139 556 139 556 139 485 c 2,25,-1
 139 212 l 2,26,27
 139 146 139 146 165.5 103.5 c 128,-1,28
 192 61 192 61 261 61 c 0,29,30
 308 61 308 61 335.5 81 c 128,-1,31
 363 101 363 101 375 135.5 c 128,-1,32
 387 170 387 170 387 213 c 2,33,-1
 387 547 l 2,34,35
 387 556 387 556 395 556 c 2,36,-1
 402 556 l 2,37,38
 462 556 462 556 462 485 c 2,39,-1
 462 201 l 2,40,41
 462 170 462 170 453.5 133.5 c 128,-1,42
 445 97 445 97 423.5 64 c 128,-1,43
 402 31 402 31 363 10.5 c 128,-1,44
 324 -10 324 -10 262 -10 c 0,14,15
EndSplineSet
EndChar

StartChar: Ucircumflex
Encoding: 219 219 152
Width: 521
GlyphClass: 1
Flags: W
LayerCount: 2
Fore
SplineSet
260 663 m 1,0,-1
 220 620 l 2,1,2
 209 608 209 608 191 608 c 2,3,-1
 144 608 l 2,4,5
 140 608 140 608 138.5 611.5 c 128,-1,6
 137 615 137 615 140 617 c 2,7,-1
 209 683 l 2,8,9
 215 690 215 690 220 691.5 c 128,-1,10
 225 693 225 693 234 693 c 2,11,-1
 287 693 l 2,12,13
 296 693 296 693 300.5 691.5 c 128,-1,14
 305 690 305 690 311 683 c 2,15,-1
 381 617 l 2,16,17
 383 615 383 615 382 611.5 c 128,-1,18
 381 608 381 608 377 608 c 2,19,-1
 330 608 l 2,20,21
 313 608 313 608 301 620 c 2,22,-1
 260 663 l 1,0,-1
262 -10 m 0,23,24
 203 -10 203 -10 164 8.5 c 128,-1,25
 125 27 125 27 103 57.5 c 128,-1,26
 81 88 81 88 72 125 c 128,-1,27
 63 162 63 162 63 199 c 2,28,-1
 63 547 l 2,29,30
 63 556 63 556 71 556 c 2,31,-1
 78 556 l 2,32,33
 139 556 139 556 139 485 c 2,34,-1
 139 212 l 2,35,36
 139 146 139 146 165.5 103.5 c 128,-1,37
 192 61 192 61 261 61 c 0,38,39
 308 61 308 61 335.5 81 c 128,-1,40
 363 101 363 101 375 135.5 c 128,-1,41
 387 170 387 170 387 213 c 2,42,-1
 387 547 l 2,43,44
 387 556 387 556 395 556 c 2,45,-1
 402 556 l 2,46,47
 462 556 462 556 462 485 c 2,48,-1
 462 201 l 2,49,50
 462 170 462 170 453.5 133.5 c 128,-1,51
 445 97 445 97 423.5 64 c 128,-1,52
 402 31 402 31 363 10.5 c 128,-1,53
 324 -10 324 -10 262 -10 c 0,23,24
EndSplineSet
EndChar

StartChar: Udieresis
Encoding: 220 220 153
Width: 521
GlyphClass: 1
Flags: W
LayerCount: 2
Fore
SplineSet
144 645 m 0,0,1
 144 665 144 665 157 678 c 128,-1,2
 170 691 170 691 189 691 c 256,3,4
 208 691 208 691 221 678 c 128,-1,5
 234 665 234 665 234 645 c 0,6,7
 234 626 234 626 221 613 c 128,-1,8
 208 600 208 600 189 600 c 256,9,10
 170 600 170 600 157 613 c 128,-1,11
 144 626 144 626 144 645 c 0,0,1
280 645 m 0,12,13
 280 665 280 665 293 678 c 128,-1,14
 306 691 306 691 325 691 c 256,15,16
 344 691 344 691 357 678 c 128,-1,17
 370 665 370 665 370 645 c 0,18,19
 370 626 370 626 357 613 c 128,-1,20
 344 600 344 600 325 600 c 256,21,22
 306 600 306 600 293 613 c 128,-1,23
 280 626 280 626 280 645 c 0,12,13
262 -10 m 0,24,25
 203 -10 203 -10 164 8.5 c 128,-1,26
 125 27 125 27 103 57.5 c 128,-1,27
 81 88 81 88 72 125 c 128,-1,28
 63 162 63 162 63 199 c 2,29,-1
 63 547 l 2,30,31
 63 556 63 556 71 556 c 2,32,-1
 78 556 l 2,33,34
 139 556 139 556 139 485 c 2,35,-1
 139 212 l 2,36,37
 139 146 139 146 165.5 103.5 c 128,-1,38
 192 61 192 61 261 61 c 0,39,40
 308 61 308 61 335.5 81 c 128,-1,41
 363 101 363 101 375 135.5 c 128,-1,42
 387 170 387 170 387 213 c 2,43,-1
 387 547 l 2,44,45
 387 556 387 556 395 556 c 2,46,-1
 402 556 l 2,47,48
 462 556 462 556 462 485 c 2,49,-1
 462 201 l 2,50,51
 462 170 462 170 453.5 133.5 c 128,-1,52
 445 97 445 97 423.5 64 c 128,-1,53
 402 31 402 31 363 10.5 c 128,-1,54
 324 -10 324 -10 262 -10 c 0,24,25
EndSplineSet
EndChar

StartChar: Yacute
Encoding: 221 221 154
Width: 445
GlyphClass: 1
Flags: W
LayerCount: 2
Fore
SplineSet
151 617 m 2,0,-1
 225 683 l 2,1,2
 235 693 235 693 249 693 c 2,3,-1
 314 693 l 2,4,5
 319 693 319 693 320 690 c 128,-1,6
 321 687 321 687 318 684 c 2,7,-1
 237 619 l 2,8,9
 225 608 225 608 208 608 c 2,10,-1
 155 608 l 2,11,12
 151 608 151 608 149.5 611.5 c 128,-1,13
 148 615 148 615 151 617 c 2,0,-1
186 213 m 1,14,-1
 5 547 l 2,15,16
 1 556 1 556 11 556 c 2,17,-1
 39 556 l 2,18,19
 65 556 65 556 81 544.5 c 128,-1,20
 97 533 97 533 112 506 c 2,21,-1
 226 292 l 1,22,-1
 360 543 l 2,23,24
 366 556 366 556 377 556 c 2,25,-1
 435 556 l 2,26,27
 446 556 446 556 441 544 c 2,28,-1
 261 212 l 1,29,-1
 261 9 l 2,30,31
 261 0 261 0 253 0 c 2,32,-1
 194 0 l 2,33,34
 186 0 186 0 186 9 c 2,35,-1
 186 213 l 1,14,-1
EndSplineSet
EndChar

StartChar: Thorn
Encoding: 222 222 155
Width: 489
GlyphClass: 1
Flags: W
LayerCount: 2
Fore
SplineSet
140 102 m 1,0,-1
 140 9 l 2,1,2
 140 0 140 0 132 0 c 2,3,-1
 72 0 l 2,4,5
 64 0 64 0 64 9 c 2,6,-1
 64 547 l 2,7,8
 64 556 64 556 72 556 c 2,9,-1
 79 556 l 2,10,11
 140 556 140 556 140 485 c 2,12,-1
 140 456 l 1,13,-1
 263 456 l 2,14,15
 356 456 356 456 406 408.5 c 128,-1,16
 456 361 456 361 456 281 c 256,17,18
 456 201 456 201 406 151.5 c 128,-1,19
 356 102 356 102 270 102 c 2,20,-1
 140 102 l 1,0,-1
140 173 m 1,21,-1
 266 173 l 2,22,23
 293 173 293 173 319 182 c 128,-1,24
 345 191 345 191 362 215 c 128,-1,25
 379 239 379 239 379 282 c 0,26,27
 379 332 379 332 348 359 c 128,-1,28
 317 386 317 386 269 386 c 2,29,-1
 140 386 l 1,30,-1
 140 173 l 1,21,-1
EndSplineSet
EndChar

StartChar: germandbls
Encoding: 223 223 156
Width: 453
GlyphClass: 1
Flags: W
LayerCount: 2
Fore
SplineSet
61 0 m 2,0,1
 53 0 53 0 53 9 c 2,2,-1
 53 407 l 2,3,4
 53 484 53 484 98.5 525.5 c 128,-1,5
 144 567 144 567 211 567 c 0,6,7
 263 567 263 567 296 551 c 128,-1,8
 329 535 329 535 345 509.5 c 128,-1,9
 361 484 361 484 361 457 c 0,10,11
 361 431 361 431 349 408 c 128,-1,12
 337 385 337 385 321 365.5 c 128,-1,13
 305 346 305 346 293 329 c 128,-1,14
 281 312 281 312 281 297 c 0,15,16
 281 279 281 279 295.5 264.5 c 128,-1,17
 310 250 310 250 331.5 236.5 c 128,-1,18
 353 223 353 223 375 206 c 128,-1,19
 397 189 397 189 411.5 165.5 c 128,-1,20
 426 142 426 142 426 108 c 0,21,22
 426 56 426 56 390.5 23 c 128,-1,23
 355 -10 355 -10 297 -10 c 0,24,25
 257 -10 257 -10 228.5 4.5 c 128,-1,26
 200 19 200 19 185 40.5 c 128,-1,27
 170 62 170 62 170 82 c 0,28,29
 170 99 170 99 181 99 c 0,30,31
 187 99 187 99 190 94 c 0,32,33
 209 78 209 78 230 65.5 c 128,-1,34
 251 53 251 53 285 53 c 0,35,36
 317 53 317 53 333.5 67 c 128,-1,37
 350 81 350 81 350 103 c 0,38,39
 350 126 350 126 336 142.5 c 128,-1,40
 322 159 322 159 301 173 c 128,-1,41
 280 187 280 187 258.5 202 c 128,-1,42
 237 217 237 217 223 237.5 c 128,-1,43
 209 258 209 258 209 287 c 0,44,45
 209 310 209 310 221 330 c 128,-1,46
 233 350 233 350 248 368 c 128,-1,47
 263 386 263 386 275 404 c 128,-1,48
 287 422 287 422 287 441 c 0,49,50
 287 464 287 464 267.5 482.5 c 128,-1,51
 248 501 248 501 209 501 c 0,52,53
 172 501 172 501 149.5 476 c 128,-1,54
 127 451 127 451 127 404 c 2,55,-1
 127 9 l 2,56,57
 127 0 127 0 120 0 c 2,58,-1
 61 0 l 2,0,1
EndSplineSet
EndChar

StartChar: agrave
Encoding: 224 224 157
Width: 459
GlyphClass: 1
Flags: W
LayerCount: 2
Fore
SplineSet
294 439 m 2,0,1
 297 437 297 437 296 433.5 c 128,-1,2
 295 430 295 430 290 430 c 2,3,-1
 238 430 l 2,4,5
 221 430 221 430 209 441 c 2,6,-1
 127 507 l 2,7,8
 124 509 124 509 125.5 512.5 c 128,-1,9
 127 516 127 516 131 516 c 2,10,-1
 195 516 l 2,11,12
 205 516 205 516 210 513.5 c 128,-1,13
 215 511 215 511 220 506 c 2,14,-1
 294 439 l 2,0,1
331 52 m 1,15,16
 309 21 309 21 278 6 c 128,-1,17
 247 -9 247 -9 209 -9 c 0,18,19
 154 -9 154 -9 115.5 17 c 128,-1,20
 77 43 77 43 57 87 c 128,-1,21
 37 131 37 131 37 184 c 0,22,23
 37 240 37 240 59 283.5 c 128,-1,24
 81 327 81 327 120.5 352 c 128,-1,25
 160 377 160 377 212 377 c 0,26,27
 254 377 254 377 285.5 361 c 128,-1,28
 317 345 317 345 335 319 c 1,29,30
 340 345 340 345 355 356.5 c 128,-1,31
 370 368 370 368 393 368 c 2,32,-1
 398 368 l 2,33,34
 405 368 405 368 405 359 c 2,35,-1
 405 9 l 2,36,37
 405 0 405 0 398 0 c 2,38,-1
 339 0 l 2,39,40
 331 0 331 0 331 9 c 2,41,-1
 331 52 l 1,15,16
220 61 m 0,42,43
 245 61 245 61 270.5 71.5 c 128,-1,44
 296 82 296 82 313.5 109 c 128,-1,45
 331 136 331 136 331 184 c 0,46,47
 331 233 331 233 313.5 259.5 c 128,-1,48
 296 286 296 286 271 296 c 128,-1,49
 246 306 246 306 223 306 c 0,50,51
 180 306 180 306 147 276 c 128,-1,52
 114 246 114 246 114 184 c 0,53,54
 114 139 114 139 130.5 112 c 128,-1,55
 147 85 147 85 171.5 73 c 128,-1,56
 196 61 196 61 220 61 c 0,42,43
EndSplineSet
EndChar

StartChar: aacute
Encoding: 225 225 158
Width: 459
GlyphClass: 1
Flags: W
LayerCount: 2
Fore
SplineSet
145 439 m 2,0,-1
 218 506 l 2,1,2
 224 511 224 511 229 513.5 c 128,-1,3
 234 516 234 516 242 516 c 2,4,-1
 308 516 l 2,5,6
 313 516 313 516 314 512.5 c 128,-1,7
 315 509 315 509 311 507 c 2,8,-1
 230 441 l 2,9,10
 218 430 218 430 201 430 c 2,11,-1
 149 430 l 2,12,13
 145 430 145 430 143.5 433.5 c 128,-1,14
 142 437 142 437 145 439 c 2,0,-1
331 52 m 1,15,16
 309 21 309 21 278 6 c 128,-1,17
 247 -9 247 -9 209 -9 c 0,18,19
 154 -9 154 -9 115.5 17 c 128,-1,20
 77 43 77 43 57 87 c 128,-1,21
 37 131 37 131 37 184 c 0,22,23
 37 240 37 240 59 283.5 c 128,-1,24
 81 327 81 327 120.5 352 c 128,-1,25
 160 377 160 377 212 377 c 0,26,27
 254 377 254 377 285.5 361 c 128,-1,28
 317 345 317 345 335 319 c 1,29,30
 340 345 340 345 355 356.5 c 128,-1,31
 370 368 370 368 393 368 c 2,32,-1
 398 368 l 2,33,34
 405 368 405 368 405 359 c 2,35,-1
 405 9 l 2,36,37
 405 0 405 0 398 0 c 2,38,-1
 339 0 l 2,39,40
 331 0 331 0 331 9 c 2,41,-1
 331 52 l 1,15,16
220 61 m 0,42,43
 245 61 245 61 270.5 71.5 c 128,-1,44
 296 82 296 82 313.5 109 c 128,-1,45
 331 136 331 136 331 184 c 0,46,47
 331 233 331 233 313.5 259.5 c 128,-1,48
 296 286 296 286 271 296 c 128,-1,49
 246 306 246 306 223 306 c 0,50,51
 180 306 180 306 147 276 c 128,-1,52
 114 246 114 246 114 184 c 0,53,54
 114 139 114 139 130.5 112 c 128,-1,55
 147 85 147 85 171.5 73 c 128,-1,56
 196 61 196 61 220 61 c 0,42,43
EndSplineSet
EndChar

StartChar: acircumflex
Encoding: 226 226 159
Width: 459
GlyphClass: 1
Flags: W
LayerCount: 2
Fore
SplineSet
228 485 m 1,0,-1
 188 442 l 2,1,2
 177 430 177 430 159 430 c 2,3,-1
 112 430 l 2,4,5
 108 430 108 430 106.5 433.5 c 128,-1,6
 105 437 105 437 108 439 c 2,7,-1
 176 506 l 2,8,9
 187 516 187 516 201 516 c 2,10,-1
 255 516 l 2,11,12
 269 516 269 516 279 506 c 2,13,-1
 349 439 l 2,14,15
 351 437 351 437 350 433.5 c 128,-1,16
 349 430 349 430 345 430 c 2,17,-1
 298 430 l 2,18,19
 281 430 281 430 269 442 c 2,20,-1
 228 485 l 1,0,-1
331 52 m 1,21,22
 309 21 309 21 278 6 c 128,-1,23
 247 -9 247 -9 209 -9 c 0,24,25
 154 -9 154 -9 115.5 17 c 128,-1,26
 77 43 77 43 57 87 c 128,-1,27
 37 131 37 131 37 184 c 0,28,29
 37 240 37 240 59 283.5 c 128,-1,30
 81 327 81 327 120.5 352 c 128,-1,31
 160 377 160 377 212 377 c 0,32,33
 254 377 254 377 285.5 361 c 128,-1,34
 317 345 317 345 335 319 c 1,35,36
 340 345 340 345 355 356.5 c 128,-1,37
 370 368 370 368 393 368 c 2,38,-1
 398 368 l 2,39,40
 405 368 405 368 405 359 c 2,41,-1
 405 9 l 2,42,43
 405 0 405 0 398 0 c 2,44,-1
 339 0 l 2,45,46
 331 0 331 0 331 9 c 2,47,-1
 331 52 l 1,21,22
220 61 m 0,48,49
 245 61 245 61 270.5 71.5 c 128,-1,50
 296 82 296 82 313.5 109 c 128,-1,51
 331 136 331 136 331 184 c 0,52,53
 331 233 331 233 313.5 259.5 c 128,-1,54
 296 286 296 286 271 296 c 128,-1,55
 246 306 246 306 223 306 c 0,56,57
 180 306 180 306 147 276 c 128,-1,58
 114 246 114 246 114 184 c 0,59,60
 114 139 114 139 130.5 112 c 128,-1,61
 147 85 147 85 171.5 73 c 128,-1,62
 196 61 196 61 220 61 c 0,48,49
EndSplineSet
EndChar

StartChar: atilde
Encoding: 227 227 160
Width: 459
GlyphClass: 1
Flags: W
LayerCount: 2
Fore
SplineSet
345 503 m 0,0,1
 337 430 337 430 276 430 c 0,2,3
 259 430 259 430 241 437 c 128,-1,4
 223 444 223 444 207.5 451 c 128,-1,5
 192 458 192 458 180 458 c 0,6,7
 170 458 170 458 166 452.5 c 128,-1,8
 162 447 162 447 160 439 c 0,9,10
 159 429 159 429 151 429 c 2,11,-1
 116 429 l 2,12,13
 108 429 108 429 108 438 c 0,14,15
 113 513 113 513 170 513 c 0,16,17
 190 513 190 513 208 506 c 128,-1,18
 226 499 226 499 242 491.5 c 128,-1,19
 258 484 258 484 271 484 c 0,20,21
 287 484 287 484 291 502 c 0,22,23
 294 512 294 512 302 512 c 2,24,-1
 336 512 l 2,25,26
 345 512 345 512 345 503 c 0,0,1
331 52 m 1,27,28
 309 21 309 21 278 6 c 128,-1,29
 247 -9 247 -9 209 -9 c 0,30,31
 154 -9 154 -9 115.5 17 c 128,-1,32
 77 43 77 43 57 87 c 128,-1,33
 37 131 37 131 37 184 c 0,34,35
 37 240 37 240 59 283.5 c 128,-1,36
 81 327 81 327 120.5 352 c 128,-1,37
 160 377 160 377 212 377 c 0,38,39
 254 377 254 377 285.5 361 c 128,-1,40
 317 345 317 345 335 319 c 1,41,42
 340 345 340 345 355 356.5 c 128,-1,43
 370 368 370 368 393 368 c 2,44,-1
 398 368 l 2,45,46
 405 368 405 368 405 359 c 2,47,-1
 405 9 l 2,48,49
 405 0 405 0 398 0 c 2,50,-1
 339 0 l 2,51,52
 331 0 331 0 331 9 c 2,53,-1
 331 52 l 1,27,28
220 61 m 0,54,55
 245 61 245 61 270.5 71.5 c 128,-1,56
 296 82 296 82 313.5 109 c 128,-1,57
 331 136 331 136 331 184 c 0,58,59
 331 233 331 233 313.5 259.5 c 128,-1,60
 296 286 296 286 271 296 c 128,-1,61
 246 306 246 306 223 306 c 0,62,63
 180 306 180 306 147 276 c 128,-1,64
 114 246 114 246 114 184 c 0,65,66
 114 139 114 139 130.5 112 c 128,-1,67
 147 85 147 85 171.5 73 c 128,-1,68
 196 61 196 61 220 61 c 0,54,55
EndSplineSet
EndChar

StartChar: adieresis
Encoding: 228 228 161
Width: 459
GlyphClass: 1
Flags: W
LayerCount: 2
Fore
SplineSet
107 467 m 0,0,1
 107 487 107 487 120 500 c 128,-1,2
 133 513 133 513 151 513 c 0,3,4
 170 513 170 513 183 500 c 128,-1,5
 196 487 196 487 196 467 c 0,6,7
 196 448 196 448 183 435 c 128,-1,8
 170 422 170 422 151 422 c 0,9,10
 133 422 133 422 120 435 c 128,-1,11
 107 448 107 448 107 467 c 0,0,1
243 467 m 0,12,13
 243 487 243 487 256 500 c 128,-1,14
 269 513 269 513 288 513 c 256,15,16
 307 513 307 513 320 500 c 128,-1,17
 333 487 333 487 333 467 c 0,18,19
 333 448 333 448 320 435 c 128,-1,20
 307 422 307 422 288 422 c 256,21,22
 269 422 269 422 256 435 c 128,-1,23
 243 448 243 448 243 467 c 0,12,13
331 52 m 1,24,25
 309 21 309 21 278 6 c 128,-1,26
 247 -9 247 -9 209 -9 c 0,27,28
 154 -9 154 -9 115.5 17 c 128,-1,29
 77 43 77 43 57 87 c 128,-1,30
 37 131 37 131 37 184 c 0,31,32
 37 240 37 240 59 283.5 c 128,-1,33
 81 327 81 327 120.5 352 c 128,-1,34
 160 377 160 377 212 377 c 0,35,36
 254 377 254 377 285.5 361 c 128,-1,37
 317 345 317 345 335 319 c 1,38,39
 340 345 340 345 355 356.5 c 128,-1,40
 370 368 370 368 393 368 c 2,41,-1
 398 368 l 2,42,43
 405 368 405 368 405 359 c 2,44,-1
 405 9 l 2,45,46
 405 0 405 0 398 0 c 2,47,-1
 339 0 l 2,48,49
 331 0 331 0 331 9 c 2,50,-1
 331 52 l 1,24,25
220 61 m 0,51,52
 245 61 245 61 270.5 71.5 c 128,-1,53
 296 82 296 82 313.5 109 c 128,-1,54
 331 136 331 136 331 184 c 0,55,56
 331 233 331 233 313.5 259.5 c 128,-1,57
 296 286 296 286 271 296 c 128,-1,58
 246 306 246 306 223 306 c 0,59,60
 180 306 180 306 147 276 c 128,-1,61
 114 246 114 246 114 184 c 0,62,63
 114 139 114 139 130.5 112 c 128,-1,64
 147 85 147 85 171.5 73 c 128,-1,65
 196 61 196 61 220 61 c 0,51,52
EndSplineSet
EndChar

StartChar: aring
Encoding: 229 229 162
Width: 459
GlyphClass: 1
Flags: W
LayerCount: 2
Fore
SplineSet
149 489 m 256,0,1
 149 518 149 518 170 538.5 c 128,-1,2
 191 559 191 559 220 559 c 256,3,4
 249 559 249 559 269.5 538.5 c 128,-1,5
 290 518 290 518 290 489 c 256,6,7
 290 460 290 460 269.5 439.5 c 128,-1,8
 249 419 249 419 220 419 c 256,9,10
 191 419 191 419 170 439.5 c 128,-1,11
 149 460 149 460 149 489 c 256,0,1
220 455 m 256,12,13
 234 455 234 455 243.5 465 c 128,-1,14
 253 475 253 475 253 489 c 0,15,16
 253 504 253 504 243.5 514 c 128,-1,17
 234 524 234 524 220 524 c 256,18,19
 206 524 206 524 196 514 c 128,-1,20
 186 504 186 504 186 489 c 0,21,22
 186 475 186 475 196 465 c 128,-1,23
 206 455 206 455 220 455 c 256,12,13
331 52 m 1,24,25
 309 21 309 21 278 6 c 128,-1,26
 247 -9 247 -9 209 -9 c 0,27,28
 154 -9 154 -9 115.5 17 c 128,-1,29
 77 43 77 43 57 87 c 128,-1,30
 37 131 37 131 37 184 c 0,31,32
 37 240 37 240 59 283.5 c 128,-1,33
 81 327 81 327 120.5 352 c 128,-1,34
 160 377 160 377 212 377 c 0,35,36
 254 377 254 377 285.5 361 c 128,-1,37
 317 345 317 345 335 319 c 1,38,39
 340 345 340 345 355 356.5 c 128,-1,40
 370 368 370 368 393 368 c 2,41,-1
 398 368 l 2,42,43
 405 368 405 368 405 359 c 2,44,-1
 405 9 l 2,45,46
 405 0 405 0 398 0 c 2,47,-1
 339 0 l 2,48,49
 331 0 331 0 331 9 c 2,50,-1
 331 52 l 1,24,25
220 61 m 0,51,52
 245 61 245 61 270.5 71.5 c 128,-1,53
 296 82 296 82 313.5 109 c 128,-1,54
 331 136 331 136 331 184 c 0,55,56
 331 233 331 233 313.5 259.5 c 128,-1,57
 296 286 296 286 271 296 c 128,-1,58
 246 306 246 306 223 306 c 0,59,60
 180 306 180 306 147 276 c 128,-1,61
 114 246 114 246 114 184 c 0,62,63
 114 139 114 139 130.5 112 c 128,-1,64
 147 85 147 85 171.5 73 c 128,-1,65
 196 61 196 61 220 61 c 0,51,52
EndSplineSet
EndChar

StartChar: ae
Encoding: 230 230 163
Width: 731
GlyphClass: 1
Flags: W
LayerCount: 2
Fore
SplineSet
406 49 m 1,0,-1
 406 9 l 2,1,2
 406 0 406 0 398 0 c 2,3,-1
 341 0 l 2,4,5
 333 0 333 0 333 9 c 2,6,-1
 333 52 l 1,7,8
 312 21 312 21 280 6 c 128,-1,9
 248 -9 248 -9 210 -9 c 0,10,11
 156 -9 156 -9 117.5 17 c 128,-1,12
 79 43 79 43 58.5 87 c 128,-1,13
 38 131 38 131 38 184 c 0,14,15
 38 240 38 240 60 283.5 c 128,-1,16
 82 327 82 327 121.5 352 c 128,-1,17
 161 377 161 377 213 377 c 0,18,19
 256 377 256 377 287 361 c 128,-1,20
 318 345 318 345 337 319 c 1,21,22
 344 368 344 368 395 368 c 2,23,-1
 398 368 l 2,24,25
 406 368 406 368 406 360 c 2,26,-1
 406 319 l 1,27,28
 429 346 429 346 461.5 361.5 c 128,-1,29
 494 377 494 377 534 377 c 0,30,31
 593 377 593 377 628.5 352.5 c 128,-1,32
 664 328 664 328 680 290 c 128,-1,33
 696 252 696 252 696 209 c 0,34,35
 696 196 696 196 695.5 186.5 c 128,-1,36
 695 177 695 177 694 169 c 0,37,38
 693 157 693 157 679 157 c 2,39,-1
 434 157 l 1,40,41
 439 105 439 105 472.5 80.5 c 128,-1,42
 506 56 506 56 555 56 c 0,43,44
 597 56 597 56 621.5 67 c 128,-1,45
 646 78 646 78 666 93 c 0,46,47
 670 96 670 96 673 98.5 c 128,-1,48
 676 101 676 101 680 101 c 0,49,50
 685 101 685 101 687 96.5 c 128,-1,51
 689 92 689 92 689 87 c 0,52,53
 689 67 689 67 673.5 44.5 c 128,-1,54
 658 22 658 22 626 6.5 c 128,-1,55
 594 -9 594 -9 546 -9 c 0,56,57
 506 -9 506 -9 469 5 c 128,-1,58
 432 19 432 19 406 49 c 1,0,-1
434 214 m 1,59,-1
 621 214 l 1,60,61
 623 237 623 237 616 259.5 c 128,-1,62
 609 282 609 282 589.5 297 c 128,-1,63
 570 312 570 312 534 312 c 0,64,65
 491 312 491 312 465 286.5 c 128,-1,66
 439 261 439 261 434 214 c 1,59,-1
221 61 m 0,67,68
 246 61 246 61 271.5 71.5 c 128,-1,69
 297 82 297 82 314.5 109 c 128,-1,70
 332 136 332 136 332 184 c 0,71,72
 332 233 332 233 314.5 259.5 c 128,-1,73
 297 286 297 286 272 296 c 128,-1,74
 247 306 247 306 224 306 c 0,75,76
 181 306 181 306 148 276 c 128,-1,77
 115 246 115 246 115 184 c 0,78,79
 115 139 115 139 131.5 112 c 128,-1,80
 148 85 148 85 172.5 73 c 128,-1,81
 197 61 197 61 221 61 c 0,67,68
EndSplineSet
EndChar

StartChar: ccedilla
Encoding: 231 231 164
Width: 363
GlyphClass: 1
Flags: W
LayerCount: 2
Fore
SplineSet
245 -8 m 1,0,-1
 205 -87 l 2,1,2
 201 -94 201 -94 195.5 -96 c 128,-1,3
 190 -98 190 -98 181 -98 c 2,4,-1
 131 -98 l 2,5,6
 127 -98 127 -98 126.5 -95 c 128,-1,7
 126 -92 126 -92 127 -89 c 2,8,-1
 180 -7 l 1,9,10
 116 4 116 4 77 54 c 128,-1,11
 38 104 38 104 38 183 c 0,12,13
 38 242 38 242 61 285.5 c 128,-1,14
 84 329 84 329 125 353 c 128,-1,15
 166 377 166 377 220 377 c 0,16,17
 246 377 246 377 265.5 373.5 c 128,-1,18
 285 370 285 370 304 362 c 0,19,20
 343 346 343 346 332 307 c 2,21,-1
 327 288 l 2,22,23
 325 280 325 280 320 280 c 0,24,25
 317 280 317 280 312 283 c 0,26,27
 290 295 290 295 270.5 301 c 128,-1,28
 251 307 251 307 223 307 c 0,29,30
 176 307 176 307 145.5 274.5 c 128,-1,31
 115 242 115 242 115 182 c 0,32,33
 115 124 115 124 145 90.5 c 128,-1,34
 175 57 175 57 231 57 c 0,35,36
 264 57 264 57 286.5 69 c 128,-1,37
 309 81 309 81 322 94 c 0,38,39
 324 96 324 96 327.5 98.5 c 128,-1,40
 331 101 331 101 334 101 c 0,41,42
 344 101 344 101 344 86 c 0,43,44
 344 58 344 58 319.5 29 c 128,-1,45
 295 0 295 0 245 -8 c 1,0,-1
EndSplineSet
EndChar

StartChar: egrave
Encoding: 232 232 165
Width: 412
GlyphClass: 1
Flags: W
LayerCount: 2
Fore
SplineSet
280 439 m 2,0,1
 283 437 283 437 282 433.5 c 128,-1,2
 281 430 281 430 276 430 c 2,3,-1
 224 430 l 2,4,5
 207 430 207 430 195 441 c 2,6,-1
 113 507 l 2,7,8
 110 509 110 509 111.5 512.5 c 128,-1,9
 113 516 113 516 117 516 c 2,10,-1
 181 516 l 2,11,12
 191 516 191 516 196 513.5 c 128,-1,13
 201 511 201 511 206 506 c 2,14,-1
 280 439 l 2,0,1
111 157 m 1,15,16
 117 105 117 105 149 80.5 c 128,-1,17
 181 56 181 56 233 56 c 0,18,19
 275 56 275 56 300 67 c 128,-1,20
 325 78 325 78 346 93 c 0,21,22
 350 95 350 95 353.5 98 c 128,-1,23
 357 101 357 101 360 101 c 0,24,25
 365 101 365 101 367.5 96.5 c 128,-1,26
 370 92 370 92 370 87 c 0,27,28
 370 66 370 66 353.5 43.5 c 128,-1,29
 337 21 337 21 304.5 6 c 128,-1,30
 272 -9 272 -9 224 -9 c 0,31,32
 175 -9 175 -9 132.5 11.5 c 128,-1,33
 90 32 90 32 63.5 74.5 c 128,-1,34
 37 117 37 117 37 184 c 0,35,36
 37 240 37 240 59 283.5 c 128,-1,37
 81 327 81 327 120.5 352 c 128,-1,38
 160 377 160 377 212 377 c 0,39,40
 271 377 271 377 307 352.5 c 128,-1,41
 343 328 343 328 359.5 289.5 c 128,-1,42
 376 251 376 251 376 208 c 0,43,44
 376 195 376 195 375.5 186 c 128,-1,45
 375 177 375 177 374 169 c 0,46,47
 373 157 373 157 359 157 c 2,48,-1
 111 157 l 1,15,16
113 214 m 1,49,-1
 302 214 l 1,50,51
 303 237 303 237 295.5 259 c 128,-1,52
 288 281 288 281 268 296 c 128,-1,53
 248 311 248 311 211 311 c 0,54,55
 169 311 169 311 143.5 285.5 c 128,-1,56
 118 260 118 260 113 214 c 1,49,-1
EndSplineSet
EndChar

StartChar: eacute
Encoding: 233 233 166
Width: 412
GlyphClass: 1
Flags: W
LayerCount: 2
Fore
SplineSet
130 439 m 2,0,-1
 203 506 l 2,1,2
 209 511 209 511 214 513.5 c 128,-1,3
 219 516 219 516 227 516 c 2,4,-1
 293 516 l 2,5,6
 298 516 298 516 299 512.5 c 128,-1,7
 300 509 300 509 296 507 c 2,8,-1
 215 441 l 2,9,10
 203 430 203 430 186 430 c 2,11,-1
 134 430 l 2,12,13
 130 430 130 430 128.5 433.5 c 128,-1,14
 127 437 127 437 130 439 c 2,0,-1
111 157 m 1,15,16
 117 105 117 105 149 80.5 c 128,-1,17
 181 56 181 56 233 56 c 0,18,19
 275 56 275 56 300 67 c 128,-1,20
 325 78 325 78 346 93 c 0,21,22
 350 95 350 95 353.5 98 c 128,-1,23
 357 101 357 101 360 101 c 0,24,25
 365 101 365 101 367.5 96.5 c 128,-1,26
 370 92 370 92 370 87 c 0,27,28
 370 66 370 66 353.5 43.5 c 128,-1,29
 337 21 337 21 304.5 6 c 128,-1,30
 272 -9 272 -9 224 -9 c 0,31,32
 175 -9 175 -9 132.5 11.5 c 128,-1,33
 90 32 90 32 63.5 74.5 c 128,-1,34
 37 117 37 117 37 184 c 0,35,36
 37 240 37 240 59 283.5 c 128,-1,37
 81 327 81 327 120.5 352 c 128,-1,38
 160 377 160 377 212 377 c 0,39,40
 271 377 271 377 307 352.5 c 128,-1,41
 343 328 343 328 359.5 289.5 c 128,-1,42
 376 251 376 251 376 208 c 0,43,44
 376 195 376 195 375.5 186 c 128,-1,45
 375 177 375 177 374 169 c 0,46,47
 373 157 373 157 359 157 c 2,48,-1
 111 157 l 1,15,16
113 214 m 1,49,-1
 302 214 l 1,50,51
 303 237 303 237 295.5 259 c 128,-1,52
 288 281 288 281 268 296 c 128,-1,53
 248 311 248 311 211 311 c 0,54,55
 169 311 169 311 143.5 285.5 c 128,-1,56
 118 260 118 260 113 214 c 1,49,-1
EndSplineSet
EndChar

StartChar: ecircumflex
Encoding: 234 234 167
Width: 412
GlyphClass: 1
Flags: W
LayerCount: 2
Fore
SplineSet
214 485 m 1,0,-1
 174 442 l 2,1,2
 163 430 163 430 145 430 c 2,3,-1
 98 430 l 2,4,5
 94 430 94 430 92.5 433.5 c 128,-1,6
 91 437 91 437 94 439 c 2,7,-1
 163 506 l 2,8,9
 173 516 173 516 188 516 c 2,10,-1
 241 516 l 2,11,12
 255 516 255 516 265 506 c 2,13,-1
 335 439 l 2,14,15
 337 437 337 437 336 433.5 c 128,-1,16
 335 430 335 430 331 430 c 2,17,-1
 284 430 l 2,18,19
 267 430 267 430 255 442 c 2,20,-1
 214 485 l 1,0,-1
111 157 m 1,21,22
 117 105 117 105 149 80.5 c 128,-1,23
 181 56 181 56 233 56 c 0,24,25
 275 56 275 56 300 67 c 128,-1,26
 325 78 325 78 346 93 c 0,27,28
 350 95 350 95 353.5 98 c 128,-1,29
 357 101 357 101 360 101 c 0,30,31
 365 101 365 101 367.5 96.5 c 128,-1,32
 370 92 370 92 370 87 c 0,33,34
 370 66 370 66 353.5 43.5 c 128,-1,35
 337 21 337 21 304.5 6 c 128,-1,36
 272 -9 272 -9 224 -9 c 0,37,38
 175 -9 175 -9 132.5 11.5 c 128,-1,39
 90 32 90 32 63.5 74.5 c 128,-1,40
 37 117 37 117 37 184 c 0,41,42
 37 240 37 240 59 283.5 c 128,-1,43
 81 327 81 327 120.5 352 c 128,-1,44
 160 377 160 377 212 377 c 0,45,46
 271 377 271 377 307 352.5 c 128,-1,47
 343 328 343 328 359.5 289.5 c 128,-1,48
 376 251 376 251 376 208 c 0,49,50
 376 195 376 195 375.5 186 c 128,-1,51
 375 177 375 177 374 169 c 0,52,53
 373 157 373 157 359 157 c 2,54,-1
 111 157 l 1,21,22
113 214 m 1,55,-1
 302 214 l 1,56,57
 303 237 303 237 295.5 259 c 128,-1,58
 288 281 288 281 268 296 c 128,-1,59
 248 311 248 311 211 311 c 0,60,61
 169 311 169 311 143.5 285.5 c 128,-1,62
 118 260 118 260 113 214 c 1,55,-1
EndSplineSet
EndChar

StartChar: edieresis
Encoding: 235 235 168
Width: 412
GlyphClass: 1
Flags: W
LayerCount: 2
Fore
SplineSet
100 467 m 0,0,1
 100 487 100 487 113 500 c 128,-1,2
 126 513 126 513 145 513 c 256,3,4
 164 513 164 513 177 500 c 128,-1,5
 190 487 190 487 190 467 c 0,6,7
 190 448 190 448 177 435 c 128,-1,8
 164 422 164 422 145 422 c 256,9,10
 126 422 126 422 113 435 c 128,-1,11
 100 448 100 448 100 467 c 0,0,1
236 467 m 0,12,13
 236 487 236 487 249 500 c 128,-1,14
 262 513 262 513 281 513 c 256,15,16
 300 513 300 513 313 500 c 128,-1,17
 326 487 326 487 326 467 c 0,18,19
 326 448 326 448 313 435 c 128,-1,20
 300 422 300 422 281 422 c 256,21,22
 262 422 262 422 249 435 c 128,-1,23
 236 448 236 448 236 467 c 0,12,13
111 157 m 1,24,25
 117 105 117 105 149 80.5 c 128,-1,26
 181 56 181 56 233 56 c 0,27,28
 275 56 275 56 300 67 c 128,-1,29
 325 78 325 78 346 93 c 0,30,31
 350 95 350 95 353.5 98 c 128,-1,32
 357 101 357 101 360 101 c 0,33,34
 365 101 365 101 367.5 96.5 c 128,-1,35
 370 92 370 92 370 87 c 0,36,37
 370 66 370 66 353.5 43.5 c 128,-1,38
 337 21 337 21 304.5 6 c 128,-1,39
 272 -9 272 -9 224 -9 c 0,40,41
 175 -9 175 -9 132.5 11.5 c 128,-1,42
 90 32 90 32 63.5 74.5 c 128,-1,43
 37 117 37 117 37 184 c 0,44,45
 37 240 37 240 59 283.5 c 128,-1,46
 81 327 81 327 120.5 352 c 128,-1,47
 160 377 160 377 212 377 c 0,48,49
 271 377 271 377 307 352.5 c 128,-1,50
 343 328 343 328 359.5 289.5 c 128,-1,51
 376 251 376 251 376 208 c 0,52,53
 376 195 376 195 375.5 186 c 128,-1,54
 375 177 375 177 374 169 c 0,55,56
 373 157 373 157 359 157 c 2,57,-1
 111 157 l 1,24,25
113 214 m 1,58,-1
 302 214 l 1,59,60
 303 237 303 237 295.5 259 c 128,-1,61
 288 281 288 281 268 296 c 128,-1,62
 248 311 248 311 211 311 c 0,63,64
 169 311 169 311 143.5 285.5 c 128,-1,65
 118 260 118 260 113 214 c 1,58,-1
EndSplineSet
EndChar

StartChar: igrave
Encoding: 236 236 169
Width: 180
GlyphClass: 1
Flags: W
LayerCount: 2
Fore
SplineSet
174 439 m 2,0,1
 177 437 177 437 176 433.5 c 128,-1,2
 175 430 175 430 170 430 c 2,3,-1
 117 430 l 2,4,5
 100 430 100 430 89 441 c 2,6,-1
 7 507 l 2,7,8
 4 509 4 509 5.5 512.5 c 128,-1,9
 7 516 7 516 11 516 c 2,10,-1
 75 516 l 2,11,12
 84 516 84 516 89 513.5 c 128,-1,13
 94 511 94 511 100 506 c 2,14,-1
 174 439 l 2,0,1
62 0 m 2,15,16
 54 0 54 0 54 9 c 2,17,-1
 54 359 l 2,18,19
 54 368 54 368 62 368 c 2,20,-1
 67 368 l 2,21,22
 96 368 96 368 112.5 351 c 128,-1,23
 129 334 129 334 129 299 c 2,24,-1
 129 9 l 2,25,26
 129 0 129 0 121 0 c 2,27,-1
 62 0 l 2,15,16
EndSplineSet
EndChar

StartChar: iacute
Encoding: 237 237 170
Width: 180
GlyphClass: 1
Flags: W
LayerCount: 2
Fore
SplineSet
7 439 m 2,0,-1
 80 506 l 2,1,2
 87 511 87 511 92 513.5 c 128,-1,3
 97 516 97 516 104 516 c 2,4,-1
 170 516 l 2,5,6
 175 516 175 516 176 512.5 c 128,-1,7
 177 509 177 509 174 507 c 2,8,-1
 92 441 l 2,9,10
 81 430 81 430 64 430 c 2,11,-1
 11 430 l 2,12,13
 7 430 7 430 5.5 433.5 c 128,-1,14
 4 437 4 437 7 439 c 2,0,-1
62 0 m 2,15,16
 55 0 55 0 55 9 c 2,17,-1
 55 359 l 2,18,19
 55 368 55 368 62 368 c 2,20,-1
 67 368 l 2,21,22
 96 368 96 368 112.5 351 c 128,-1,23
 129 334 129 334 129 299 c 2,24,-1
 129 9 l 2,25,26
 129 0 129 0 121 0 c 2,27,-1
 62 0 l 2,15,16
EndSplineSet
EndChar

StartChar: icircumflex
Encoding: 238 238 171
Width: 180
GlyphClass: 1
Flags: W
LayerCount: 2
Fore
SplineSet
90 485 m 1,0,-1
 49 442 l 2,1,2
 40 430 40 430 20 430 c 2,3,-1
 -26 430 l 2,4,5
 -30 430 -30 430 -31.5 433.5 c 128,-1,6
 -33 437 -33 437 -30 439 c 2,7,-1
 38 506 l 2,8,9
 49 516 49 516 63 516 c 2,10,-1
 117 516 l 2,11,12
 131 516 131 516 141 506 c 2,13,-1
 210 439 l 2,14,15
 212 437 212 437 211.5 433.5 c 128,-1,16
 211 430 211 430 207 430 c 2,17,-1
 160 430 l 2,18,19
 143 430 143 430 131 442 c 2,20,-1
 90 485 l 1,0,-1
62 0 m 2,21,22
 54 0 54 0 54 9 c 2,23,-1
 54 359 l 2,24,25
 54 368 54 368 62 368 c 2,26,-1
 67 368 l 2,27,28
 96 368 96 368 112 351 c 128,-1,29
 128 334 128 334 128 299 c 2,30,-1
 128 9 l 2,31,32
 128 0 128 0 120 0 c 2,33,-1
 62 0 l 2,21,22
EndSplineSet
EndChar

StartChar: idieresis
Encoding: 239 239 172
Width: 180
GlyphClass: 1
Flags: W
LayerCount: 2
Fore
SplineSet
-23 467 m 0,0,1
 -23 487 -23 487 -10 500 c 128,-1,2
 3 513 3 513 21 513 c 0,3,4
 40 513 40 513 53 500 c 128,-1,5
 66 487 66 487 66 467 c 0,6,7
 66 448 66 448 53 435 c 128,-1,8
 40 422 40 422 21 422 c 0,9,10
 3 422 3 422 -10 435 c 128,-1,11
 -23 448 -23 448 -23 467 c 0,0,1
113 467 m 0,12,13
 113 487 113 487 126 500 c 128,-1,14
 139 513 139 513 158 513 c 256,15,16
 177 513 177 513 190 500 c 128,-1,17
 203 487 203 487 203 467 c 0,18,19
 203 448 203 448 190 435 c 128,-1,20
 177 422 177 422 158 422 c 256,21,22
 139 422 139 422 126 435 c 128,-1,23
 113 448 113 448 113 467 c 0,12,13
60 0 m 2,24,25
 53 0 53 0 53 9 c 2,26,-1
 53 359 l 2,27,28
 53 368 53 368 60 368 c 2,29,-1
 65 368 l 2,30,31
 94 368 94 368 110.5 351 c 128,-1,32
 127 334 127 334 127 299 c 2,33,-1
 127 9 l 2,34,35
 127 0 127 0 119 0 c 2,36,-1
 60 0 l 2,24,25
EndSplineSet
EndChar

StartChar: eth
Encoding: 240 240 173
Width: 444
GlyphClass: 1
Flags: W
LayerCount: 2
Fore
SplineSet
246 367 m 1,0,-1
 193 441 l 1,1,-1
 130 407 l 2,2,3
 123 405 123 405 120 412 c 2,4,-1
 102 436 l 2,5,6
 99 443 99 443 106 447 c 2,7,-1
 166 479 l 1,8,-1
 119 547 l 2,9,10
 117 550 117 550 118 553 c 128,-1,11
 119 556 119 556 124 556 c 2,12,-1
 144 556 l 2,13,14
 173 556 173 556 189.5 549 c 128,-1,15
 206 542 206 542 220 522 c 2,16,-1
 228 511 l 1,17,-1
 280 538 l 2,18,19
 288 543 288 543 291 534 c 2,20,-1
 309 510 l 2,21,22
 312 503 312 503 306 499 c 2,23,-1
 256 472 l 1,24,-1
 361 322 l 2,25,26
 382 294 382 294 394.5 262 c 128,-1,27
 407 230 407 230 407 195 c 0,28,29
 407 137 407 137 387.5 90.5 c 128,-1,30
 368 44 368 44 327 17.5 c 128,-1,31
 286 -9 286 -9 223 -9 c 0,32,33
 141 -9 141 -9 89.5 40.5 c 128,-1,34
 38 90 38 90 38 173 c 0,35,36
 38 228 38 228 58 272 c 128,-1,37
 78 316 78 316 117.5 342.5 c 128,-1,38
 157 369 157 369 214 369 c 0,39,40
 222 369 222 369 230.5 368.5 c 128,-1,41
 239 368 239 368 246 367 c 1,0,-1
221 59 m 0,42,43
 269 59 269 59 300 89 c 128,-1,44
 331 119 331 119 331 179 c 0,45,46
 331 238 331 238 300 269 c 128,-1,47
 269 300 269 300 222 300 c 0,48,49
 174 300 174 300 144 269 c 128,-1,50
 114 238 114 238 114 179 c 0,51,52
 114 121 114 121 144 90 c 128,-1,53
 174 59 174 59 221 59 c 0,42,43
EndSplineSet
EndChar

StartChar: ntilde
Encoding: 241 241 174
Width: 441
GlyphClass: 1
Flags: W
LayerCount: 2
Fore
SplineSet
339 503 m 0,0,1
 331 430 331 430 270 430 c 0,2,3
 252 430 252 430 234.5 437 c 128,-1,4
 217 444 217 444 201.5 451 c 128,-1,5
 186 458 186 458 174 458 c 0,6,7
 164 458 164 458 160 452.5 c 128,-1,8
 156 447 156 447 154 439 c 0,9,10
 153 429 153 429 145 429 c 2,11,-1
 110 429 l 2,12,13
 102 429 102 429 102 438 c 0,14,15
 107 513 107 513 164 513 c 0,16,17
 184 513 184 513 202 506 c 128,-1,18
 220 499 220 499 236 491.5 c 128,-1,19
 252 484 252 484 265 484 c 0,20,21
 281 484 281 484 285 502 c 0,22,23
 288 512 288 512 296 512 c 2,24,-1
 330 512 l 2,25,26
 339 512 339 512 339 503 c 0,0,1
124 318 m 1,27,28
 140 343 140 343 170 359.5 c 128,-1,29
 200 376 200 376 240 376 c 0,30,31
 310 376 310 376 350 333 c 128,-1,32
 390 290 390 290 390 216 c 2,33,-1
 390 9 l 2,34,35
 390 0 390 0 382 0 c 2,36,-1
 323 0 l 2,37,38
 315 0 315 0 315 9 c 2,39,-1
 315 202 l 2,40,41
 315 255 315 255 290 281 c 128,-1,42
 265 307 265 307 223 307 c 0,43,44
 178 307 178 307 152 280.5 c 128,-1,45
 126 254 126 254 126 198 c 2,46,-1
 126 9 l 2,47,48
 126 0 126 0 119 0 c 2,49,-1
 60 0 l 2,50,51
 52 0 52 0 52 9 c 2,52,-1
 52 359 l 2,53,54
 52 368 52 368 60 368 c 2,55,-1
 65 368 l 2,56,57
 88 368 88 368 104 355 c 128,-1,58
 120 342 120 342 124 318 c 1,27,28
EndSplineSet
EndChar

StartChar: ograve
Encoding: 242 242 175
Width: 447
GlyphClass: 1
Flags: W
LayerCount: 2
Fore
SplineSet
301 439 m 2,0,1
 305 437 305 437 304 433.5 c 128,-1,2
 303 430 303 430 298 430 c 2,3,-1
 245 430 l 2,4,5
 228 430 228 430 216 441 c 2,6,-1
 135 507 l 2,7,8
 132 509 132 509 133.5 512.5 c 128,-1,9
 135 516 135 516 139 516 c 2,10,-1
 203 516 l 2,11,12
 212 516 212 516 217 513.5 c 128,-1,13
 222 511 222 511 228 506 c 2,14,-1
 301 439 l 2,0,1
223 -9 m 256,15,16
 138 -9 138 -9 87.5 43.5 c 128,-1,17
 37 96 37 96 37 183 c 256,18,19
 37 270 37 270 87.5 323.5 c 128,-1,20
 138 377 138 377 222 377 c 0,21,22
 307 377 307 377 358 323.5 c 128,-1,23
 409 270 409 270 409 184 c 0,24,25
 409 97 409 97 358.5 44 c 128,-1,26
 308 -9 308 -9 223 -9 c 256,15,16
222 62 m 0,27,28
 269 62 269 62 300.5 92 c 128,-1,29
 332 122 332 122 332 183 c 0,30,31
 332 242 332 242 300.5 274 c 128,-1,32
 269 306 269 306 222 306 c 0,33,34
 174 306 174 306 144 274 c 128,-1,35
 114 242 114 242 114 183 c 256,36,37
 114 124 114 124 144 93 c 128,-1,38
 174 62 174 62 222 62 c 0,27,28
EndSplineSet
EndChar

StartChar: oacute
Encoding: 243 243 176
Width: 447
GlyphClass: 1
Flags: W
LayerCount: 2
Fore
SplineSet
142 439 m 2,0,-1
 215 506 l 2,1,2
 222 511 222 511 227 513.5 c 128,-1,3
 232 516 232 516 239 516 c 2,4,-1
 305 516 l 2,5,6
 310 516 310 516 311 512.5 c 128,-1,7
 312 509 312 509 309 507 c 2,8,-1
 228 441 l 2,9,10
 216 430 216 430 199 430 c 2,11,-1
 146 430 l 2,12,13
 142 430 142 430 140.5 433.5 c 128,-1,14
 139 437 139 437 142 439 c 2,0,-1
223 -9 m 256,15,16
 138 -9 138 -9 87.5 43.5 c 128,-1,17
 37 96 37 96 37 183 c 256,18,19
 37 270 37 270 87.5 323.5 c 128,-1,20
 138 377 138 377 222 377 c 0,21,22
 307 377 307 377 358 323.5 c 128,-1,23
 409 270 409 270 409 184 c 0,24,25
 409 97 409 97 358.5 44 c 128,-1,26
 308 -9 308 -9 223 -9 c 256,15,16
222 62 m 0,27,28
 269 62 269 62 300.5 92 c 128,-1,29
 332 122 332 122 332 183 c 0,30,31
 332 242 332 242 300.5 274 c 128,-1,32
 269 306 269 306 222 306 c 0,33,34
 174 306 174 306 144 274 c 128,-1,35
 114 242 114 242 114 183 c 256,36,37
 114 124 114 124 144 93 c 128,-1,38
 174 62 174 62 222 62 c 0,27,28
EndSplineSet
EndChar

StartChar: ocircumflex
Encoding: 244 244 177
Width: 447
GlyphClass: 1
Flags: W
LayerCount: 2
Fore
SplineSet
223 485 m 1,0,-1
 183 442 l 2,1,2
 172 430 172 430 154 430 c 2,3,-1
 107 430 l 2,4,5
 103 430 103 430 101.5 433.5 c 128,-1,6
 100 437 100 437 103 439 c 2,7,-1
 171 506 l 2,8,9
 182 516 182 516 196 516 c 2,10,-1
 250 516 l 2,11,12
 264 516 264 516 274 506 c 2,13,-1
 344 439 l 2,14,15
 346 437 346 437 345 433.5 c 128,-1,16
 344 430 344 430 340 430 c 2,17,-1
 293 430 l 2,18,19
 276 430 276 430 264 442 c 2,20,-1
 223 485 l 1,0,-1
223 -9 m 256,21,22
 138 -9 138 -9 87.5 43.5 c 128,-1,23
 37 96 37 96 37 183 c 256,24,25
 37 270 37 270 87.5 323.5 c 128,-1,26
 138 377 138 377 222 377 c 0,27,28
 307 377 307 377 358 323.5 c 128,-1,29
 409 270 409 270 409 184 c 0,30,31
 409 97 409 97 358.5 44 c 128,-1,32
 308 -9 308 -9 223 -9 c 256,21,22
222 62 m 0,33,34
 269 62 269 62 300.5 92 c 128,-1,35
 332 122 332 122 332 183 c 0,36,37
 332 242 332 242 300.5 274 c 128,-1,38
 269 306 269 306 222 306 c 0,39,40
 174 306 174 306 144 274 c 128,-1,41
 114 242 114 242 114 183 c 256,42,43
 114 124 114 124 144 93 c 128,-1,44
 174 62 174 62 222 62 c 0,33,34
EndSplineSet
EndChar

StartChar: otilde
Encoding: 245 245 178
Width: 447
GlyphClass: 1
Flags: W
LayerCount: 2
Fore
SplineSet
339 503 m 0,0,1
 331 430 331 430 270 430 c 0,2,3
 252 430 252 430 234.5 437 c 128,-1,4
 217 444 217 444 201.5 451 c 128,-1,5
 186 458 186 458 174 458 c 0,6,7
 164 458 164 458 160 452.5 c 128,-1,8
 156 447 156 447 154 439 c 0,9,10
 153 429 153 429 145 429 c 2,11,-1
 110 429 l 2,12,13
 102 429 102 429 102 438 c 0,14,15
 107 513 107 513 164 513 c 0,16,17
 184 513 184 513 202 506 c 128,-1,18
 220 499 220 499 236 491.5 c 128,-1,19
 252 484 252 484 265 484 c 0,20,21
 281 484 281 484 285 502 c 0,22,23
 288 512 288 512 296 512 c 2,24,-1
 330 512 l 2,25,26
 339 512 339 512 339 503 c 0,0,1
223 -9 m 256,27,28
 138 -9 138 -9 87.5 43.5 c 128,-1,29
 37 96 37 96 37 183 c 256,30,31
 37 270 37 270 87.5 323.5 c 128,-1,32
 138 377 138 377 222 377 c 0,33,34
 307 377 307 377 358 323.5 c 128,-1,35
 409 270 409 270 409 184 c 0,36,37
 409 97 409 97 358.5 44 c 128,-1,38
 308 -9 308 -9 223 -9 c 256,27,28
222 62 m 0,39,40
 269 62 269 62 300.5 92 c 128,-1,41
 332 122 332 122 332 183 c 0,42,43
 332 242 332 242 300.5 274 c 128,-1,44
 269 306 269 306 222 306 c 0,45,46
 174 306 174 306 144 274 c 128,-1,47
 114 242 114 242 114 183 c 256,48,49
 114 124 114 124 144 93 c 128,-1,50
 174 62 174 62 222 62 c 0,39,40
EndSplineSet
EndChar

StartChar: odieresis
Encoding: 246 246 179
Width: 447
GlyphClass: 1
Flags: W
LayerCount: 2
Fore
SplineSet
110 467 m 0,0,1
 110 487 110 487 123 500 c 128,-1,2
 136 513 136 513 155 513 c 256,3,4
 174 513 174 513 187 500 c 128,-1,5
 200 487 200 487 200 467 c 0,6,7
 200 448 200 448 187 435 c 128,-1,8
 174 422 174 422 155 422 c 256,9,10
 136 422 136 422 123 435 c 128,-1,11
 110 448 110 448 110 467 c 0,0,1
246 467 m 0,12,13
 246 487 246 487 259 500 c 128,-1,14
 272 513 272 513 291 513 c 256,15,16
 310 513 310 513 323 500 c 128,-1,17
 336 487 336 487 336 467 c 0,18,19
 336 448 336 448 323 435 c 128,-1,20
 310 422 310 422 291 422 c 256,21,22
 272 422 272 422 259 435 c 128,-1,23
 246 448 246 448 246 467 c 0,12,13
223 -9 m 256,24,25
 138 -9 138 -9 87.5 43.5 c 128,-1,26
 37 96 37 96 37 183 c 256,27,28
 37 270 37 270 87.5 323.5 c 128,-1,29
 138 377 138 377 222 377 c 0,30,31
 307 377 307 377 358 323.5 c 128,-1,32
 409 270 409 270 409 184 c 0,33,34
 409 97 409 97 358.5 44 c 128,-1,35
 308 -9 308 -9 223 -9 c 256,24,25
222 62 m 0,36,37
 269 62 269 62 300.5 92 c 128,-1,38
 332 122 332 122 332 183 c 0,39,40
 332 242 332 242 300.5 274 c 128,-1,41
 269 306 269 306 222 306 c 0,42,43
 174 306 174 306 144 274 c 128,-1,44
 114 242 114 242 114 183 c 256,45,46
 114 124 114 124 144 93 c 128,-1,47
 174 62 174 62 222 62 c 0,36,37
EndSplineSet
EndChar

StartChar: divide
Encoding: 247 247 180
Width: 403
GlyphClass: 1
Flags: W
LayerCount: 2
Fore
SplineSet
158 404 m 0,0,1
 158 423 158 423 171 435.5 c 128,-1,2
 184 448 184 448 201 448 c 0,3,4
 219 448 219 448 231.5 435.5 c 128,-1,5
 244 423 244 423 244 404 c 0,6,7
 244 387 244 387 231.5 374.5 c 128,-1,8
 219 362 219 362 201 362 c 0,9,10
 184 362 184 362 171 374.5 c 128,-1,11
 158 387 158 387 158 404 c 0,0,1
45 238 m 2,12,13
 37 238 37 238 37 247 c 2,14,-1
 37 295 l 2,15,16
 37 304 37 304 45 304 c 2,17,-1
 315 304 l 2,18,19
 340 304 340 304 353 291 c 128,-1,20
 366 278 366 278 366 257 c 2,21,-1
 366 247 l 2,22,23
 366 238 366 238 358 238 c 2,24,-1
 45 238 l 2,12,13
158 137 m 256,25,26
 158 155 158 155 171 168 c 128,-1,27
 184 181 184 181 201 181 c 0,28,29
 219 181 219 181 231.5 168 c 128,-1,30
 244 155 244 155 244 137 c 256,31,32
 244 119 244 119 231.5 106.5 c 128,-1,33
 219 94 219 94 201 94 c 0,34,35
 184 94 184 94 171 106.5 c 128,-1,36
 158 119 158 119 158 137 c 256,25,26
EndSplineSet
EndChar

StartChar: oslash
Encoding: 248 248 181
Width: 447
GlyphClass: 1
Flags: W
LayerCount: 2
Fore
SplineSet
224 -9 m 256,0,1
 139 -9 139 -9 88.5 43.5 c 128,-1,2
 38 96 38 96 38 183 c 256,3,4
 38 270 38 270 88.5 323.5 c 128,-1,5
 139 377 139 377 223 377 c 0,6,7
 308 377 308 377 359 323.5 c 128,-1,8
 410 270 410 270 410 184 c 0,9,10
 410 97 410 97 359.5 44 c 128,-1,11
 309 -9 309 -9 224 -9 c 256,0,1
144 96 m 1,12,-1
 271 294 l 1,13,14
 250 306 250 306 223 306 c 0,15,16
 175 306 175 306 145 274 c 128,-1,17
 115 242 115 242 115 183 c 0,18,19
 115 127 115 127 144 96 c 1,12,-1
312 257 m 1,20,-1
 190 66 l 1,21,22
 198 63 198 63 206 62 c 128,-1,23
 214 61 214 61 223 61 c 0,24,25
 270 61 270 61 301.5 91.5 c 128,-1,26
 333 122 333 122 333 183 c 0,27,28
 333 206 333 206 327.5 224.5 c 128,-1,29
 322 243 322 243 312 257 c 1,20,-1
EndSplineSet
EndChar

StartChar: ugrave
Encoding: 249 249 182
Width: 432
GlyphClass: 1
Flags: W
LayerCount: 2
Fore
SplineSet
282 439 m 2,0,1
 285 437 285 437 284 433.5 c 128,-1,2
 283 430 283 430 278 430 c 2,3,-1
 226 430 l 2,4,5
 209 430 209 430 197 441 c 2,6,-1
 115 507 l 2,7,8
 112 509 112 509 113.5 512.5 c 128,-1,9
 115 516 115 516 119 516 c 2,10,-1
 183 516 l 2,11,12
 193 516 193 516 198 513.5 c 128,-1,13
 203 511 203 511 208 506 c 2,14,-1
 282 439 l 2,0,1
213 -10 m 256,15,16
 131 -10 131 -10 90 38.5 c 128,-1,17
 49 87 49 87 49 172 c 2,18,-1
 49 359 l 2,19,20
 49 368 49 368 57 368 c 2,21,-1
 62 368 l 2,22,23
 123 368 123 368 123 299 c 2,24,-1
 123 164 l 2,25,26
 123 111 123 111 147.5 85 c 128,-1,27
 172 59 172 59 213 59 c 256,28,29
 254 59 254 59 278.5 82.5 c 128,-1,30
 303 106 303 106 303 161 c 2,31,-1
 303 359 l 2,32,33
 303 368 303 368 311 368 c 2,34,-1
 316 368 l 2,35,36
 378 368 378 368 378 299 c 2,37,-1
 378 167 l 2,38,39
 378 85 378 85 336.5 37.5 c 128,-1,40
 295 -10 295 -10 213 -10 c 256,15,16
EndSplineSet
EndChar

StartChar: uacute
Encoding: 250 250 183
Width: 432
GlyphClass: 1
Flags: W
LayerCount: 2
Fore
SplineSet
131 439 m 2,0,-1
 204 506 l 2,1,2
 210 511 210 511 215 513.5 c 128,-1,3
 220 516 220 516 228 516 c 2,4,-1
 293 516 l 2,5,6
 298 516 298 516 299.5 512.5 c 128,-1,7
 301 509 301 509 297 507 c 2,8,-1
 216 441 l 2,9,10
 204 430 204 430 187 430 c 2,11,-1
 135 430 l 2,12,13
 130 430 130 430 129 433.5 c 128,-1,14
 128 437 128 437 131 439 c 2,0,-1
213 -10 m 256,15,16
 131 -10 131 -10 90 38.5 c 128,-1,17
 49 87 49 87 49 172 c 2,18,-1
 49 359 l 2,19,20
 49 368 49 368 57 368 c 2,21,-1
 62 368 l 2,22,23
 123 368 123 368 123 299 c 2,24,-1
 123 164 l 2,25,26
 123 111 123 111 147.5 85 c 128,-1,27
 172 59 172 59 213 59 c 256,28,29
 254 59 254 59 278.5 82.5 c 128,-1,30
 303 106 303 106 303 161 c 2,31,-1
 303 359 l 2,32,33
 303 368 303 368 311 368 c 2,34,-1
 316 368 l 2,35,36
 378 368 378 368 378 299 c 2,37,-1
 378 167 l 2,38,39
 378 85 378 85 336.5 37.5 c 128,-1,40
 295 -10 295 -10 213 -10 c 256,15,16
EndSplineSet
EndChar

StartChar: ucircumflex
Encoding: 251 251 184
Width: 432
GlyphClass: 1
Flags: W
LayerCount: 2
Fore
SplineSet
210 485 m 1,0,-1
 170 442 l 2,1,2
 159 430 159 430 141 430 c 2,3,-1
 94 430 l 2,4,5
 90 430 90 430 88.5 433.5 c 128,-1,6
 87 437 87 437 90 439 c 2,7,-1
 158 506 l 2,8,9
 169 516 169 516 183 516 c 2,10,-1
 237 516 l 2,11,12
 251 516 251 516 261 506 c 2,13,-1
 331 439 l 2,14,15
 333 437 333 437 332 433.5 c 128,-1,16
 331 430 331 430 327 430 c 2,17,-1
 280 430 l 2,18,19
 263 430 263 430 251 442 c 2,20,-1
 210 485 l 1,0,-1
213 -10 m 256,21,22
 131 -10 131 -10 90 38.5 c 128,-1,23
 49 87 49 87 49 172 c 2,24,-1
 49 359 l 2,25,26
 49 368 49 368 57 368 c 2,27,-1
 62 368 l 2,28,29
 123 368 123 368 123 299 c 2,30,-1
 123 164 l 2,31,32
 123 111 123 111 147.5 85 c 128,-1,33
 172 59 172 59 213 59 c 256,34,35
 254 59 254 59 278.5 82.5 c 128,-1,36
 303 106 303 106 303 161 c 2,37,-1
 303 359 l 2,38,39
 303 368 303 368 311 368 c 2,40,-1
 316 368 l 2,41,42
 378 368 378 368 378 299 c 2,43,-1
 378 167 l 2,44,45
 378 85 378 85 336.5 37.5 c 128,-1,46
 295 -10 295 -10 213 -10 c 256,21,22
EndSplineSet
EndChar

StartChar: udieresis
Encoding: 252 252 185
Width: 432
GlyphClass: 1
Flags: W
LayerCount: 2
Fore
SplineSet
101 467 m 0,0,1
 101 487 101 487 114 500 c 128,-1,2
 127 513 127 513 146 513 c 256,3,4
 165 513 165 513 178 500 c 128,-1,5
 191 487 191 487 191 467 c 0,6,7
 191 448 191 448 178 435 c 128,-1,8
 165 422 165 422 146 422 c 256,9,10
 127 422 127 422 114 435 c 128,-1,11
 101 448 101 448 101 467 c 0,0,1
237 467 m 0,12,13
 237 487 237 487 250 500 c 128,-1,14
 263 513 263 513 282 513 c 256,15,16
 301 513 301 513 314 500 c 128,-1,17
 327 487 327 487 327 467 c 0,18,19
 327 448 327 448 314 435 c 128,-1,20
 301 422 301 422 282 422 c 256,21,22
 263 422 263 422 250 435 c 128,-1,23
 237 448 237 448 237 467 c 0,12,13
213 -10 m 256,24,25
 131 -10 131 -10 90 38.5 c 128,-1,26
 49 87 49 87 49 172 c 2,27,-1
 49 359 l 2,28,29
 49 368 49 368 57 368 c 2,30,-1
 62 368 l 2,31,32
 123 368 123 368 123 299 c 2,33,-1
 123 164 l 2,34,35
 123 111 123 111 147.5 85 c 128,-1,36
 172 59 172 59 213 59 c 256,37,38
 254 59 254 59 278.5 82.5 c 128,-1,39
 303 106 303 106 303 161 c 2,40,-1
 303 359 l 2,41,42
 303 368 303 368 311 368 c 2,43,-1
 316 368 l 2,44,45
 378 368 378 368 378 299 c 2,46,-1
 378 167 l 2,47,48
 378 85 378 85 336.5 37.5 c 128,-1,49
 295 -10 295 -10 213 -10 c 256,24,25
EndSplineSet
EndChar

StartChar: yacute
Encoding: 253 253 186
Width: 368
GlyphClass: 1
Flags: W
LayerCount: 2
Fore
SplineSet
109 439 m 2,0,-1
 183 506 l 2,1,2
 194 516 194 516 206 516 c 2,3,-1
 272 516 l 2,4,5
 277 516 277 516 278 512.5 c 128,-1,6
 279 509 279 509 276 507 c 2,7,-1
 195 441 l 2,8,9
 183 430 183 430 166 430 c 2,10,-1
 113 430 l 2,11,12
 109 430 109 430 107.5 433.5 c 128,-1,13
 106 437 106 437 109 439 c 2,0,-1
143 -7 m 1,14,-1
 15 359 l 2,15,16
 13 368 13 368 20 368 c 2,17,-1
 37 368 l 2,18,19
 68 368 68 368 83 355 c 128,-1,20
 98 342 98 342 111 306 c 2,21,-1
 183 88 l 1,22,-1
 271 357 l 2,23,24
 275 368 275 368 287 368 c 2,25,-1
 342 368 l 2,26,27
 349 368 349 368 347 359 c 2,28,-1
 216 -9 l 2,29,30
 199 -58 199 -58 181 -94.5 c 128,-1,31
 163 -131 163 -131 138.5 -151 c 128,-1,32
 114 -171 114 -171 76 -171 c 256,33,34
 38 -171 38 -171 15 -146 c 128,-1,35
 -8 -121 -8 -121 -8 -93 c 0,36,37
 -8 -88 -8 -88 -5.5 -83 c 128,-1,38
 -3 -78 -3 -78 2 -78 c 256,39,40
 7 -78 7 -78 11 -82 c 0,41,42
 25 -93 25 -93 37 -99.5 c 128,-1,43
 49 -106 49 -106 63 -106 c 0,44,45
 90 -106 90 -106 106 -85.5 c 128,-1,46
 122 -65 122 -65 143 -7 c 1,14,-1
EndSplineSet
EndChar

StartChar: thorn
Encoding: 254 254 187
Width: 459
GlyphClass: 1
Flags: W
LayerCount: 2
Fore
SplineSet
127 49 m 1,0,-1
 127 -151 l 2,1,2
 127 -160 127 -160 120 -160 c 2,3,-1
 61 -160 l 2,4,5
 53 -160 53 -160 53 -151 c 2,6,-1
 53 547 l 2,7,8
 53 556 53 556 61 556 c 2,9,-1
 66 556 l 2,10,11
 127 556 127 556 127 487 c 2,12,-1
 127 320 l 1,13,14
 145 345 145 345 176 361 c 128,-1,15
 207 377 207 377 247 377 c 0,16,17
 330 377 330 377 376 322.5 c 128,-1,18
 422 268 422 268 422 184 c 0,19,20
 422 131 422 131 402 87 c 128,-1,21
 382 43 382 43 344 17 c 128,-1,22
 306 -9 306 -9 252 -9 c 0,23,24
 213 -9 213 -9 180 5 c 128,-1,25
 147 19 147 19 127 49 c 1,0,-1
238 61 m 0,26,27
 281 61 281 61 313 92.5 c 128,-1,28
 345 124 345 124 345 184 c 0,29,30
 345 239 345 239 316 272.5 c 128,-1,31
 287 306 287 306 236 306 c 0,32,33
 209 306 209 306 184 294.5 c 128,-1,34
 159 283 159 283 143 256 c 128,-1,35
 127 229 127 229 127 184 c 0,36,37
 127 141 127 141 143.5 113.5 c 128,-1,38
 160 86 160 86 185.5 73.5 c 128,-1,39
 211 61 211 61 238 61 c 0,26,27
EndSplineSet
EndChar

StartChar: ydieresis
Encoding: 255 255 188
Width: 368
GlyphClass: 1
Flags: W
LayerCount: 2
Fore
SplineSet
69 467 m 0,0,1
 69 487 69 487 82 500 c 128,-1,2
 95 513 95 513 114 513 c 256,3,4
 133 513 133 513 146 500 c 128,-1,5
 159 487 159 487 159 467 c 0,6,7
 159 448 159 448 146 435 c 128,-1,8
 133 422 133 422 114 422 c 256,9,10
 95 422 95 422 82 435 c 128,-1,11
 69 448 69 448 69 467 c 0,0,1
205 467 m 0,12,13
 205 487 205 487 218 500 c 128,-1,14
 231 513 231 513 250 513 c 256,15,16
 269 513 269 513 282 500 c 128,-1,17
 295 487 295 487 295 467 c 0,18,19
 295 448 295 448 282 435 c 128,-1,20
 269 422 269 422 250 422 c 256,21,22
 231 422 231 422 218 435 c 128,-1,23
 205 448 205 448 205 467 c 0,12,13
143 -7 m 1,24,-1
 15 359 l 2,25,26
 13 368 13 368 20 368 c 2,27,-1
 37 368 l 2,28,29
 68 368 68 368 83 355 c 128,-1,30
 98 342 98 342 111 306 c 2,31,-1
 183 88 l 1,32,-1
 271 357 l 2,33,34
 275 368 275 368 287 368 c 2,35,-1
 342 368 l 2,36,37
 349 368 349 368 347 359 c 2,38,-1
 216 -9 l 2,39,40
 199 -58 199 -58 181 -94.5 c 128,-1,41
 163 -131 163 -131 138.5 -151 c 128,-1,42
 114 -171 114 -171 76 -171 c 256,43,44
 38 -171 38 -171 15 -146 c 128,-1,45
 -8 -121 -8 -121 -8 -93 c 0,46,47
 -8 -88 -8 -88 -5.5 -83 c 128,-1,48
 -3 -78 -3 -78 2 -78 c 256,49,50
 7 -78 7 -78 11 -82 c 0,51,52
 25 -93 25 -93 37 -99.5 c 128,-1,53
 49 -106 49 -106 63 -106 c 0,54,55
 90 -106 90 -106 106 -85.5 c 128,-1,56
 122 -65 122 -65 143 -7 c 1,24,-1
EndSplineSet
EndChar

StartChar: dotlessi
Encoding: 305 305 189
Width: 180
GlyphClass: 1
Flags: W
LayerCount: 2
Fore
SplineSet
60 0 m 2,0,1
 52 0 52 0 52 9 c 2,2,-1
 52 359 l 2,3,4
 52 368 52 368 60 368 c 2,5,-1
 65 368 l 2,6,7
 126 368 126 368 126 299 c 2,8,-1
 126 9 l 2,9,10
 126 0 126 0 119 0 c 2,11,-1
 60 0 l 2,0,1
EndSplineSet
EndChar

StartChar: Lslash
Encoding: 321 321 190
Width: 378
GlyphClass: 1
Flags: W
LayerCount: 2
Fore
SplineSet
149 71 m 1,0,-1
 315 71 l 2,1,2
 338 71 338 71 349 59 c 128,-1,3
 360 47 360 47 360 27 c 2,4,-1
 360 11 l 2,5,6
 360 0 360 0 349 0 c 2,7,-1
 81 0 l 2,8,9
 73 0 73 0 73 9 c 2,10,-1
 73 204 l 1,11,-1
 28 180 l 2,12,13
 18 175 18 175 18 185 c 2,14,-1
 18 234 l 2,15,16
 18 245 18 245 27 248 c 2,17,-1
 73 273 l 1,18,-1
 73 547 l 2,19,20
 73 556 73 556 81 556 c 2,21,-1
 87 556 l 2,22,23
 116 556 116 556 132.5 538.5 c 128,-1,24
 149 521 149 521 149 485 c 2,25,-1
 149 315 l 1,26,-1
 284 388 l 2,27,28
 292 393 292 393 292 383 c 2,29,-1
 292 333 l 2,30,31
 292 322 292 322 285 318 c 2,32,-1
 149 246 l 1,33,-1
 149 71 l 1,0,-1
EndSplineSet
EndChar

StartChar: lslash
Encoding: 322 322 191
Width: 248
GlyphClass: 1
Flags: W
LayerCount: 2
Fore
SplineSet
68 202 m 1,0,-1
 28 180 l 2,1,2
 18 175 18 175 18 185 c 2,3,-1
 18 233 l 2,4,5
 18 243 18 243 27 247 c 2,6,-1
 68 268 l 1,7,-1
 68 547 l 2,8,9
 68 556 68 556 76 556 c 2,10,-1
 81 556 l 2,11,12
 142 556 142 556 142 487 c 2,13,-1
 142 310 l 1,14,-1
 198 340 l 2,15,16
 202 342 202 342 205 340.5 c 128,-1,17
 208 339 208 339 208 335 c 2,18,-1
 208 286 l 2,19,20
 208 278 208 278 199 272 c 2,21,-1
 142 242 l 1,22,-1
 142 111 l 2,23,24
 142 59 142 59 181 59 c 0,25,26
 197 59 197 59 208 65.5 c 128,-1,27
 219 72 219 72 229 83 c 0,28,29
 234 89 234 89 239 89 c 256,30,31
 244 89 244 89 245.5 85 c 128,-1,32
 247 81 247 81 247 76 c 0,33,34
 247 60 247 60 239 40 c 128,-1,35
 231 20 231 20 212 5.5 c 128,-1,36
 193 -9 193 -9 161 -9 c 0,37,38
 118 -9 118 -9 93 18.5 c 128,-1,39
 68 46 68 46 68 106 c 2,40,-1
 68 202 l 1,0,-1
EndSplineSet
EndChar

StartChar: OE
Encoding: 338 338 192
Width: 821
GlyphClass: 1
Flags: W
LayerCount: 2
Fore
SplineSet
549 71 m 1,0,-1
 747 71 l 2,1,2
 770 71 770 71 781 59 c 128,-1,3
 792 47 792 47 792 27 c 2,4,-1
 792 11 l 2,5,6
 792 0 792 0 781 0 c 2,7,-1
 482 0 l 2,8,9
 473 0 473 0 473 9 c 2,10,-1
 473 67 l 1,11,12
 444 30 444 30 400.5 10 c 128,-1,13
 357 -10 357 -10 301 -10 c 0,14,15
 182 -10 182 -10 115.5 67.5 c 128,-1,16
 49 145 49 145 49 277 c 0,17,18
 49 365 49 365 79 430 c 128,-1,19
 109 495 109 495 165.5 531 c 128,-1,20
 222 567 222 567 301 567 c 0,21,22
 357 567 357 567 400.5 546.5 c 128,-1,23
 444 526 444 526 473 489 c 1,24,-1
 473 547 l 2,25,26
 473 556 473 556 482 556 c 2,27,-1
 738 556 l 2,28,29
 783 556 783 556 783 513 c 2,30,-1
 783 496 l 2,31,32
 783 485 783 485 772 485 c 2,33,-1
 549 485 l 1,34,-1
 549 312 l 1,35,-1
 719 312 l 2,36,37
 764 312 764 312 764 268 c 2,38,-1
 764 252 l 2,39,40
 764 242 764 242 753 242 c 2,41,-1
 549 242 l 1,42,-1
 549 71 l 1,0,-1
301 62 m 256,43,44
 345 62 345 62 384.5 81 c 128,-1,45
 424 100 424 100 448.5 146.5 c 128,-1,46
 473 193 473 193 473 277 c 256,47,48
 473 361 473 361 448.5 408.5 c 128,-1,49
 424 456 424 456 384.5 475.5 c 128,-1,50
 345 495 345 495 301 495 c 256,51,52
 257 495 257 495 217 475.5 c 128,-1,53
 177 456 177 456 152.5 408.5 c 128,-1,54
 128 361 128 361 128 277 c 256,55,56
 128 193 128 193 152.5 146.5 c 128,-1,57
 177 100 177 100 217 81 c 128,-1,58
 257 62 257 62 301 62 c 256,43,44
EndSplineSet
EndChar

